<svg width="101" height="100" viewBox="0 0 101 100" fill="none" xmlns="http://www.w3.org/2000/svg">
<g clip-path="url(#clip0_201_8)">
<path d="M0.521393 50C0.521393 22.3581 22.9296 -0.0500183 50.5714 -0.0500183C78.2131 -0.0500183 100.621 22.3581 100.621 50C100.621 77.6417 78.2131 100.05 50.5714 100.05C22.9296 100.05 0.521393 77.6417 0.521393 50Z" fill="url(#paint0_linear_201_8)"/>
<path fill-rule="evenodd" clip-rule="evenodd" d="M53.3386 18.5714C56.1018 18.5714 58.476 20.4741 58.9959 23.1054L59.227 24.2754C60.1356 28.8745 65.0422 31.621 69.6047 30.0844L70.766 29.6933C73.3763 28.8142 76.2629 29.8562 77.6444 32.1763L79.7313 35.6807C81.1131 38.0009 80.6004 40.9455 78.51 42.6976L77.5803 43.4768C73.9262 46.5393 73.9262 52.0322 77.5803 55.0946L78.51 55.8738C80.6004 57.6259 81.1131 60.5705 79.7313 62.8907L77.6446 66.3951C76.2629 68.7152 73.3763 69.7571 70.7657 68.878L69.6049 68.4868C65.0422 66.95 60.1356 69.6965 59.227 74.2959L58.9959 75.466C58.476 78.0973 56.1018 80 53.3386 80H49.1647C46.4015 80 44.0273 78.0973 43.5074 75.4663L43.2761 74.2954C42.3674 69.6965 37.4607 66.95 32.8981 68.4868L31.7376 68.8777C29.1272 69.7571 26.2405 68.715 24.8588 66.3948L22.7719 62.8907C21.3903 60.5705 21.9028 57.6259 23.9932 55.8738L24.9231 55.0946C28.5769 52.032 28.5769 46.5393 24.9231 43.4769L23.9932 42.6976C21.9028 40.9455 21.3903 38.0009 22.7719 35.6808L24.8589 32.1764C26.2406 29.8562 29.1271 28.8143 31.7375 29.6934L32.8984 30.0844C37.4608 31.621 42.3674 28.8747 43.2761 24.2757L43.5074 23.1052C44.0273 20.474 46.4012 18.5714 49.1647 18.5714H53.3386ZM51.2516 58.0613C56.0981 58.0613 60.0271 54.1322 60.0271 49.2858C60.0271 44.439 56.0981 40.5102 51.2516 40.5102C46.4049 40.5102 42.4761 44.439 42.4761 49.2858C42.4761 54.1322 46.4049 58.0613 51.2516 58.0613Z" fill="white" fill-opacity="0.75"/>
</g>
<defs>
<linearGradient id="paint0_linear_201_8" x1="50.2426" y1="100.05" x2="50.9003" y2="-0.050018" gradientUnits="userSpaceOnUse">
<stop stop-color="#228B22"/>
<stop offset="1" stop-color="#4BD04B"/>
</linearGradient>
<clipPath id="clip0_201_8">
<rect width="100" height="100" fill="white" transform="translate(0.571411)"/>
</clipPath>
</defs>
</svg>
