<svg width="478" height="350" viewBox="0 0 478 350" fill="none" xmlns="http://www.w3.org/2000/svg">
<g clip-path="url(#clip0_321_4)">
<path fill-rule="evenodd" clip-rule="evenodd" d="M330.252 68.3968C330.203 58.3606 337.995 49.6467 355.436 49.301C372.877 48.9552 384.514 59.8862 382.435 68.3509C379.716 79.3945 360.766 82.5004 361.074 94.1458C361.121 95.9185 349.584 95.758 349.584 93.9854C349.318 82.3808 372.333 76.7739 372.681 68.1347C372.985 60.5618 366.805 56.4554 355.53 56.4554C347.699 56.4554 341.117 60.492 340.54 68.3061C340.441 69.9582 330.26 70.0509 330.252 68.3968Z" fill="#9290EC"/>
<path fill-rule="evenodd" clip-rule="evenodd" d="M355.265 99.6521C359.661 99.6521 363.232 102.016 363.232 104.933C363.232 107.851 359.664 110.214 355.265 110.214C350.867 110.214 347.299 107.85 347.299 104.933C347.299 102.017 350.867 99.6521 355.265 99.6521Z" fill="#9290EC"/>
<path d="M229.315 110.965C231.44 128.152 229.258 144.755 225.797 153.938C222.849 151.538 219.741 149.341 216.494 147.362C218.2 178.901 254.008 204.494 261.605 203.54C270.306 202.462 285.904 174.159 278.435 147.211C273.144 150.096 266.791 153.935 266.791 153.935L268.888 136.781C268.888 136.781 292.218 138.06 300.655 121.378C309.092 104.697 307.533 53.6364 307.533 53.6364L263.41 53.2378L257.534 35.1025L253.34 53.3793C245.104 53.2896 236.896 54.3289 228.942 56.4682L228.825 89.8769C211.501 82.3966 207.018 111.554 229.315 110.965Z" fill="#FFBF9B"/>
<path d="M268.885 136.784C260.454 136.746 252.227 134.188 245.258 129.439C246.52 132.328 249.092 133.495 252.527 137.078C256.52 141.22 261.49 144.289 266.979 146.003L268.885 136.784Z" fill="#F08855"/>
<path d="M4.25221 225.624C9.69344 229.809 24.0623 243.389 24.0623 243.389C26.7959 252.095 33.0895 253.776 39.7596 251.392C44.2986 258.342 47.6586 259.422 58.6416 256.937C60.7458 260.175 63.7572 262.886 70.6046 261.63C75.3945 260.752 95.4556 247.127 95.4556 247.127C95.4556 247.127 97.2859 251.066 100.37 256.737C122.713 257.114 132.442 232.574 127.527 213.504C126.023 211.523 124.568 209.59 123.365 208.01C113.936 195.515 106.414 193.031 97.7371 194.16C88.5346 182.993 75.2691 186.431 71.9589 186.056C66.3673 185.378 57.1648 179.983 48.4632 172.455C39.7616 164.927 32.0131 177.524 38.7041 187.084C42.6416 192.73 53.299 199.153 52.822 203.042C52.3709 206.928 35.4696 219.929 35.4696 219.929C32.2351 213.078 22.8315 209.691 18.869 215.537C7.03556 207.658 -7.28254 216.767 4.25221 225.624Z" fill="#FFBF9B"/>
<path d="M24.1219 244.352C23.9879 244.351 23.8575 244.308 23.7501 244.228C23.6425 244.148 23.5635 244.035 23.5244 243.907C23.2615 243.042 22.9827 242.136 22.6939 241.201C19.8438 231.96 16.2977 220.459 18.1619 215.525C18.2236 215.374 18.3422 215.252 18.4922 215.186C18.6423 215.122 18.8119 215.117 18.965 215.176C19.1181 215.233 19.2424 215.349 19.3116 215.497C19.3807 215.646 19.389 215.815 19.335 215.97C17.6221 220.499 21.246 232.251 23.8919 240.831C24.1807 241.769 24.4605 242.675 24.7234 243.542C24.7475 243.621 24.7558 243.704 24.7479 243.785C24.7399 243.868 24.7158 243.948 24.6771 244.02C24.6384 244.092 24.5856 244.157 24.522 244.209C24.4583 244.262 24.3849 244.3 24.3062 244.324C24.2464 244.342 24.1844 244.352 24.1219 244.352Z" fill="#29263B"/>
<path d="M100.368 256.737C108.467 271.616 125.319 298.488 141.041 297.661C162.732 296.506 180.235 255.81 180.235 255.81L184.147 338.737C223.24 353.867 265.041 354.043 309.727 338.561C308.949 308.904 310.504 280.174 315.344 252.799C315.344 252.799 327.631 290.564 349.899 290.913C366.524 291.164 397.719 253.201 412.915 233.279C408.1 218.851 399.975 207.133 387.764 199.229C375.928 208.513 355.817 223.569 355.817 223.569C355.817 223.569 329.311 143.049 312.184 138.829C301.429 136.17 287.388 142.292 278.432 147.21C285.901 174.158 270.307 202.461 261.602 203.539C254.004 204.493 218.196 178.9 216.491 147.361C210.298 143.521 201.646 139.13 192.519 137.525C187.699 136.591 182.735 136.677 177.949 137.776C157.313 142.844 135.697 224.315 135.697 224.315C135.697 224.315 131.51 218.745 127.522 213.5C132.44 232.574 122.711 257.114 100.368 256.737Z" fill="#FF6B55"/>
<path d="M58.6049 257.542C58.4883 257.542 58.374 257.509 58.2749 257.449C58.1757 257.388 58.0955 257.3 58.0432 257.195C57.6529 256.413 56.1989 254.164 54.3586 251.316C50.9519 246.046 45.8084 238.082 42.2742 231.498C41.1031 229.315 41.9426 226.806 44.4123 225.107C48.2741 222.451 54.7859 222.417 59.2502 227.592C62.4797 231.624 65.4524 235.856 68.1509 240.261C71.4701 239.046 73.6987 233.768 76.0519 228.193C77.4604 224.497 79.2327 220.951 81.3427 217.606C81.3886 217.535 81.448 217.475 81.5177 217.427C81.5873 217.381 81.6657 217.349 81.7482 217.332C81.8306 217.316 81.9155 217.317 81.9976 217.334C82.0799 217.352 82.1577 217.385 82.2267 217.432C82.2957 217.481 82.3543 217.542 82.3991 217.614C82.4439 217.685 82.474 217.764 82.4877 217.847C82.5012 217.93 82.498 218.014 82.4782 218.096C82.4585 218.178 82.4224 218.254 82.3724 218.322C80.3142 221.599 78.584 225.069 77.2071 228.685C74.6298 234.786 72.198 240.566 68.0275 241.61C67.8982 241.643 67.7617 241.634 67.6381 241.583C67.5145 241.533 67.4104 241.445 67.3413 241.33C64.5929 236.844 61.5747 232.529 58.3031 228.409C54.3138 223.787 48.534 223.789 45.1233 226.136C43.6046 227.181 42.3489 228.981 43.3786 230.901C46.8849 237.439 52.0155 245.379 55.4112 250.631C57.3452 253.62 58.7423 255.785 59.1645 256.629C59.2127 256.725 59.2356 256.831 59.2311 256.938C59.2265 257.045 59.1946 257.149 59.1385 257.24C59.0824 257.331 59.0038 257.406 58.9104 257.458C58.817 257.51 58.7117 257.537 58.6049 257.537V257.542Z" fill="#29263B"/>
<path d="M39.7976 252.047C39.6867 252.047 39.5777 252.018 39.482 251.962C39.3862 251.906 39.3072 251.826 39.2529 251.729L38.3875 250.202C35.6201 245.313 31.829 238.618 27.9313 232.472C26.0601 229.523 26.5371 226.533 29.2 224.47C33.0678 221.481 40.4101 221.369 44.4482 225.701C44.5042 225.761 44.5479 225.832 44.5767 225.909C44.6055 225.986 44.6189 226.069 44.6159 226.15C44.613 226.233 44.5939 226.314 44.5597 226.389C44.5255 226.463 44.4769 226.531 44.4168 226.587C44.3565 226.644 44.2858 226.687 44.2088 226.716C44.1316 226.744 44.0496 226.758 43.9674 226.755C43.8851 226.752 43.8043 226.733 43.7294 226.699C43.6545 226.665 43.5871 226.616 43.531 226.556C39.939 222.703 33.4064 222.8 29.9668 225.46C28.715 226.427 26.9235 228.539 28.9888 231.795C32.9065 237.967 36.7056 244.679 39.48 249.581L40.3443 251.106C40.3851 251.178 40.4114 251.257 40.4215 251.338C40.4318 251.42 40.4257 251.503 40.4038 251.583C40.3819 251.662 40.3445 251.737 40.2937 251.802C40.2431 251.867 40.18 251.92 40.1083 251.961C40.0141 252.017 39.907 252.047 39.7976 252.047Z" fill="#29263B"/>
<path d="M89.5185 198.397C89.3903 198.397 89.2653 198.359 89.16 198.286C89.0548 198.212 88.9745 198.109 88.93 197.988C88.8855 197.868 88.8789 197.737 88.9112 197.613C88.9433 197.489 89.0128 197.378 89.1102 197.294C91.5758 195.389 94.4637 194.107 97.5299 193.555C97.6902 193.523 97.8575 193.555 97.994 193.644C98.1314 193.734 98.228 193.874 98.2638 194.033C98.3007 194.193 98.2718 194.36 98.1861 194.499C98.1005 194.639 97.9641 194.74 97.8047 194.779C94.9387 195.288 92.237 196.477 89.9257 198.247C89.8122 198.345 89.6678 198.397 89.5185 198.397Z" fill="#29263B"/>
<path d="M315.297 253.535C315.253 253.535 315.208 253.531 315.165 253.522C315.085 253.505 315.008 253.472 314.94 253.425C314.872 253.378 314.815 253.318 314.77 253.249C314.725 253.181 314.694 253.103 314.679 253.022C314.664 252.941 314.666 252.858 314.683 252.777C314.74 252.511 320.337 226.08 319.364 218.252C318.383 210.388 309.589 185.584 309.5 185.334C309.448 185.178 309.459 185.008 309.531 184.86C309.603 184.712 309.73 184.599 309.884 184.543C310.04 184.488 310.21 184.496 310.359 184.566C310.508 184.635 310.624 184.76 310.682 184.914C311.045 185.939 319.61 210.097 320.607 218.095C321.61 226.132 316.145 251.943 315.912 253.038C315.882 253.179 315.805 253.305 315.693 253.396C315.581 253.487 315.441 253.535 315.297 253.535Z" fill="#29263B"/>
<path d="M180.126 256.624C180.034 256.624 179.941 256.604 179.857 256.563C179.783 256.528 179.716 256.478 179.661 256.417C179.605 256.355 179.563 256.285 179.535 256.207C179.507 256.129 179.495 256.047 179.499 255.964C179.503 255.882 179.524 255.801 179.559 255.727L197.205 218.685C197.239 218.608 197.288 218.539 197.349 218.482C197.41 218.425 197.483 218.38 197.56 218.351C197.639 218.322 197.723 218.309 197.806 218.313C197.89 218.317 197.973 218.337 198.048 218.374C198.124 218.41 198.192 218.461 198.246 218.524C198.302 218.586 198.345 218.659 198.372 218.739C198.399 218.817 198.41 218.901 198.404 218.985C198.398 219.069 198.375 219.15 198.337 219.225L180.691 256.267C180.64 256.373 180.56 256.464 180.46 256.527C180.36 256.591 180.245 256.624 180.126 256.624Z" fill="#29263B"/>
<path d="M95.4586 247.761C95.3232 247.761 95.1917 247.717 95.0832 247.636C94.9757 247.555 94.896 247.44 94.8581 247.311C94.8203 247.18 94.8243 247.042 94.8721 246.915C94.9189 246.788 95.0055 246.68 95.119 246.606L105.558 239.897C105.699 239.808 105.868 239.777 106.03 239.813C106.193 239.847 106.334 239.946 106.425 240.087C106.514 240.226 106.544 240.395 106.509 240.559C106.474 240.721 106.376 240.863 106.236 240.952L95.7992 247.662C95.6976 247.727 95.5791 247.761 95.4586 247.761Z" fill="black"/>
<path d="M227.074 104.33C226.939 104.33 226.81 104.285 226.705 104.201C226.601 104.117 226.528 104 226.498 103.869C225.654 100.109 223.665 97.8146 220.241 96.6468C220.093 96.596 219.972 96.4884 219.903 96.3479C219.834 96.2074 219.823 96.046 219.874 95.8975C219.925 95.749 220.032 95.6274 220.173 95.5587C220.313 95.4899 220.475 95.479 220.623 95.5298C222.425 96.0968 224.037 97.151 225.276 98.5769C226.517 100.004 227.339 101.746 227.65 103.61C227.684 103.762 227.656 103.923 227.573 104.055C227.489 104.188 227.356 104.282 227.203 104.315C227.161 104.325 227.118 104.33 227.074 104.33Z" fill="#29263B"/>
<path d="M192.522 137.534C201.649 139.139 210.301 143.53 216.494 147.37C219.741 149.349 222.849 151.546 225.797 153.946C229.258 144.763 231.44 128.16 229.316 110.973C207.018 111.563 211.501 82.4048 228.818 89.889L228.935 56.4803C236.889 54.341 245.097 53.3007 253.333 53.3914L257.532 35.1176L263.408 53.2529L307.531 53.6514L318.951 53.486C318.951 53.486 319.141 29.144 306.847 16.537C287.428 -3.39183 232.498 -6.29347 214.896 12.5233C199.418 22.9591 196.397 39.5089 195.665 47.607C194.607 59.1139 192.522 137.534 192.522 137.534Z" fill="#2E5DE6"/>
<path d="M283.038 110.582C282.896 110.582 282.76 110.532 282.652 110.439C282.545 110.348 282.474 110.22 282.453 110.08C282.432 109.94 282.462 109.798 282.537 109.678C282.612 109.559 282.728 109.47 282.863 109.428C285.285 108.676 289.221 106.896 289.471 105.323C289.739 103.629 286.473 96.4544 284.352 92.3371C284.313 92.2684 284.289 92.1917 284.282 92.1129C284.273 92.0352 284.281 91.9555 284.303 91.8798C284.326 91.804 284.364 91.7333 284.414 91.6735C284.465 91.6127 284.527 91.5619 284.597 91.526C284.668 91.4902 284.745 91.4682 284.823 91.4623C284.902 91.4563 284.981 91.4662 285.056 91.4911C285.131 91.5171 285.2 91.5569 285.258 91.6097C285.318 91.6615 285.366 91.7253 285.4 91.7971C285.98 92.922 291.053 102.87 290.636 105.508C290.19 108.314 283.925 110.335 283.212 110.556C283.155 110.573 283.096 110.582 283.038 110.582Z" fill="#29263B"/>
<path d="M258.903 123.442C258.78 123.442 258.661 123.404 258.56 123.334C258.46 123.263 258.385 123.162 258.345 123.047C258.304 122.931 258.301 122.805 258.335 122.688C258.369 122.57 258.44 122.466 258.535 122.39C260.264 120.946 262.329 119.963 264.539 119.532C266.75 119.102 269.033 119.238 271.176 119.929C271.322 119.975 271.444 120.076 271.517 120.211C271.59 120.345 271.607 120.503 271.567 120.65C271.526 120.798 271.429 120.923 271.298 121.001C271.165 121.079 271.009 121.102 270.861 121.067C268.896 120.431 266.803 120.304 264.775 120.697C262.749 121.091 260.854 121.991 259.269 123.315C259.165 123.397 259.036 123.442 258.903 123.442Z" fill="#29263B"/>
<path d="M247.441 68.9109C247.191 68.9109 246.946 68.8441 246.731 68.7186C246.515 68.593 246.335 68.4117 246.212 68.1954C246.088 67.9782 246.025 67.7321 246.027 67.482C246.029 67.2329 246.096 66.9877 246.223 66.7725C249.234 61.6767 253.651 59.7974 259.35 61.1994C259.532 61.2413 259.705 61.32 259.858 61.4296C260.009 61.5392 260.139 61.6777 260.237 61.8371C260.335 61.9976 260.401 62.1749 260.429 62.3603C260.458 62.5456 260.45 62.7349 260.406 62.9173C260.362 63.0996 260.281 63.271 260.169 63.4215C260.058 63.5729 259.918 63.7005 259.757 63.7961C259.596 63.8928 259.418 63.9556 259.232 63.9825C259.046 64.0094 258.857 63.9984 258.676 63.9516C254.209 62.8555 251.027 64.2107 248.661 68.2144C248.535 68.4266 248.357 68.603 248.143 68.7245C247.929 68.8471 247.687 68.9109 247.441 68.9109Z" fill="#29263B"/>
<path d="M302.401 66.2494C302.154 66.2494 301.912 66.1846 301.698 66.063C301.485 65.9405 301.306 65.7641 301.181 65.5519C299.6 62.8794 297.52 62.155 294.444 63.2053C294.268 63.265 294.082 63.2899 293.896 63.278C293.711 63.266 293.53 63.2172 293.363 63.1355C293.196 63.0538 293.047 62.9392 292.924 62.7997C292.802 62.6602 292.707 62.4978 292.648 62.3214C292.588 62.145 292.563 61.9587 292.575 61.7734C292.587 61.588 292.635 61.4067 292.717 61.2393C292.799 61.0729 292.913 60.9234 293.053 60.8008C293.192 60.6783 293.355 60.5836 293.531 60.5238C297.87 59.0481 301.355 60.2857 303.618 64.111C303.745 64.3262 303.813 64.5714 303.816 64.8205C303.818 65.0706 303.754 65.3167 303.631 65.5339C303.506 65.7512 303.328 65.9315 303.112 66.0571C302.896 66.1836 302.651 66.2494 302.401 66.2494Z" fill="#29263B"/>
<path fill-rule="evenodd" clip-rule="evenodd" d="M259.19 73.4337C257.172 73.4337 255.533 76.435 255.533 80.1298C255.533 83.8246 257.172 86.8269 259.19 86.8269C261.207 86.8269 262.846 83.8266 262.846 80.1298C262.846 76.433 261.21 73.4337 259.19 73.4337Z" fill="#29263B"/>
<path fill-rule="evenodd" clip-rule="evenodd" d="M294.824 72.3456C292.964 72.3456 291.455 75.1097 291.455 78.5165C291.455 81.9234 292.964 84.6885 294.824 84.6885C296.685 84.6885 298.193 81.9214 298.193 78.5165C298.193 75.1117 296.684 72.3456 294.824 72.3456Z" fill="#29263B"/>
<path d="M445.989 212.075C447.847 214.311 449.959 216.323 452.283 218.071C455.593 220.605 463.116 211.723 469.786 211.295C471.011 211.226 472.236 211.431 473.371 211.898C476.16 208.837 476.38 202.188 469.66 201.385V201.36C469.361 201.335 469.062 201.309 468.732 201.309C460.332 201.007 450.854 210.374 445.989 212.075Z" fill="#FFBF9B"/>
<path d="M460.683 193.908C461.361 184.349 437.238 192.679 434.279 193.51C436.723 196.297 438.75 199.424 440.297 202.794C443.833 201.414 449.324 198.252 457.273 194.94C458.366 194.472 459.511 194.135 460.683 193.932V193.908Z" fill="#FFBF9B"/>
<path d="M396.113 192.252C393.457 194.727 390.669 197.055 387.763 199.227C399.974 207.131 408.099 218.849 412.914 233.277C418.331 226.202 421.716 221.408 421.716 221.408C421.716 221.408 446.866 239.424 449.575 239.474C452.308 239.525 465.674 230.416 473.923 224.696C480.595 220.053 478.112 213.881 473.371 211.899C472.236 211.432 471.011 211.226 469.786 211.296C463.114 211.723 455.593 220.605 452.283 218.072C449.959 216.324 447.847 214.313 445.989 212.076C443.73 209.218 441.819 206.102 440.297 202.792C438.75 199.422 436.723 196.295 434.279 193.508C432.062 191.193 429.499 189.237 426.681 187.712C423.446 181.188 421.465 176.773 418.681 174.112C416.174 171.704 419.735 165.808 416.375 156.95C412.989 148.093 401.053 148.043 402.658 157.05C404.263 166.083 398.119 189.618 396.113 192.252Z" fill="#FFBF9B"/>
<path d="M469.661 201.361C470.538 196.292 466.727 192.804 460.683 193.933C459.511 194.134 458.367 194.47 457.273 194.937C449.324 198.249 443.829 201.414 440.297 202.791C441.819 206.1 443.73 209.217 445.989 212.075C450.854 210.369 460.329 201.009 468.733 201.313C469.058 201.306 469.36 201.336 469.661 201.361Z" fill="#FFBF9B"/>
<path d="M416.392 188.545C416.24 188.545 416.094 188.49 415.98 188.391C415.865 188.291 415.79 188.154 415.769 188.004C415.749 187.854 415.782 187.702 415.865 187.574C415.948 187.447 416.074 187.355 416.22 187.313C420.657 186.045 423.529 186.004 426.817 187.167C426.974 187.223 427.102 187.339 427.174 187.488C427.245 187.639 427.254 187.811 427.199 187.968C427.143 188.124 427.027 188.253 426.878 188.324C426.728 188.396 426.555 188.405 426.399 188.349C423.849 187.452 421.314 187.162 416.564 188.52C416.508 188.536 416.45 188.545 416.392 188.545Z" fill="#29263B"/>
<path d="M440.297 203.418C440.15 203.417 440.01 203.367 439.897 203.273C439.786 203.18 439.709 203.051 439.682 202.907C439.655 202.764 439.679 202.615 439.75 202.488C439.82 202.359 439.933 202.261 440.069 202.207C441.588 201.609 443.455 200.697 445.813 199.537C448.808 198.064 452.537 196.231 457.032 194.356C458.17 193.87 459.362 193.52 460.583 193.313C460.743 193.294 460.906 193.337 461.035 193.434C461.164 193.532 461.251 193.676 461.277 193.836C461.303 193.996 461.266 194.161 461.173 194.293C461.081 194.427 460.94 194.519 460.782 194.551C459.658 194.742 458.56 195.065 457.513 195.514C453.052 197.373 449.347 199.196 446.359 200.66C443.969 201.834 442.087 202.761 440.519 203.374C440.448 203.402 440.372 203.417 440.297 203.418Z" fill="#29263B"/>
<path d="M445.989 212.702C445.84 212.702 445.698 212.65 445.586 212.554C445.472 212.458 445.397 212.326 445.372 212.18C445.348 212.034 445.374 211.884 445.45 211.757C445.525 211.629 445.642 211.532 445.782 211.483C447.956 210.496 450.02 209.284 451.94 207.865C456.864 204.576 463.016 200.45 468.755 200.683C469.069 200.67 469.385 200.687 469.697 200.734C469.863 200.748 470.017 200.827 470.127 200.953C470.235 201.08 470.29 201.245 470.278 201.412C470.272 201.493 470.25 201.573 470.213 201.647C470.177 201.72 470.126 201.785 470.063 201.838C470.001 201.892 469.929 201.933 469.851 201.958C469.773 201.983 469.691 201.993 469.609 201.986C469.31 201.962 469.035 201.938 468.733 201.938C463.363 201.764 457.411 205.717 452.637 208.913C450.632 210.396 448.472 211.656 446.196 212.671C446.129 212.693 446.059 212.703 445.989 212.702Z" fill="#29263B"/>
<path d="M453.702 219.158C453.054 219.17 452.423 218.963 451.909 218.569C449.546 216.794 447.399 214.747 445.511 212.472C443.223 209.578 441.287 206.423 439.743 203.072C438.223 199.756 436.23 196.678 433.827 193.934C433.713 193.813 433.654 193.651 433.66 193.485C433.665 193.319 433.736 193.161 433.858 193.048C433.98 192.935 434.142 192.874 434.308 192.88C434.474 192.886 434.631 192.958 434.744 193.079C437.212 195.881 439.258 199.029 440.819 202.422C442.333 205.719 444.233 208.825 446.478 211.675C448.305 213.875 450.384 215.855 452.67 217.573C454.064 218.639 456.914 216.852 459.931 214.96C462.977 213.049 466.429 210.883 469.752 210.671C471.072 210.595 472.392 210.816 473.615 211.318C473.769 211.381 473.892 211.503 473.956 211.656C474.021 211.809 474.021 211.982 473.958 212.136C473.895 212.29 473.774 212.412 473.62 212.477C473.467 212.542 473.294 212.542 473.14 212.479C472.092 212.049 470.961 211.858 469.829 211.923C466.826 212.115 463.517 214.191 460.597 216.022C457.959 217.675 455.594 219.158 453.702 219.158Z" fill="#29263B"/>
<path d="M145.292 237.809C145.196 237.808 145.1 237.785 145.013 237.741C144.927 237.697 144.852 237.634 144.794 237.557L135.206 224.695C135.115 224.561 135.078 224.397 135.105 224.237C135.131 224.077 135.218 223.933 135.349 223.837C135.478 223.739 135.641 223.696 135.802 223.716C135.962 223.737 136.109 223.819 136.211 223.944L145.798 236.806C145.867 236.899 145.91 237.01 145.92 237.125C145.929 237.241 145.908 237.356 145.857 237.46C145.805 237.565 145.725 237.651 145.628 237.713C145.529 237.775 145.416 237.808 145.3 237.809H145.292Z" fill="#29263B"/>
<path d="M354.195 231.669C354.101 231.669 354.009 231.647 353.925 231.607C353.84 231.566 353.766 231.507 353.707 231.434C353.648 231.362 353.606 231.276 353.584 231.185C353.564 231.094 353.562 230.999 353.582 230.907L355.203 223.434C355.241 223.274 355.339 223.134 355.479 223.046C355.618 222.959 355.786 222.929 355.947 222.964C356.108 223 356.248 223.096 356.339 223.234C356.429 223.372 356.461 223.54 356.429 223.701L354.807 231.174C354.776 231.314 354.7 231.439 354.588 231.529C354.477 231.619 354.338 231.669 354.195 231.669Z" fill="#29263B"/>
</g>
<defs>
<clipPath id="clip0_321_4">
<rect width="478" height="350" fill="white"/>
</clipPath>
</defs>
</svg>
