<svg width="239" height="350" viewBox="0 0 239 350" fill="none" xmlns="http://www.w3.org/2000/svg">
<path fill-rule="evenodd" clip-rule="evenodd" d="M172.994 58.3815C171.031 28.4318 153.214 12.0113 145.544 27.5851C127.386 0.436568 109.142 3.81431 106.795 16.713C78.6185 6.91634 63.9385 13.1561 70.4062 31.0188C41.2666 36.8331 34.9962 48.6528 44.2214 62.1882C24.4175 79.5521 26.7532 90.4935 36.1294 97.5961C24.4308 113.146 31.7358 116.014 35.5985 118.981C28.4796 130.332 29.3945 137.687 38.6113 140.264C36.5827 156.683 42.5628 162.166 54.2356 160.159C58.1431 168.976 64.6017 173.6 81.2025 166.047C83.9306 181.49 93.6097 182.307 107.581 174.081C117.411 183.939 125.687 186.658 131.173 176.571C144.295 181.324 149.548 181.303 148.808 169.257C158.082 175.591 165.068 176.103 165.378 161.579C177.347 165.42 185.124 154.854 177.182 131.102C193.74 129.537 195.229 116.631 184.73 92.4556C197.617 84.3384 189.943 66.9935 172.994 58.3829V58.3815Z" fill="#29263B"/>
<path fill-rule="evenodd" clip-rule="evenodd" d="M151.123 120.947C173.228 121.367 163.504 152.552 141.56 138.183L151.123 120.947Z" fill="#915839"/>
<path fill-rule="evenodd" clip-rule="evenodd" d="M70.2377 104.468C50.4303 94.6354 44.6719 126.79 70.7679 124.173L70.2377 104.468Z" fill="#915839"/>
<path fill-rule="evenodd" clip-rule="evenodd" d="M87.6939 187.933C121.596 190.16 148.165 170.979 161.971 181.175C183.03 196.73 168.004 235.477 147.141 266.46C131.566 289.586 128.492 322.462 127.567 334.897C96.5189 348.166 63.3823 344.399 32.8647 327.336C37.1178 289.836 21.839 275.325 25.9074 248.918C20.5813 251.254 5.43887 258.97 0.165252 253.975C0.165252 253.975 -0.263546 183.684 25.147 174.78C41.5674 169.026 53.4073 185.684 87.6953 187.935L87.6939 187.933Z" fill="#C186EA"/>
<path fill-rule="evenodd" clip-rule="evenodd" d="M161.018 104.925C161.018 104.925 147.115 138.754 133.343 150.382C122.321 159.689 113.946 162.628 107.811 166.135C101.073 169.983 101.248 183.18 103.002 185.048C105.306 187.504 114.898 186.813 122.26 184.754C112.074 206.36 98.826 223.385 81.6642 234.547C71.8011 223.896 65.0753 206.966 58.0767 182.942C58.0767 182.942 69.9642 184.531 74.9349 180.867C79.6412 177.396 82.0245 167.601 79.2635 157.631C76.5025 147.661 72.0753 145.075 69.6102 132.057C67.3018 119.853 68.1336 71.7069 68.1336 71.7069C70.5203 78.058 77.891 76.8908 94.5975 61.6416C91.158 71.7181 98.5553 72.2535 116.296 63.687C116.779 73.3101 122.714 74.4178 135.463 64.8731C138.552 84.3607 143.063 92.755 149.939 82.7037C150.726 95.6807 153.545 104.766 161.023 104.925H161.018Z" fill="#915839"/>
<path fill-rule="evenodd" clip-rule="evenodd" d="M79.2578 157.631C80.6484 162.494 80.7953 167.629 79.6859 172.563C88.8656 167.665 96.2385 169.996 102 178.78C102.201 174.19 103.739 168.461 107.806 166.135C95.1738 171.031 85.8178 167.797 79.2578 157.631Z" fill="#7B3711"/>
<path fill-rule="evenodd" clip-rule="evenodd" d="M138.467 191.204C140.066 184.976 143.179 161.245 147.314 151.538C151.45 141.83 139.726 139.677 135.24 151.066C130.875 162.146 130.273 174.461 130.273 174.461C130.273 174.461 123.151 164.845 118.041 164.674C112.931 164.503 108.782 170.552 108.782 170.552C99.6996 169.034 96.0139 172.586 96.9037 180.439C87.4148 181.727 84.7748 203.442 96.5224 204.152C91.486 210.162 90.6892 214.934 95.4592 218.485L87.2091 255.275C68.8001 263.062 47.9483 268.065 34.2176 267.959C26.5048 263.562 25.6136 256.444 26.1375 248.412C18.7926 247.515 8.44477 247.509 0.945994 253.681C0.945994 253.681 -2.14445 290.093 11.2169 301.082C24.5783 312.071 85.2526 281.542 85.2526 281.542C85.2526 281.542 88.236 305.188 98.8357 307.096C119.424 310.804 147.294 265.983 147.294 265.983C145.465 263.243 142.979 261.006 140.063 259.476C140.063 259.476 140.583 240.01 135.166 236.193C129.749 232.377 114.524 237.376 114.524 237.376C114.524 237.376 115.885 223.325 116.662 220.153C117.439 216.981 137.288 195.794 138.468 191.199L138.467 191.204Z" fill="#915839"/>
<path d="M96.7204 180.958C96.5532 180.957 96.3916 180.897 96.2636 180.789C96.1356 180.681 96.0495 180.532 96.0209 180.367C95.4522 177.129 96.279 174.125 98.2894 172.128C99.9144 170.513 103.073 168.81 108.9 169.879C114.985 170.992 120.326 175.485 122.969 178.066C123.1 178.199 123.173 178.379 123.174 178.566C123.174 178.753 123.101 178.933 122.971 179.066C122.84 179.2 122.662 179.278 122.476 179.282C122.289 179.286 122.108 179.217 121.971 179.089C119.445 176.623 114.355 172.332 108.643 171.286C104.512 170.529 101.28 171.172 99.2953 173.144C97.6214 174.807 96.9407 177.351 97.4276 180.122C97.4605 180.308 97.4178 180.5 97.3087 180.655C97.2002 180.81 97.0345 180.916 96.8477 180.949C96.8057 180.956 96.7631 180.958 96.7204 180.958Z" fill="#29263B"/>
<path d="M96.1517 204.782C96.0727 204.782 95.9944 204.769 95.9195 204.743C92.3289 203.509 89.8715 201.56 88.6159 198.948C86.5174 194.582 88.3221 189.53 89.1895 187.102L89.2308 186.987C91.0649 181.85 95.0493 180.098 96.4302 179.855C100.508 179.148 104.91 180.916 110.285 185.428C110.43 185.55 110.521 185.724 110.538 185.913C110.555 186.102 110.495 186.29 110.374 186.435C110.252 186.58 110.078 186.671 109.889 186.688C109.701 186.704 109.512 186.645 109.368 186.523C104.409 182.359 100.256 180.635 96.6757 181.263C95.6005 181.452 92.1722 182.995 90.5759 187.467L90.534 187.583C89.7316 189.828 88.0619 194.501 89.9044 198.329C90.9886 200.583 93.169 202.287 96.3854 203.393C96.5449 203.447 96.6806 203.557 96.7673 203.703C96.8534 203.847 96.8855 204.019 96.8583 204.185C96.8303 204.352 96.7442 204.503 96.6155 204.613C96.4861 204.722 96.3224 204.782 96.1538 204.782H96.1517Z" fill="#29263B"/>
<path d="M94.1617 224.756C94.0539 224.757 93.9469 224.732 93.8497 224.686C93.7525 224.639 93.6671 224.571 93.6007 224.486C93.5335 224.401 93.4866 224.303 93.4636 224.197C93.4398 224.091 93.4412 223.982 93.4664 223.877C93.4726 223.85 94.091 221.241 94.5996 218.531C89.0314 212.636 94.2708 205.866 96.0105 203.619C96.9933 202.349 98.1048 201.078 99.1793 199.849C100.266 198.604 101.385 197.324 102.376 196.04L101.805 195.752C98.3811 194.028 95.1466 192.4 94.6919 189.348C94.6702 189.164 94.7206 188.978 94.8332 188.83C94.9465 188.682 95.1123 188.584 95.2963 188.557C95.4802 188.53 95.667 188.575 95.8181 188.684C95.9692 188.792 96.072 188.955 96.1042 189.138C96.4498 191.457 99.2289 192.857 102.447 194.476C102.888 194.698 103.336 194.924 103.785 195.156C103.876 195.203 103.957 195.27 104.021 195.351C104.084 195.432 104.129 195.526 104.153 195.627C104.177 195.727 104.178 195.832 104.158 195.932C104.137 196.034 104.095 196.129 104.034 196.212C102.892 197.772 101.551 199.306 100.257 200.79C99.1961 202.003 98.0992 203.258 97.1423 204.494C94.4079 208.027 91.3021 213.249 95.8748 217.789C95.9573 217.871 96.0182 217.972 96.0531 218.083C96.0874 218.194 96.0951 218.311 96.0741 218.426C95.5474 221.299 94.8654 224.178 94.8584 224.207C94.8213 224.364 94.7325 224.504 94.6059 224.603C94.4792 224.703 94.3226 224.757 94.1617 224.756Z" fill="#29263B"/>
<path d="M117.208 281.694C117.043 281.694 116.882 281.636 116.754 281.531C116.627 281.425 116.54 281.278 116.509 281.115C113.733 266.669 112.837 251.924 113.844 237.248C113.858 237.059 113.947 236.884 114.09 236.761C114.233 236.637 114.42 236.575 114.608 236.589C114.797 236.604 114.973 236.692 115.097 236.836C115.22 236.979 115.281 237.166 115.267 237.355C114.27 251.905 115.157 266.523 117.908 280.845C117.926 280.937 117.925 281.032 117.907 281.123C117.888 281.216 117.851 281.303 117.798 281.381C117.746 281.458 117.678 281.525 117.599 281.576C117.521 281.628 117.434 281.664 117.341 281.681C117.297 281.689 117.253 281.694 117.208 281.694Z" fill="#29263B"/>
<path d="M123.529 277.805C120.622 277.805 116.888 273.506 114.739 269.254C114.655 269.085 114.641 268.89 114.7 268.71C114.759 268.53 114.887 268.382 115.056 268.296C115.225 268.211 115.42 268.196 115.6 268.255C115.78 268.314 115.929 268.442 116.014 268.61C118.472 273.476 122.052 276.614 123.721 276.362C124.334 276.276 124.751 275.663 124.96 274.543C124.982 274.423 125.035 274.311 125.112 274.218C125.189 274.124 125.29 274.052 125.403 274.008C125.517 273.964 125.639 273.95 125.759 273.966C125.88 273.983 125.994 274.03 126.091 274.103C126.461 274.427 126.913 274.643 127.398 274.726C127.882 274.809 128.38 274.756 128.836 274.573C129.39 274.274 129.854 273.831 130.179 273.292C130.505 272.754 130.682 272.139 130.69 271.509C130.706 271.331 130.787 271.165 130.919 271.045C131.05 270.924 131.222 270.857 131.401 270.857H131.416C132.587 270.881 133.893 270.794 134.731 269.962C135.547 269.153 135.946 267.622 135.916 265.414C135.915 265.319 135.933 265.224 135.969 265.136C136.005 265.048 136.058 264.967 136.126 264.9C136.262 264.765 136.447 264.69 136.639 264.69C137.968 264.718 139.175 264.316 139.349 259.464C139.361 259.276 139.444 259.101 139.582 258.973C139.719 258.845 139.901 258.775 140.088 258.776C140.182 258.779 140.274 258.801 140.359 258.84C140.445 258.879 140.522 258.935 140.585 259.003C140.649 259.072 140.699 259.152 140.732 259.241C140.765 259.328 140.78 259.422 140.776 259.516C140.661 262.711 140.147 265.682 137.342 266.074C137.284 268.358 136.757 269.967 135.739 270.978C134.72 271.885 133.386 272.356 132.023 272.288C131.914 273.053 131.62 273.78 131.166 274.406C130.712 275.032 130.112 275.538 129.418 275.879C128.893 276.108 128.323 276.217 127.75 276.2C127.177 276.182 126.615 276.039 126.105 275.779C125.973 276.287 125.698 276.746 125.31 277.101C124.923 277.455 124.441 277.689 123.924 277.775C123.793 277.794 123.661 277.804 123.529 277.805Z" fill="#29263B"/>
<path d="M136.611 266.133C136.43 266.133 136.256 266.063 136.123 265.94C135.991 265.816 135.911 265.647 135.899 265.466C135.511 258.761 134.221 252.139 132.065 245.779C132.002 245.601 132.013 245.404 132.095 245.233C132.177 245.063 132.324 244.932 132.502 244.87C132.681 244.807 132.877 244.818 133.048 244.9C133.218 244.982 133.349 245.129 133.412 245.307C135.611 251.788 136.927 258.537 137.324 265.37C137.33 265.464 137.318 265.558 137.288 265.647C137.258 265.736 137.211 265.818 137.149 265.888C137.087 265.959 137.012 266.017 136.928 266.059C136.844 266.1 136.753 266.125 136.659 266.131L136.611 266.133Z" fill="#29263B"/>
<path d="M131.39 272.393C131.206 272.393 131.029 272.321 130.896 272.194C130.763 272.066 130.685 271.892 130.677 271.707C130.324 265.075 128.789 258.56 126.143 252.469C126.104 252.382 126.082 252.288 126.08 252.194C126.077 252.099 126.094 252.004 126.128 251.916C126.162 251.827 126.214 251.745 126.28 251.678C126.346 251.609 126.426 251.554 126.513 251.517C126.601 251.48 126.695 251.461 126.79 251.46C126.885 251.46 126.979 251.478 127.067 251.515C127.155 251.552 127.234 251.605 127.301 251.673C127.367 251.741 127.421 251.821 127.456 251.909C130.17 258.16 131.744 264.847 132.104 271.653C132.107 271.747 132.093 271.84 132.06 271.928C132.028 272.016 131.979 272.097 131.915 272.166C131.851 272.234 131.775 272.29 131.69 272.33C131.604 272.369 131.513 272.391 131.419 272.395L131.39 272.393Z" fill="#29263B"/>
<path d="M125.678 275.681C125.521 275.681 125.368 275.628 125.244 275.533C125.119 275.437 125.029 275.303 124.989 275.151C123.46 269.248 121.224 263.552 118.328 258.187C118.238 258.02 118.217 257.826 118.271 257.644C118.324 257.463 118.447 257.31 118.613 257.22C118.779 257.129 118.974 257.108 119.155 257.161C119.337 257.213 119.49 257.336 119.581 257.502C122.53 262.967 124.809 268.77 126.367 274.782C126.416 274.965 126.39 275.16 126.295 275.324C126.2 275.488 126.044 275.608 125.861 275.657C125.801 275.672 125.74 275.681 125.678 275.681Z" fill="#29263B"/>
<path d="M85.1974 282.127C85.0176 282.127 84.8442 282.058 84.712 281.936C84.5804 281.813 84.4993 281.645 84.486 281.466C84.0579 275.753 83.953 268.192 86.4195 255.417C86.4314 255.32 86.4628 255.226 86.5125 255.141C86.5629 255.057 86.6293 254.984 86.7084 254.926C86.7874 254.868 86.8776 254.828 86.9735 254.806C87.0686 254.785 87.1679 254.784 87.2638 254.803C87.3603 254.821 87.4512 254.859 87.5324 254.915C87.6128 254.97 87.6814 255.041 87.7338 255.125C87.7856 255.208 87.8199 255.3 87.8346 255.397C87.8493 255.494 87.8437 255.593 87.8185 255.688C85.3842 268.298 85.4863 275.741 85.9074 281.359C85.9144 281.453 85.9032 281.547 85.8738 281.636C85.8445 281.725 85.7976 281.808 85.7367 281.878C85.6752 281.95 85.601 282.008 85.5171 282.051C85.4332 282.093 85.3422 282.118 85.2485 282.125C85.2338 282.126 85.2156 282.127 85.1974 282.127Z" fill="#29263B"/>
<path d="M26.0599 249.279C26.0277 249.279 25.9956 249.277 25.9634 249.273C25.7759 249.247 25.6059 249.148 25.4912 248.997C25.3765 248.847 25.3261 248.657 25.3513 248.469C27.1596 235.089 30.1514 226.372 34.7087 215.837C34.7877 215.669 34.929 215.538 35.1025 215.473C35.276 215.407 35.4684 215.412 35.639 215.485C35.809 215.559 35.944 215.696 36.0154 215.868C36.086 216.039 36.0874 216.232 36.0189 216.405C31.5112 226.825 28.5523 235.444 26.7671 248.664C26.7433 248.834 26.658 248.99 26.5286 249.103C26.3985 249.216 26.232 249.279 26.0599 249.279Z" fill="#29263B"/>
<path d="M103.362 117.146C103.283 117.146 103.204 117.133 103.129 117.107C102.779 116.986 94.5863 114.084 95.3054 109.009C95.9728 104.296 105.238 94.0742 105.633 93.6403C105.762 93.5053 105.938 93.4255 106.125 93.4192C106.312 93.4122 106.493 93.4794 106.631 93.6053C106.769 93.7306 106.852 93.9055 106.863 94.0924C106.874 94.2785 106.811 94.4618 106.689 94.6025C104.086 97.461 97.2221 105.659 96.7191 109.21C96.1644 113.124 103.523 115.732 103.597 115.758C103.756 115.813 103.891 115.923 103.977 116.068C104.063 116.213 104.095 116.385 104.067 116.551C104.039 116.718 103.953 116.869 103.823 116.978C103.695 117.086 103.531 117.146 103.362 117.146Z" fill="#29263B"/>
<path d="M107.192 141.572C107.023 141.572 106.859 141.512 106.73 141.402C106.601 141.292 106.516 141.14 106.488 140.973C105.793 136.704 103.97 133.516 101.361 132.001C100.414 131.466 99.3589 131.154 98.274 131.089C97.189 131.025 96.1034 131.209 95.1003 131.628C95.0122 131.663 94.9177 131.68 94.8226 131.678C94.7282 131.676 94.6344 131.655 94.5477 131.617C94.4609 131.578 94.3833 131.523 94.3182 131.454C94.2532 131.385 94.2021 131.304 94.1692 131.215C94.1357 131.126 94.1203 131.031 94.1238 130.936C94.128 130.841 94.1504 130.748 94.1902 130.662C94.2308 130.576 94.2875 130.499 94.3574 130.435C94.4281 130.371 94.5099 130.322 94.5994 130.29C95.7998 129.794 97.0974 129.579 98.3936 129.661C99.6898 129.744 100.95 130.122 102.078 130.765C105.066 132.499 107.133 136.042 107.898 140.743C107.915 140.845 107.91 140.95 107.882 141.05C107.855 141.151 107.806 141.244 107.738 141.323C107.671 141.402 107.587 141.465 107.493 141.508C107.398 141.551 107.296 141.572 107.192 141.572Z" fill="#29263B"/>
<path d="M79.4697 82.1839C79.1815 82.1832 78.8982 82.1104 78.6464 81.9718C78.3939 81.8333 78.1805 81.6331 78.0259 81.3896C77.8713 81.1468 77.7804 80.869 77.7615 80.5814C77.7419 80.2938 77.7958 80.0062 77.9175 79.7452C80.0958 75.0701 82.8057 72.1801 85.9717 71.1549C88.613 70.2984 91.5118 70.7351 94.5869 72.4453C94.7834 72.5552 94.9569 72.7021 95.0968 72.8785C95.236 73.0548 95.3402 73.257 95.4018 73.474C95.4634 73.6902 95.4815 73.9169 95.4557 74.1408C95.4298 74.3647 95.3605 74.581 95.2507 74.7776C95.1409 74.9742 94.994 75.1478 94.8177 75.2877C94.6414 75.427 94.4393 75.5312 94.2224 75.5928C94.0063 75.6544 93.7796 75.6726 93.5558 75.6467C93.3319 75.6208 93.1158 75.5515 92.9192 75.4417C90.6808 74.1926 88.7501 73.8581 87.0279 74.4158C84.8042 75.1366 82.784 77.4171 81.024 81.1937C80.8862 81.4897 80.6666 81.7402 80.391 81.9159C80.1161 82.0908 79.7964 82.1839 79.4697 82.1839Z" fill="#29263B"/>
<path d="M144.622 100.725C144.555 100.725 144.488 100.721 144.421 100.713C136.622 99.799 130.85 94.3702 129.714 86.8828C129.654 86.437 129.772 85.9857 130.041 85.626C130.311 85.2663 130.711 85.027 131.155 84.9599C131.6 84.892 132.053 85.0025 132.417 85.2656C132.781 85.5295 133.027 85.9255 133.102 86.3692C134.191 93.5494 139.869 96.7256 144.82 97.3085C145.254 97.3582 145.653 97.573 145.935 97.9075C146.216 98.2427 146.36 98.673 146.335 99.1097C146.309 99.547 146.118 99.9578 145.8 100.258C145.481 100.558 145.06 100.725 144.622 100.725Z" fill="#29263B"/>
<path fill-rule="evenodd" clip-rule="evenodd" d="M88.1228 84.591C86.3517 84.3419 84.4924 87.1549 83.9705 90.8699C83.4487 94.5849 84.4602 97.8024 86.2327 98.0508C88.0053 98.2993 89.8625 95.4862 90.385 91.7719C90.9076 88.0576 89.8919 84.8394 88.1228 84.591Z" fill="#29263B"/>
<path fill-rule="evenodd" clip-rule="evenodd" d="M134.871 94.881C133.154 94.3772 130.908 96.8921 129.853 100.493C128.798 104.094 129.336 107.421 131.05 107.926C132.765 108.431 135.014 105.914 136.069 102.314C137.124 98.7136 136.586 95.3827 134.871 94.881Z" fill="#29263B"/>
<path d="M24.9945 271.711C24.8399 271.711 24.6895 271.661 24.5664 271.567C24.4426 271.475 24.3524 271.344 24.309 271.196C24.2663 271.048 24.2719 270.889 24.3265 270.745C24.381 270.6 24.4811 270.477 24.6112 270.394C27.2868 268.681 30.3129 267.592 33.4656 267.207C33.56 267.193 33.6566 267.197 33.7489 267.221C33.8419 267.244 33.9287 267.286 34.0049 267.344C34.0812 267.402 34.1448 267.475 34.1924 267.557C34.24 267.64 34.2708 267.732 34.2819 267.827C34.2938 267.922 34.2861 268.018 34.2596 268.11C34.2337 268.202 34.1889 268.288 34.1294 268.362C34.0693 268.436 33.9951 268.498 33.9105 268.543C33.8266 268.589 33.7342 268.616 33.6391 268.625C30.6969 268.985 27.8737 270.001 25.3771 271.6C25.2631 271.672 25.1302 271.711 24.9945 271.711Z" fill="#29263B"/>
<path d="M66.6968 119.627C66.5324 119.627 66.3729 119.57 66.2456 119.467C66.1183 119.363 66.0308 119.219 65.9972 119.058C65.013 114.292 62.4066 111.266 58.0284 109.808C57.8486 109.748 57.7003 109.619 57.615 109.45C57.5304 109.281 57.5164 109.084 57.5765 108.904C57.6367 108.724 57.7654 108.576 57.9347 108.491C58.104 108.406 58.3005 108.392 58.4803 108.452C63.3832 110.086 66.2994 113.461 67.3956 118.769C67.4333 118.955 67.3963 119.148 67.2927 119.306C67.1885 119.464 67.0262 119.575 66.8409 119.613C66.7933 119.622 66.745 119.627 66.6968 119.627Z" fill="#29263B"/>
<path d="M145.903 135.245C145.758 135.245 145.618 135.202 145.498 135.12C145.379 135.038 145.288 134.922 145.236 134.788C145.184 134.653 145.174 134.505 145.209 134.364C145.242 134.224 145.318 134.097 145.425 134C149.892 129.985 154.445 128.924 159.342 130.76C159.519 130.826 159.663 130.961 159.741 131.133C159.819 131.306 159.826 131.502 159.759 131.68C159.693 131.857 159.558 132 159.386 132.08C159.214 132.158 159.017 132.164 158.84 132.098C154.429 130.443 150.469 131.387 146.38 135.063C146.249 135.18 146.079 135.245 145.903 135.245Z" fill="#29263B"/>
<path fill-rule="evenodd" clip-rule="evenodd" d="M191.388 53.6406C191.344 44.5815 198.379 36.7169 214.122 36.4041C229.865 36.0913 240.381 45.9586 238.497 53.6014C236.042 63.5688 218.934 66.3678 219.213 76.8831C219.255 78.4828 208.839 78.3386 208.839 76.7382C208.599 66.2642 229.377 61.2036 229.691 53.4055C229.966 46.5695 224.384 42.8636 214.208 42.8636C207.137 42.8636 201.197 46.5072 200.674 53.5608C200.585 55.052 191.393 55.1353 191.385 53.6427L191.388 53.6406Z" fill="#9290EC"/>
<path fill-rule="evenodd" clip-rule="evenodd" d="M213.97 81.85C217.938 81.85 221.159 83.9843 221.159 86.6147C221.159 89.2451 217.938 91.378 213.97 91.378C210.001 91.378 206.781 89.2437 206.781 86.6147C206.781 83.9857 210.003 81.85 213.97 81.85Z" fill="#9290EC"/>
</svg>
