<svg width="205" height="350" viewBox="0 0 205 350" fill="none" xmlns="http://www.w3.org/2000/svg">
<g clip-path="url(#clip0_321_82)">
<path fill-rule="evenodd" clip-rule="evenodd" d="M0.117242 21.1934C0.0617823 9.8149 8.90246 -0.0581502 28.6913 -0.450563C48.4801 -0.84299 61.6889 11.5472 59.3239 21.1394C56.2393 33.6558 34.7393 37.1707 35.0888 50.3749C35.1421 52.3829 22.0515 52.1984 22.0515 50.1926C21.7501 37.0402 47.8627 30.685 48.2575 20.8936C48.6027 12.3094 41.5878 7.6559 28.7985 7.6559C19.9134 7.6559 12.4446 12.2314 11.79 21.0884C11.6783 22.9607 0.126724 23.0658 0.114319 21.1912L0.117242 21.1934Z" fill="#9290EC"/>
<path fill-rule="evenodd" clip-rule="evenodd" d="M28.4971 56.6171C33.4841 56.6171 37.5334 59.2969 37.5334 62.5981C37.5334 65.8993 33.4841 68.5791 28.4971 68.5791C23.5101 68.5791 19.4631 65.8993 19.4631 62.5981C19.4631 59.2969 23.5116 56.6171 28.4971 56.6171Z" fill="#9290EC"/>
<path d="M180.88 72.5769C181.365 86.7271 167.156 107.661 161.11 116.815L161.085 116.841C159.681 114.597 156.978 112.761 152.743 111.945C155.574 105.902 160.804 88.156 162.411 80.8125C146.008 63.8818 102.846 57.1758 99.7341 62.0715C99.0963 63.0401 98.5096 64.035 97.9229 65.0292C78.7142 55.8753 79.5045 20.8419 88.2547 15.8681C92.1325 13.6501 96.9531 14.6953 101.494 19.2591C101.698 16.0213 104.963 10.0549 110.168 9.62091C116.035 9.11033 120.907 13.6501 124.252 21.0724C123.563 15.3102 128.742 7.63551 137.058 9.777C142.44 11.1541 149.047 26.1723 156.521 34.9687C164.019 43.8403 180.421 59.981 180.88 72.5769Z" fill="#29263B"/>
<path d="M124.019 54.318C123.752 54.3178 123.493 54.2342 123.276 54.0789C123.059 53.9237 122.896 53.7045 122.811 53.4522C120.82 47.5945 121.16 38.5158 122.615 33.4669C122.662 33.306 122.739 33.1557 122.843 33.0248C122.948 32.8939 123.077 32.7849 123.223 32.7038C123.37 32.6228 123.531 32.5715 123.698 32.5527C123.864 32.5339 124.033 32.5482 124.194 32.5946C124.355 32.6409 124.506 32.7185 124.636 32.8229C124.768 32.9273 124.876 33.0565 124.957 33.2031C125.038 33.3496 125.09 33.5107 125.108 33.6771C125.127 33.8436 125.113 34.0121 125.067 34.173C123.712 38.8746 123.453 47.4151 125.227 52.6353C125.291 52.8272 125.31 53.0318 125.28 53.2322C125.251 53.4325 125.173 53.623 125.055 53.7877C124.937 53.9524 124.781 54.0867 124.601 54.1794C124.421 54.2721 124.222 54.3207 124.019 54.3209V54.318Z" fill="#686674"/>
<path d="M111.52 54.2189C111.27 54.2188 111.025 54.1453 110.817 54.0073C110.607 53.8693 110.444 53.673 110.346 53.4428C107.442 46.7225 106.406 39.3435 107.348 32.084C107.396 31.7492 107.576 31.4474 107.847 31.2449C108.118 31.0424 108.459 30.9558 108.794 31.0041C109.128 31.0525 109.43 31.2319 109.633 31.5027C109.836 31.7736 109.922 32.1139 109.874 32.4487C108.997 39.247 109.971 46.156 112.693 52.4472C112.776 52.641 112.809 52.8523 112.79 53.0621C112.771 53.2719 112.7 53.4737 112.583 53.6495C112.467 53.8252 112.31 53.9695 112.123 54.0693C111.938 54.1692 111.731 54.2216 111.52 54.2218V54.2189Z" fill="#686674"/>
<path d="M101.116 54.6776C100.913 54.6779 100.713 54.6298 100.532 54.5371C100.352 54.4445 100.196 54.3101 100.078 54.1451C95.965 48.4114 93.997 41.3728 94.2276 33.2233C94.2297 33.0549 94.2655 32.8885 94.3334 32.7342C94.4012 32.58 94.499 32.4408 94.6216 32.3252C94.7442 32.2095 94.8887 32.1196 95.0463 32.0608C95.2047 32.0021 95.3725 31.9758 95.5411 31.9833C95.7089 31.9877 95.8746 32.0251 96.0278 32.0935C96.181 32.1619 96.319 32.26 96.4343 32.382C96.5495 32.504 96.64 32.6476 96.6991 32.8045C96.759 32.9614 96.7867 33.1285 96.7816 33.2962C96.5627 40.9825 98.3221 47.3173 102.155 52.6608C102.292 52.8514 102.373 53.0756 102.39 53.3093C102.408 53.5429 102.36 53.7767 102.253 53.9852C102.147 54.1937 101.985 54.3687 101.785 54.4911C101.585 54.6135 101.355 54.6786 101.121 54.6791L101.116 54.6776Z" fill="#686674"/>
<path d="M97.9229 65.0291C86.1123 85.0962 82.8467 108.324 84.5813 118.447C86.9026 132.038 99.451 140.54 111.519 140.54C111.749 146.124 111.316 155.342 111.316 155.342C111.316 155.342 104.912 156.643 97.0298 158.887C94.5049 205.471 147.947 208.684 165.498 163.044C158.746 159.962 151.749 157.445 144.58 155.523C144.58 155.523 144.044 137.317 146.06 128.265C157.998 134.232 165.574 123.727 161.085 116.842C159.681 114.599 156.978 112.763 152.743 111.947C155.575 105.904 160.804 88.1574 162.411 80.8139C146.008 63.8833 102.846 57.1772 99.7341 62.0729C99.0963 63.0401 98.5096 64.035 97.9229 65.0291Z" fill="#FFA775"/>
<path d="M150.319 124.72C150.199 124.72 150.083 124.686 149.981 124.623C149.88 124.559 149.798 124.469 149.746 124.362C149.694 124.254 149.672 124.134 149.686 124.015C149.698 123.896 149.744 123.784 149.818 123.69C152.115 120.75 154.828 119.284 158.111 119.212C158.196 119.207 158.28 119.219 158.36 119.248C158.439 119.277 158.512 119.322 158.573 119.381C158.634 119.44 158.683 119.51 158.715 119.588C158.748 119.666 158.764 119.75 158.763 119.835C158.765 119.919 158.75 120.002 158.72 120.08C158.69 120.158 158.644 120.229 158.586 120.29C158.528 120.35 158.459 120.399 158.382 120.432C158.306 120.466 158.223 120.485 158.139 120.486C155.221 120.551 152.898 121.818 150.822 124.475C150.763 124.551 150.687 124.613 150.599 124.655C150.512 124.698 150.416 124.72 150.319 124.72Z" fill="#29263B"/>
<path d="M99.1817 78.393C97.6989 78.3784 96.2394 78.0174 94.9208 77.3383C94.7303 77.2559 94.5581 77.1348 94.4158 76.9838C94.2728 76.8329 94.1626 76.6542 94.0911 76.4587C94.0196 76.2639 93.9889 76.0561 94.0006 75.8489C94.0123 75.641 94.0655 75.4383 94.1582 75.2523C94.2502 75.0663 94.38 74.9007 94.5384 74.7658C94.6968 74.6316 94.8806 74.5302 95.0791 74.4696C95.2783 74.4084 95.487 74.3879 95.6936 74.4098C95.9008 74.4324 96.1007 74.4959 96.2817 74.598C99.2284 76.0568 102.072 75.3274 105.229 72.2902C105.371 72.1385 105.543 72.0181 105.733 71.935C105.924 71.8518 106.129 71.8088 106.337 71.8073C106.545 71.8059 106.75 71.8475 106.942 71.9277C107.133 72.0087 107.306 72.1276 107.45 72.2771C107.594 72.4266 107.706 72.6038 107.779 72.7986C107.853 72.9926 107.886 73.1998 107.876 73.4076C107.868 73.6148 107.816 73.8183 107.725 74.005C107.636 74.1925 107.508 74.3588 107.351 74.4952C104.652 77.0911 101.919 78.393 99.1817 78.393Z" fill="#29263B"/>
<path d="M142.18 85.1217C141.813 85.121 141.457 84.9875 141.179 84.7468C140.901 84.5054 140.719 84.1728 140.667 83.8088C140.537 82.6126 140.128 81.4638 139.474 80.4536C138.821 79.4441 137.939 78.601 136.901 77.9926C136.002 77.5258 135.001 77.2859 133.988 77.2939C132.975 77.3019 131.979 77.5579 131.087 78.0386C130.724 78.1961 130.314 78.2071 129.943 78.0692C129.572 77.9314 129.268 77.6549 129.097 77.299C128.925 76.9423 128.898 76.5331 129.02 76.1575C129.144 75.7811 129.407 75.4675 129.757 75.2815C131.083 74.5922 132.557 74.2334 134.052 74.2355C135.547 74.2377 137.019 74.601 138.343 75.2946C139.806 76.1298 141.054 77.2968 141.983 78.7009C142.914 80.1057 143.5 81.7089 143.698 83.3814C143.754 83.7833 143.649 84.191 143.405 84.5149C143.161 84.8394 142.798 85.0539 142.396 85.1108C142.325 85.1188 142.253 85.1224 142.18 85.1217Z" fill="#29263B"/>
<path d="M111.799 124.133C111.648 124.133 111.502 124.079 111.386 123.981C111.271 123.882 111.195 123.747 111.17 123.597C110.979 122.669 111.124 121.701 111.583 120.871C112.042 120.041 112.782 119.401 113.67 119.068C116.183 118.059 120.092 119.019 122.707 122.802C122.804 122.941 122.84 123.113 122.81 123.279C122.78 123.445 122.684 123.593 122.545 123.689C122.405 123.785 122.234 123.822 122.067 123.791C121.901 123.761 121.754 123.666 121.657 123.526C119.425 120.293 116.184 119.433 114.145 120.251C113.523 120.474 113.005 120.917 112.688 121.496C112.372 122.076 112.28 122.752 112.43 123.394C112.456 123.561 112.415 123.731 112.316 123.868C112.218 124.005 112.068 124.097 111.902 124.124C111.868 124.13 111.834 124.133 111.799 124.133Z" fill="#29263B"/>
<path d="M106.494 109.702C106.424 109.702 106.353 109.69 106.287 109.667C105.549 109.414 99.0504 107.11 98.5432 104.043C98.0214 100.885 106.1 84.7607 108.404 81.6331C108.504 81.4967 108.654 81.4062 108.821 81.3807C108.989 81.3552 109.159 81.3975 109.296 81.4974C109.432 81.5973 109.523 81.7476 109.548 81.9153C109.574 82.0824 109.531 82.2523 109.432 82.3887C106.82 85.9335 99.4057 101.436 99.7991 103.833C100.091 105.583 104.183 107.598 106.698 108.459C106.84 108.508 106.961 108.606 107.038 108.735C107.115 108.865 107.143 109.017 107.118 109.166C107.094 109.314 107.018 109.449 106.902 109.547C106.788 109.645 106.642 109.698 106.491 109.699L106.494 109.702Z" fill="#29263B"/>
<path d="M200.803 341.752C172.206 350.14 98.6629 353.838 69.6072 342.695L68.5126 238.261L35.9163 225.151C35.9163 225.151 53.8188 181.707 72.9508 168.678C78.8689 164.624 88.767 161.232 97.0319 158.887C94.507 205.471 147.95 208.684 165.5 163.044C175.27 167.481 186.622 174.034 195.142 183.06C213.736 202.743 200.803 341.752 200.803 341.752Z" fill="#29263B"/>
<path fill-rule="evenodd" clip-rule="evenodd" d="M132.67 87.687C134.213 88.0794 134.817 90.9401 134.019 94.0692C133.221 97.1982 131.319 99.4156 129.776 99.0232C128.234 98.6308 127.626 95.7694 128.425 92.641C129.224 89.5127 131.125 87.2938 132.67 87.687Z" fill="#29263B"/>
<path fill-rule="evenodd" clip-rule="evenodd" d="M100.03 80.3128C101.576 80.7081 102.18 83.5659 101.382 86.695C100.583 89.824 98.6818 92.0443 97.137 91.649C95.5921 91.2537 94.9894 88.3952 95.7877 85.2697C96.586 82.1443 98.4877 79.9196 100.03 80.3099V80.3128Z" fill="#29263B"/>
<path fill-rule="evenodd" clip-rule="evenodd" d="M190.257 224.095C190.257 224.095 184.497 208.048 175.409 206.244C166.053 204.383 153.252 212.288 143.3 220.125C135.103 202.294 126.053 178.78 125.951 170.2C131.257 157.696 125.851 147.257 139.05 135.253C145.162 129.694 136.341 121.451 128.086 130.824C121.816 137.945 111.448 137.795 105.765 136.627C94.4413 134.307 88.1788 126.099 85.8167 122.846C78.2457 123.682 79.8599 131.948 81.6638 135.541C78.0465 136.594 76.3937 143.04 78.7762 147.015C75.8807 149.165 74.5847 152.306 78.064 158.402C75.2684 161.141 76.3346 166.607 79.4009 169.297C79.4009 169.297 88.3933 175.491 94.5063 178.135C97.2121 198.344 101.383 218.331 106.985 237.937C89.3252 241.015 68.6374 243.325 68.6374 243.325L68.5556 238.351L38.1405 226.045C30.2594 244.654 26.2116 280.281 43.9251 287.737C59.5282 294.302 88.2197 290.184 119.532 271.472C127.259 287.076 136.845 298.241 148.42 298.252C167.279 298.275 179.642 280.203 179.642 280.203C183.08 269.93 181.466 259.78 174.775 252.203C174.759 252.133 174.752 252.057 174.731 251.994C178.575 253.353 184.202 249.587 182.649 245.546C186.006 246.484 188.873 242.055 188.493 235.48C190.982 232.987 191.571 229.192 190.257 224.095Z" fill="#FFA775"/>
<path d="M174.92 252.39C174.757 252.39 174.6 252.327 174.482 252.214C174.363 252.102 174.293 251.949 174.284 251.786C173.999 246.516 171.876 241.522 167.6 236.069C167.502 235.935 167.46 235.769 167.482 235.605C167.505 235.441 167.59 235.291 167.721 235.189C167.851 235.087 168.016 235.039 168.181 235.057C168.346 235.074 168.497 235.155 168.604 235.282C173.049 240.952 175.258 246.174 175.558 251.718C175.567 251.886 175.508 252.052 175.395 252.178C175.282 252.303 175.124 252.379 174.955 252.389L174.92 252.39Z" fill="#29263B"/>
<path d="M182.812 245.673C182.662 245.673 182.517 245.62 182.402 245.523C182.288 245.426 182.21 245.292 182.185 245.144C181.014 237.977 177.463 231.413 172.104 226.509C171.98 226.393 171.909 226.233 171.904 226.064C171.899 225.895 171.961 225.731 172.077 225.608C172.193 225.484 172.354 225.413 172.523 225.408C172.692 225.403 172.856 225.465 172.979 225.581C178.514 230.694 182.195 237.499 183.443 244.928C183.471 245.094 183.433 245.265 183.335 245.404C183.238 245.542 183.089 245.635 182.923 245.664C182.886 245.67 182.85 245.673 182.812 245.673Z" fill="#29263B"/>
<path d="M188.65 236.135C188.506 236.135 188.367 236.086 188.255 235.997C188.142 235.908 188.063 235.784 188.03 235.644C186.18 227.846 182.48 221.445 177.034 216.622C176.972 216.566 176.921 216.499 176.884 216.424C176.848 216.349 176.826 216.267 176.821 216.183C176.81 216.015 176.867 215.848 176.98 215.722C177.092 215.596 177.25 215.519 177.418 215.508C177.587 215.498 177.753 215.555 177.879 215.668C183.527 220.669 187.359 227.291 189.271 235.351C189.31 235.516 189.281 235.689 189.193 235.832C189.104 235.976 188.962 236.079 188.798 236.118C188.749 236.129 188.7 236.135 188.65 236.135Z" fill="#29263B"/>
<path d="M159.455 250.456C159.341 250.456 159.23 250.426 159.132 250.368C159.034 250.311 158.953 250.229 158.898 250.13L154.136 241.612C147.377 233.719 125.468 183.303 125.312 170.205C125.311 170.116 125.328 170.029 125.362 169.949C127.249 165.499 127.763 161.269 128.26 157.171C129.169 149.674 130.028 142.593 138.622 134.779C140.099 133.434 140.724 131.798 140.336 130.286C140.12 129.553 139.709 128.893 139.146 128.377C138.583 127.86 137.889 127.506 137.141 127.353C134.441 126.709 131.312 128.124 128.566 131.242C122.675 137.933 112.859 138.733 105.638 137.248C97.7208 135.627 90.8788 130.903 85.3015 123.217C85.249 123.149 85.2103 123.072 85.1884 122.99C85.1665 122.907 85.1614 122.821 85.1731 122.736C85.1855 122.651 85.2147 122.57 85.2585 122.496C85.303 122.424 85.3614 122.36 85.4307 122.31C85.4993 122.259 85.5781 122.224 85.6613 122.205C85.7452 122.185 85.8313 122.183 85.9152 122.198C85.9999 122.213 86.0801 122.244 86.1524 122.291C86.2239 122.337 86.2852 122.398 86.3334 122.469C88.3408 125.235 94.4487 133.655 105.894 136C108.268 136.488 120.47 138.507 127.608 130.4C130.677 126.914 134.262 125.352 137.438 126.114C138.413 126.32 139.312 126.787 140.041 127.467C140.769 128.146 141.298 129.011 141.571 129.969C142.082 131.953 141.319 134.049 139.48 135.721C131.239 143.217 130.408 150.07 129.528 157.324C129.025 161.47 128.507 165.755 126.592 170.321C126.889 183.489 148.53 233.206 155.145 240.824C155.172 240.856 155.196 240.892 155.218 240.93L160.011 249.504C160.065 249.601 160.092 249.71 160.092 249.821C160.09 249.932 160.06 250.041 160.004 250.137C159.948 250.233 159.867 250.312 159.772 250.368C159.676 250.422 159.566 250.452 159.455 250.452V250.456Z" fill="#29263B"/>
</g>
<defs>
<clipPath id="clip0_321_82">
<rect width="205" height="350" fill="white"/>
</clipPath>
</defs>
</svg>
