<svg width="238" height="315" viewBox="0 0 238 315" fill="none" xmlns="http://www.w3.org/2000/svg">
<g clip-path="url(#clip0_71_79)">
<path fill-rule="evenodd" clip-rule="evenodd" d="M208.659 57.2521C192.16 33.3943 149.603 12.7472 122.994 19.1394C106.558 23.0878 109.354 39.5776 103.13 41.3488C96.9063 43.1199 64.4546 54.9024 61.4322 73.7111C58.4098 92.5197 71.5456 94.2022 71.1182 100.698C70.6909 107.194 49.6584 129.426 58.0987 145.426C66.5391 161.426 77.3791 161.469 78.0035 168.337C78.6279 175.205 88.2625 234.71 108.111 253.431C127.96 272.151 172.03 340.82 183.843 328.965C195.655 317.111 193.647 318.044 202.495 312.653C208.618 308.924 222.903 305.768 230.212 287.052C237.184 269.199 221.845 242.755 223.157 231.489C223.734 226.529 241.141 220.836 236.729 198.759C232.318 176.683 215.157 155.555 215.44 143.144C215.579 136.994 226.102 137.093 229.184 119.786C231.599 106.223 220.856 74.8895 208.66 57.2537L208.659 57.2521Z" fill="#3C39C7"/>
<path fill-rule="evenodd" clip-rule="evenodd" d="M43.0984 232.241C36.6239 219.728 31.524 206.645 32.0851 192.038C39.1588 190.635 44.6591 185.865 46.4888 173.677C45.9119 177.52 53.8259 179.578 57.2322 178.254C64.4562 175.442 70.0332 163.217 67.2467 159.569C69.7111 155.795 72.9757 148.766 68.854 145.224C68.854 145.224 72.3845 134.278 67.4295 131.928C62.8939 129.778 53.9921 130.097 53.9921 130.097C58.1352 125.674 61.5042 122.488 65.3156 118.507C68.0286 119.161 73.4988 120.016 75.604 119.857C86.083 119.066 87.3762 107.716 82.5557 107.145C65.1755 105.093 62.0835 102.642 58.4375 104.846C55.6399 106.536 34.3787 126.991 32.321 130.11C22.7244 144.612 4.90656 170.986 1.64991 183.939C-3.27511 203.528 8.44811 303.496 35.8649 303.076C53.5284 302.804 67.7231 279.571 72.2785 267.377C67.8244 250.961 56.4424 228.489 43.1 232.238L43.0984 232.241Z" fill="#FFA775"/>
<path d="M46.8164 173.68C46.7492 173.68 46.6827 173.671 46.6178 173.654C46.4215 173.601 46.2538 173.472 46.1517 173.296C46.0504 173.12 46.0227 172.91 46.0749 172.714C46.8022 169.932 47.2818 167.089 47.5065 164.222C47.5184 164.083 47.5675 163.951 47.649 163.838C47.7305 163.725 47.8413 163.637 47.9687 163.582C48.0961 163.527 48.237 163.508 48.3747 163.527C48.5124 163.546 48.6422 163.601 48.7506 163.688C50.6706 165.271 52.843 166.52 55.1777 167.382C55.3692 167.45 55.5267 167.591 55.6145 167.774C55.7016 167.958 55.7135 168.169 55.6454 168.361C55.5774 168.552 55.4365 168.71 55.2529 168.797C55.0693 168.885 54.858 168.896 54.6664 168.828C52.6064 168.079 50.6643 167.037 48.9018 165.733C48.6438 168.223 48.1943 170.689 47.5564 173.11C47.5129 173.273 47.4163 173.417 47.2826 173.52C47.1488 173.623 46.985 173.679 46.8164 173.68Z" fill="#29263B"/>
<path fill-rule="evenodd" clip-rule="evenodd" d="M104.373 171.513C96.9736 168.165 85.7316 160.382 74.3139 166.602C58.2863 175.33 42.6971 232.223 42.6971 232.223C49.7541 231.251 55.4776 242.432 60.4588 250.703C70.0348 293.823 70.0206 329.976 69.2845 365.607C105.889 384.301 161.255 383.95 192.132 365.595C192.132 365.595 191.727 323.674 194.253 310.538C196.619 298.234 217.873 281.968 217.873 281.968C217.873 281.968 239.897 205.06 221.039 182.596C209.597 168.967 192.543 169.764 171.734 177.592C143.545 188.192 114.968 176.309 104.379 171.517L104.373 171.513Z" fill="#FFC764"/>
<path fill-rule="evenodd" clip-rule="evenodd" d="M99.3026 82.6383C99.3026 82.6383 82.6174 129.771 90.9264 144.306C99.2354 158.842 122.811 162.283 122.811 162.283L120.937 177.24L103.955 171.364C99.0486 189.809 103.605 210.87 115.703 229.072C131.686 217.077 150.436 200.218 172.553 177.437C172.553 177.437 157.423 183.872 154.577 177.58C151.731 171.287 163.341 145.667 163.341 145.667C181.417 157.664 195.643 130.063 172.663 127.037C176.944 109.619 167.483 108.33 167.053 99.8387C166.504 88.9513 176.874 87.9906 176.64 76.3046C158.2 82.1436 153.044 61.4728 135.18 67.4408C120.209 72.4449 121.008 84.396 99.3026 82.6359V82.6383Z" fill="#FFA775"/>
<path fill-rule="evenodd" clip-rule="evenodd" d="M145.477 159.908C141.323 162.282 129.391 163.356 122.811 162.282L121.703 171.105C132.776 171.631 140.38 166.914 145.477 159.908Z" fill="#F08855"/>
<path fill-rule="evenodd" clip-rule="evenodd" d="M171.412 271.508L165.76 290.847C165.76 290.847 90.8567 291.034 85.1728 291.707C67.9636 293.747 46.4508 306.321 41.9951 309.682C36.4553 313.858 35.5451 323.983 45.2795 326.292C49.4288 337.337 55.6105 352.635 61.3055 354.054C69.2259 356.032 70.7795 349.063 70.8903 344.082C75.9197 348.94 95.6709 347.665 99.5496 334.283C111.558 336.011 183.918 337.317 193.351 330.459C202.785 323.6 217.618 281.672 217.618 281.672C206.088 271.948 189.079 269.052 171.412 271.51V271.508Z" fill="#FFA775"/>
<path d="M172.024 298.73C171.913 298.73 171.802 298.707 171.701 298.659C171.599 298.613 171.51 298.544 171.438 298.459L164.533 290.283C164.468 290.206 164.419 290.117 164.388 290.021C164.357 289.925 164.346 289.824 164.355 289.723C164.364 289.624 164.391 289.526 164.438 289.436C164.484 289.347 164.547 289.268 164.624 289.202C164.702 289.137 164.79 289.088 164.886 289.058C164.983 289.027 165.083 289.016 165.184 289.024C165.284 289.033 165.381 289.061 165.471 289.107C165.56 289.154 165.64 289.217 165.705 289.294L172.61 297.47C172.704 297.581 172.765 297.717 172.784 297.862C172.804 298.007 172.781 298.154 172.72 298.287C172.658 298.419 172.56 298.532 172.437 298.61C172.313 298.688 172.171 298.73 172.024 298.73Z" fill="#29263B"/>
<path d="M67.4272 160.341C67.2246 160.341 67.0307 160.261 66.8874 160.118C62.1421 155.471 56.4923 151.849 50.2892 149.474C50.1001 149.398 49.9497 149.25 49.8698 149.062C49.7898 148.875 49.7882 148.663 49.865 148.475C49.941 148.286 50.089 148.135 50.2765 148.055C50.4641 147.975 50.6754 147.974 50.8646 148.05C57.2576 150.499 63.0784 154.235 67.9677 159.027C68.0753 159.134 68.1489 159.27 68.179 159.419C68.2091 159.569 68.194 159.723 68.1363 159.863C68.0785 160.004 67.9804 160.124 67.8537 160.209C67.7279 160.294 67.5791 160.339 67.4272 160.339V160.341Z" fill="#29263B"/>
<path d="M69.0425 145.923C68.9388 145.923 68.8359 145.902 68.7409 145.862C62.0005 142.956 54.8493 141.12 47.543 140.416C47.4425 140.406 47.346 140.376 47.2573 140.327C47.1687 140.28 47.0903 140.215 47.027 140.137C46.9629 140.058 46.9154 139.969 46.887 139.872C46.8585 139.776 46.849 139.674 46.8593 139.574C46.8695 139.473 46.8996 139.377 46.9479 139.288C46.9954 139.2 47.0603 139.121 47.1386 139.058C47.217 138.994 47.3072 138.946 47.4037 138.918C47.4995 138.889 47.6008 138.88 47.7013 138.89C55.1619 139.609 62.4643 141.484 69.3471 144.451C69.5094 144.521 69.6431 144.644 69.7255 144.801C69.807 144.958 69.8323 145.138 69.7967 145.311C69.7611 145.484 69.6669 145.639 69.53 145.751C69.3931 145.862 69.2213 145.923 69.0448 145.923H69.0425Z" fill="#29263B"/>
<path d="M44.659 130.802C44.4596 130.795 44.2704 130.712 44.1319 130.568C43.9934 130.425 43.9159 130.234 43.9159 130.034C43.9159 129.835 43.9934 129.644 44.1319 129.501C44.2704 129.357 44.4596 129.274 44.659 129.267L54.099 129.228C54.3023 129.228 54.4978 129.308 54.6419 129.451C54.7867 129.594 54.8682 129.789 54.869 129.992C54.8698 130.196 54.7899 130.391 54.6466 130.535C54.5034 130.68 54.3087 130.761 54.1053 130.762L44.6646 130.802H44.659Z" fill="#29263B"/>
<path d="M60.2197 250.915C60.0392 250.915 59.8651 250.851 59.7274 250.735C59.5889 250.62 59.4963 250.459 59.4647 250.282C57.4276 238.557 75.4432 207.573 76.2117 206.26C76.2616 206.172 76.3288 206.095 76.4096 206.033C76.4895 205.971 76.5813 205.925 76.6794 205.899C76.7775 205.873 76.8796 205.867 76.9802 205.88C77.0807 205.894 77.1772 205.927 77.2651 205.978C77.3521 206.029 77.4289 206.097 77.4898 206.178C77.5508 206.259 77.5959 206.351 77.6204 206.449C77.6457 206.548 77.6513 206.65 77.637 206.75C77.622 206.851 77.588 206.947 77.5357 207.034C77.3505 207.351 59.0342 238.843 60.9763 250.019C61.0111 250.219 60.9644 250.425 60.8473 250.592C60.7301 250.758 60.5521 250.871 60.3518 250.906C60.3083 250.912 60.264 250.916 60.2197 250.915Z" fill="#29263B"/>
<path d="M167.391 272.886C167.272 272.886 167.155 272.859 167.049 272.806C166.943 272.754 166.85 272.677 166.778 272.582C166.707 272.488 166.658 272.378 166.637 272.261C166.614 272.144 166.62 272.024 166.652 271.91C171.005 256.617 173.501 243.621 174.297 232.181C174.303 232.08 174.328 231.981 174.373 231.89C174.417 231.799 174.479 231.718 174.555 231.651C174.631 231.585 174.721 231.535 174.817 231.503C174.913 231.472 175.015 231.46 175.116 231.469C175.216 231.476 175.314 231.502 175.405 231.547C175.495 231.593 175.575 231.655 175.641 231.731C175.708 231.807 175.758 231.895 175.79 231.991C175.822 232.086 175.835 232.187 175.828 232.287C175.044 243.548 172.631 256.281 168.454 271.18L171.466 270.714C171.565 270.698 171.667 270.702 171.765 270.726C171.863 270.749 171.955 270.793 172.036 270.852C172.118 270.911 172.187 270.986 172.24 271.072C172.292 271.158 172.327 271.253 172.343 271.353C172.358 271.453 172.354 271.554 172.33 271.652C172.307 271.75 172.264 271.842 172.204 271.924C172.145 272.005 172.07 272.074 171.984 272.127C171.899 272.179 171.803 272.214 171.703 272.23L167.509 272.878C167.47 272.884 167.43 272.887 167.391 272.886Z" fill="#29263B"/>
<path d="M112.759 124.144C112.671 124.144 112.583 124.129 112.5 124.1C112.23 124.002 105.885 121.68 106.053 117.585C106.206 113.808 112.58 103.193 116.077 100.106C116.153 100.039 116.241 99.9877 116.336 99.9552C116.431 99.922 116.533 99.9085 116.633 99.9148C116.734 99.9212 116.832 99.9473 116.922 99.9916C117.013 100.036 117.094 100.098 117.16 100.173C117.227 100.248 117.278 100.336 117.311 100.432C117.344 100.527 117.357 100.628 117.351 100.728C117.345 100.829 117.318 100.927 117.274 101.017C117.23 101.108 117.168 101.189 117.093 101.255C113.935 104.043 107.722 114.314 107.585 117.648C107.484 120.115 111.473 122.099 113.018 122.655C113.188 122.716 113.331 122.835 113.422 122.992C113.513 123.147 113.545 123.33 113.514 123.508C113.483 123.686 113.391 123.848 113.252 123.963C113.114 124.08 112.94 124.144 112.759 124.144Z" fill="#29263B"/>
<path d="M127.231 138.657C127.087 138.657 126.946 138.617 126.824 138.54C126.701 138.464 126.603 138.355 126.541 138.225C126.084 137.162 125.422 136.201 124.591 135.395C123.762 134.589 122.781 133.955 121.705 133.53C121.033 133.287 120.319 133.182 119.606 133.219C118.892 133.256 118.192 133.435 117.549 133.747C117.367 133.838 117.156 133.853 116.963 133.788C116.77 133.724 116.611 133.586 116.52 133.404C116.428 133.223 116.413 133.012 116.477 132.819C116.542 132.626 116.68 132.466 116.862 132.375C117.686 131.973 118.584 131.739 119.5 131.688C120.417 131.637 121.334 131.77 122.198 132.078C123.467 132.567 124.625 133.303 125.608 134.243C126.591 135.183 127.376 136.309 127.92 137.555C127.977 137.672 128.003 137.801 127.996 137.931C127.989 138.06 127.949 138.186 127.881 138.296C127.812 138.406 127.716 138.497 127.602 138.561C127.489 138.624 127.361 138.657 127.231 138.657Z" fill="#29263B"/>
<path d="M156.571 96.0526C156.17 96.0526 155.781 95.9213 155.461 95.6791C155.141 95.4369 154.909 95.0974 154.8 94.7112C153.771 91.0604 152.235 88.645 150.238 87.5347C148.478 86.5573 146.232 86.4829 143.368 87.3076C142.901 87.4326 142.405 87.3693 141.986 87.1327C141.566 86.8952 141.255 86.5027 141.122 86.0397C140.989 85.5768 141.042 85.079 141.271 84.6548C141.5 84.2306 141.887 83.9132 142.347 83.7708C146.146 82.6747 149.404 82.8591 152.026 84.3168C154.955 85.944 157.019 89.017 158.344 93.7116C158.421 93.9855 158.434 94.2736 158.381 94.5529C158.328 94.8323 158.211 95.0958 158.04 95.3222C157.868 95.5493 157.645 95.7329 157.391 95.8595C157.137 95.9862 156.856 96.0526 156.571 96.0526Z" fill="#29263B"/>
<path d="M103.157 90.648C102.828 90.6472 102.504 90.5586 102.221 90.3908C101.937 90.2222 101.705 89.9817 101.546 89.6928C101.387 89.4039 101.309 89.0787 101.319 88.7494C101.33 88.4202 101.428 88.0997 101.604 87.8211C105.568 81.569 110.204 82.2425 113.396 83.9068C113.829 84.1323 114.154 84.5209 114.301 84.9871C114.448 85.4524 114.403 85.9573 114.177 86.3902C113.952 86.8231 113.563 87.1484 113.097 87.2948C112.632 87.4412 112.127 87.3969 111.694 87.1714C109.62 86.0887 107.341 85.6566 104.715 89.7925C104.549 90.0553 104.319 90.2713 104.046 90.4209C103.773 90.5705 103.468 90.6488 103.157 90.648Z" fill="#29263B"/>
<path fill-rule="evenodd" clip-rule="evenodd" d="M146.586 94.0861C148.403 94.5506 149.124 97.8745 148.196 101.505C147.268 105.135 145.038 107.705 143.224 107.241C141.41 106.776 140.687 103.452 141.615 99.8222C142.544 96.1928 144.771 93.6215 146.586 94.0861Z" fill="#29263B"/>
<path fill-rule="evenodd" clip-rule="evenodd" d="M107.604 91.4642C109.278 91.7903 110.106 94.7715 109.456 98.1168C108.806 101.462 106.916 103.911 105.243 103.585C103.57 103.259 102.741 100.279 103.391 96.9368C104.041 93.5947 105.931 91.1405 107.604 91.4666V91.4642Z" fill="#29263B"/>
<path d="M169.657 141.946C169.502 141.946 169.348 141.905 169.213 141.826C169.009 141.708 168.86 141.514 168.799 141.287C168.737 141.058 168.769 140.815 168.887 140.611C171.348 136.337 175.252 134.344 180.492 134.682C180.61 134.688 180.726 134.716 180.833 134.767C180.94 134.818 181.036 134.89 181.115 134.977C181.194 135.065 181.254 135.169 181.293 135.281C181.332 135.392 181.347 135.511 181.34 135.629C181.332 135.747 181.301 135.862 181.248 135.968C181.196 136.074 181.123 136.169 181.033 136.245C180.944 136.323 180.839 136.381 180.727 136.419C180.615 136.455 180.496 136.468 180.378 136.459C175.804 136.16 172.553 137.814 170.429 141.499C170.352 141.636 170.239 141.748 170.103 141.826C169.968 141.905 169.814 141.946 169.657 141.946Z" fill="#494645"/>
<path fill-rule="evenodd" clip-rule="evenodd" d="M4.82189 19.186C4.77204 8.90637 12.7574 -0.0183534 30.6313 -0.372905C48.5053 -0.727456 60.4358 10.4686 58.299 19.1393C55.5125 30.4501 36.0921 33.626 36.4086 45.5581C36.4561 47.3736 24.6325 47.2098 24.6325 45.3935C24.3602 33.5081 47.9466 27.7657 48.3027 18.9169C48.6145 11.1611 42.2785 6.95475 30.7271 6.95475C22.7006 6.95475 15.9554 11.0891 15.3643 19.0934C15.263 20.7854 4.82902 20.8804 4.82031 19.186H4.82189Z" fill="#9290EC"/>
<path fill-rule="evenodd" clip-rule="evenodd" d="M30.4565 51.1972C34.9612 51.1972 38.6175 53.6189 38.6175 56.6033C38.6175 59.5877 34.9612 62.0086 30.4565 62.0086C25.9518 62.0086 22.2963 59.5869 22.2963 56.6033C22.2963 53.6197 25.9526 51.1972 30.4565 51.1972Z" fill="#9290EC"/>
</g>
<defs>
<clipPath id="clip0_71_79">
<rect width="236.947" height="315" fill="white" transform="translate(0.526611)"/>
</clipPath>
</defs>
</svg>
