<svg width="236" height="350" viewBox="0 0 236 350" fill="none" xmlns="http://www.w3.org/2000/svg">
<g clip-path="url(#clip0_321_103)">
<path fill-rule="evenodd" clip-rule="evenodd" d="M109.163 184.498C131.344 196.46 156.732 198.611 184.721 192.773L192.611 213.18C157.588 215.851 125.608 213.117 98.7882 201.225L109.163 184.496V184.498Z" fill="#FFB83A"/>
<path fill-rule="evenodd" clip-rule="evenodd" d="M98.4168 196.94C98.4168 196.94 76.8338 194.623 64.7392 202.245C41.9101 216.63 30.7319 320.569 30.7319 320.569C63.3186 339.993 150.846 354.73 183.671 340.942C194.602 350.944 221.72 352.539 233.395 344.626C233.395 344.626 240.285 253.508 232.848 233.358C225.412 213.207 198.847 212.214 198.847 212.214L98.416 196.94H98.4168Z" fill="#FFC764"/>
<path fill-rule="evenodd" clip-rule="evenodd" d="M59.6952 331.221C67.5418 316.358 85.3926 313.951 82.1749 312.454C74.8631 309.054 62.8604 320.613 64.1351 313.369C65.9118 303.279 74.9484 296.885 72.3181 293.866C68.6377 289.642 66.5707 289.794 67.695 284.9C70.7595 271.568 83.5459 268.193 81.6313 267.699C76.6281 266.41 73.9459 263.489 78.9768 236.778C74.3209 245.543 71.5344 265.214 68.7793 272.249C66.0241 279.284 61.3989 273.68 60.1943 280.254C58.9896 286.828 62.4314 289.389 61.3121 294.529C60.1928 299.67 53.2969 289.849 51.4721 295.657C49.6472 301.465 56.538 311.796 55.4289 317.049C54.3199 322.303 42.8491 330.05 42.8491 330.05C42.8491 330.05 51.6151 330.733 59.6981 331.221H59.6952Z" fill="#FFB83A"/>
<path fill-rule="evenodd" clip-rule="evenodd" d="M194.674 255.871C194.674 255.871 198.376 266.124 198.264 275.155C198.153 284.346 194.436 291.854 196.805 295.164C199.174 298.474 207.468 287.774 211.419 291.459C215.118 294.907 196.414 293.672 193.907 302.965C192.942 306.545 200.758 300.984 202.051 305.099C203.437 309.511 195.542 306.09 190.1 327.582C188.908 332.711 188.024 337.907 187.455 343.142C186.174 342.314 184.951 341.4 183.794 340.406C182.101 341.071 179.219 341.992 177.855 342.369C179.175 338.224 183.546 331.23 182.426 324.566C181.129 316.851 168.57 311.475 170.574 309.76C177.46 303.852 185.418 315.376 186.034 308.37C187.34 293.526 171.425 286.882 175.541 283.789C182.108 278.856 190.332 292.316 192.381 286.307C195.053 278.478 196.367 268.917 194.68 255.872L194.674 255.871Z" fill="#FFB83A"/>
<path fill-rule="evenodd" clip-rule="evenodd" d="M193.216 136.735C200.499 124.719 206.07 111.746 209.77 98.1916C219.385 101.45 226.736 91.1165 219.83 81.2187C230.342 76.8504 231.608 61.7724 219.677 58.1116C227.476 52.3815 225.374 39.6229 216.171 38.2378C221.194 27.4829 212.092 16.4071 200.432 20.3385C204.099 7.01329 185.417 -2.54174 176.952 9.47936C171.727 -4.69491 154.199 -2.5556 150.247 8.64567C141.2 -0.737228 128.37 6.08842 128.719 16.7062C117.638 10.9542 107.934 21.1766 111.721 31.7156C99.2508 32.5537 97.0619 46.6929 104.435 54.3734C97.6704 59.1043 100.257 70.5856 107.772 72.7789L193.214 136.735H193.216Z" fill="#29263B"/>
<path fill-rule="evenodd" clip-rule="evenodd" d="M93.1831 196.992C79.5825 200.416 103.754 230.859 128.06 243.615C169.689 244.187 216.21 219.051 204.005 212.88C185.575 203.565 102.52 194.645 93.1801 196.992H93.1831Z" fill="#FFB83A"/>
<path fill-rule="evenodd" clip-rule="evenodd" d="M112.101 55.7638C96.592 80.6995 87.3963 124.297 99.4952 149.272C106.427 163.568 126.627 170.577 126.492 170.376C126.357 170.175 129.746 199.529 109.718 199.793C95.5625 199.981 128.55 240.201 128.55 240.201L173.838 207.832C173.838 207.832 164.197 204.76 163.223 197.064C162.249 189.368 174.519 147.546 174.519 147.546C197.222 156.433 200.376 127.602 182.012 127.607C182.012 127.607 194.708 89.1677 190.283 76.9737C186.349 66.1342 116.822 48.1722 112.101 55.7638Z" fill="#915839"/>
<path d="M126.175 181.48C137.767 181.151 147.553 174.891 153.73 165.752C145.528 170.59 135.831 172.237 126.491 170.379C126.758 174.081 126.652 177.799 126.175 181.48Z" fill="#7B3711"/>
<path fill-rule="evenodd" clip-rule="evenodd" d="M109.393 184.653C104.588 183.462 92.9934 192.938 91.9288 197.472C98.4592 216.312 111.798 230.49 128.123 242.627C155.353 240.576 181.059 230.119 205.933 215.077C204.985 208.293 189.375 192.474 184.256 192.757C168.654 208.95 150.17 224.309 128.803 238.834C117.483 222.589 110.649 204.667 109.393 184.653Z" fill="#FFDC9C"/>
<path fill-rule="evenodd" clip-rule="evenodd" d="M139.669 238.239L134.74 272.171L143.867 272.71L148.243 237.621L139.669 238.239Z" fill="white"/>
<path fill-rule="evenodd" clip-rule="evenodd" d="M116.866 229.373L107.508 265.025L113.888 266.691L121.613 233.53L116.866 229.373Z" fill="white"/>
<path d="M122.192 129.165C122.069 129.166 121.949 129.124 121.853 129.048C121.522 128.785 113.74 122.571 113.685 117.596C113.606 110.163 126.076 92.6891 126.607 91.9488C126.692 91.8343 126.819 91.7577 126.961 91.7351C127.102 91.7132 127.246 91.7475 127.363 91.8306C127.479 91.9138 127.557 92.04 127.582 92.1807C127.607 92.3215 127.575 92.4667 127.494 92.5841C127.366 92.7628 114.7 110.507 114.777 117.585C114.826 122.041 122.454 128.132 122.53 128.193C122.619 128.263 122.683 128.359 122.715 128.468C122.747 128.577 122.744 128.693 122.707 128.8C122.67 128.906 122.599 128.999 122.508 129.065C122.415 129.13 122.305 129.165 122.192 129.165Z" fill="#29263B"/>
<path d="M135.213 151.473C135.077 151.473 134.946 151.422 134.846 151.331C134.746 151.239 134.683 151.113 134.671 150.979C134.331 147.339 131.94 144.268 128.11 142.548C124.789 141.057 121.562 141.08 120.357 141.964C120.186 142.073 120.05 142.229 119.966 142.414C119.882 142.599 119.854 142.804 119.884 143.004C119.895 143.076 119.891 143.15 119.873 143.221C119.854 143.291 119.822 143.357 119.778 143.415C119.733 143.473 119.678 143.522 119.614 143.558C119.551 143.594 119.481 143.617 119.409 143.626C119.336 143.634 119.263 143.628 119.193 143.608C119.123 143.588 119.057 143.553 119.001 143.507C118.944 143.461 118.897 143.405 118.863 143.34C118.829 143.275 118.807 143.205 118.801 143.132C118.749 142.74 118.807 142.342 118.968 141.98C119.128 141.619 119.386 141.309 119.711 141.084C121.4 139.844 125.202 140.045 128.558 141.552C132.755 143.436 135.379 146.835 135.757 150.877C135.77 151.021 135.726 151.165 135.634 151.275C135.541 151.387 135.408 151.457 135.265 151.471C135.247 151.469 135.23 151.473 135.213 151.473Z" fill="#29263B"/>
<path d="M173.724 92.927C173.179 92.9263 172.653 92.7213 172.251 92.3529C171.849 91.9846 171.6 91.4791 171.551 90.9365C170.999 84.6637 168.031 81.4216 162.212 80.741C161.927 80.7075 161.652 80.6185 161.402 80.4792C161.152 80.3391 160.931 80.1517 160.753 79.927C160.575 79.7024 160.444 79.4449 160.366 79.1692C160.288 78.8935 160.265 78.6054 160.298 78.3202C160.331 78.0357 160.42 77.7607 160.56 77.5106C160.699 77.2604 160.887 77.0401 161.112 76.8621C161.337 76.6849 161.595 76.5529 161.87 76.4748C162.146 76.3968 162.435 76.3734 162.719 76.407C170.61 77.3297 175.169 82.2217 175.902 90.5535C175.928 90.8387 175.896 91.1268 175.81 91.3996C175.724 91.6732 175.586 91.927 175.401 92.1465C175.217 92.3661 174.992 92.547 174.737 92.6797C174.483 92.8125 174.205 92.8934 173.92 92.9182C173.852 92.9241 173.788 92.927 173.724 92.927Z" fill="#29263B"/>
<path d="M112.856 74.5682C112.459 74.5675 112.069 74.4588 111.729 74.2539C111.39 74.0489 111.112 73.755 110.927 73.4034C110.742 73.0525 110.656 72.6572 110.679 72.2612C110.701 71.8651 110.832 71.4822 111.056 71.1547C114.716 65.8024 119.549 64.7149 124.664 68.0956C125.137 68.4187 125.464 68.9154 125.574 69.4778C125.685 70.0402 125.569 70.6229 125.253 71.1014C124.937 71.5792 124.445 71.914 123.884 72.0329C123.324 72.151 122.739 72.0445 122.256 71.736C119.17 69.6937 116.968 70.2407 114.66 73.6171C114.46 73.9103 114.19 74.151 113.876 74.3166C113.561 74.4822 113.211 74.569 112.856 74.5682Z" fill="#29263B"/>
<path fill-rule="evenodd" clip-rule="evenodd" d="M162.168 88.2661C164.609 88.908 165.597 93.191 164.375 97.8255C163.153 102.46 160.182 105.698 157.742 105.055C155.302 104.411 154.313 100.13 155.535 95.4951C156.757 90.8606 159.73 87.6228 162.168 88.2661Z" fill="#29263B"/>
<path fill-rule="evenodd" clip-rule="evenodd" d="M119.326 77.7053C121.764 78.3472 122.755 82.6302 121.532 87.2603C120.309 91.8905 117.337 95.1378 114.899 94.4915C112.46 93.8453 111.469 89.5645 112.692 84.9321C113.915 80.2997 116.885 77.0598 119.326 77.7031V77.7053Z" fill="#29263B"/>
<path d="M178.094 142.752C178.049 142.752 178.004 142.747 177.96 142.736C177.82 142.7 177.699 142.61 177.626 142.486C177.551 142.362 177.53 142.213 177.565 142.073C177.99 140.617 178.752 139.281 179.788 138.173C180.825 137.065 182.109 136.217 183.534 135.697C184.489 135.299 185.528 135.148 186.556 135.257C187.583 135.367 188.568 135.733 189.416 136.324C189.529 136.41 189.604 136.538 189.624 136.68C189.644 136.821 189.608 136.965 189.523 137.079C189.439 137.194 189.312 137.272 189.172 137.294C189.031 137.318 188.886 137.285 188.77 137.202C188.064 136.721 187.248 136.425 186.398 136.342C185.547 136.258 184.689 136.389 183.904 136.724C182.644 137.181 181.51 137.927 180.593 138.902C179.675 139.878 179.001 141.056 178.623 142.34C178.593 142.458 178.525 142.563 178.43 142.637C178.333 142.712 178.216 142.752 178.094 142.752Z" fill="#29263B"/>
<path fill-rule="evenodd" clip-rule="evenodd" d="M18.8176 247.787C17.6304 248.76 15.227 258.487 11.4116 273.113C9.82904 279.175 6.07939 288.756 4.91341 294.807C3.7219 300.99 4.00136 306.349 2.94337 311.263C1.24913 319.131 -0.00585938 324.093 -0.00585938 324.093C7.03158 333.065 43.3059 341.453 54.0018 330.89C54.0018 330.89 56.9379 322.775 57.9222 318.603C58.5789 315.828 55.3685 311.547 56.2893 308.304C57.6099 303.65 56.8307 298.632 58.1426 293.565C62.233 277.765 66.9392 269.827 66.1862 265.86C64.1169 254.966 28.3591 239.967 18.8161 247.787H18.8176Z" fill="#FFC764"/>
<path fill-rule="evenodd" clip-rule="evenodd" d="M58.4125 285.304C47.5597 295.653 17.4224 288.78 11.6363 285.06C11.0708 289.044 11.1584 296.48 13.0642 301.274C14.7949 305.631 26.4634 312.232 46.1216 313.371C47.0701 326.476 8.33393 312.758 4.93304 312.195C7.8385 322.902 36.4654 327.475 55.4705 319.039C56.6796 313.855 46.2259 319.351 53.7923 307.734C55.4253 305.226 41.3293 304.62 42.4048 296.758C42.9892 292.474 56.1228 297.621 58.4125 285.304ZM48.9417 308.828C49.208 313.083 21.7733 308.948 13.7318 288.834C25.2282 303.633 35.1886 300.179 39.6584 301.758C44.1282 303.338 40.1866 307.364 48.9417 308.828Z" fill="#FFB83A"/>
<path fill-rule="evenodd" clip-rule="evenodd" d="M61.6171 260.905C64.0789 262.424 65.5981 267.959 62.5657 267.822C58.9313 267.656 55.4881 262.794 49.6509 262.583C43.8138 262.371 20.3498 258.352 20.3651 248.718C29.1574 242.883 51.9449 252.38 55.3042 256.783C60.1199 263.102 61.6127 264.802 61.6127 260.905H61.6171Z" fill="#F8C500"/>
<path fill-rule="evenodd" clip-rule="evenodd" d="M59.801 174.675C70.0474 161.871 92.708 138.789 100.605 147.742C107.259 155.286 87.6975 166.706 83.1424 175.183C86.587 173.639 93.0655 179.966 88.9007 187.655C95.0757 188.509 97.8849 197.287 95.0159 201.897C101.009 203.93 100.62 215.386 98.0505 218.622C93.3377 224.551 86.9526 227.022 79.5087 223.314C74.8733 240.301 69.7636 249.199 59.4289 249.646C58.4803 249.503 54.5687 257.093 52.862 260.117C40.4303 261.261 23.5303 254.401 24.1074 248.958C24.1074 248.958 46.4754 191.34 59.8046 174.679L59.801 174.675Z" fill="#915939"/>
<path d="M79.538 223.819C79.4504 223.818 79.3651 223.797 79.2877 223.756C79.2104 223.716 79.144 223.657 79.0936 223.586C79.044 223.514 79.0119 223.432 79.0002 223.346C78.9885 223.259 78.998 223.172 79.0272 223.089C80.9389 217.772 84.5587 214.865 88.4878 215.503C88.5586 215.515 88.6264 215.541 88.687 215.578C88.7483 215.616 88.8016 215.665 88.8432 215.724C88.8847 215.781 88.9147 215.848 88.9314 215.917C88.9475 215.987 88.9504 216.059 88.9387 216.13C88.9271 216.201 88.9015 216.269 88.8643 216.329C88.8264 216.39 88.7768 216.444 88.7184 216.485C88.6607 216.527 88.5943 216.557 88.525 216.573C88.455 216.59 88.3827 216.592 88.312 216.581C84.941 216.034 81.7765 218.668 80.0538 223.46C80.0152 223.565 79.9451 223.657 79.8532 223.721C79.7605 223.785 79.6503 223.819 79.538 223.819Z" fill="#29263B"/>
<path fill-rule="evenodd" clip-rule="evenodd" d="M21.0619 32.6895C21.016 23.2927 28.3183 15.1352 44.6623 14.8113C61.0064 14.4875 71.9161 24.7216 69.9628 32.6464C67.4149 42.9855 49.6575 45.8893 49.9457 56.7959C49.9902 58.4552 39.1783 58.305 39.1783 56.6456C38.9295 45.7842 60.4964 40.5326 60.8225 32.4436C61.1071 25.3532 55.3137 21.5093 44.7506 21.5093C37.4118 21.5093 31.2434 25.2883 30.7027 32.6048C30.6108 34.1512 21.0714 34.238 21.0619 32.6895Z" fill="#9290EC"/>
<path fill-rule="evenodd" clip-rule="evenodd" d="M44.5018 61.9504C48.6206 61.9504 51.9646 64.1634 51.9646 66.8921C51.9646 69.6207 48.6206 71.833 44.5018 71.833C40.3829 71.833 37.0404 69.6193 37.0404 66.8921C37.0404 64.1649 40.3844 61.9504 44.5018 61.9504Z" fill="#9290EC"/>
</g>
<defs>
<clipPath id="clip0_321_103">
<rect width="236" height="350" fill="white"/>
</clipPath>
</defs>
</svg>
