<svg width="296" height="350" viewBox="0 0 296 350" fill="none" xmlns="http://www.w3.org/2000/svg">
<g clip-path="url(#clip0_321_54)">
<path fill-rule="evenodd" clip-rule="evenodd" d="M193.632 17.2197C193.586 7.93163 200.808 -0.131793 216.973 -0.451996C233.137 -0.772214 243.926 9.34373 241.994 17.1774C239.475 27.3962 221.912 30.2663 222.198 41.0467C222.241 42.6864 211.549 42.5391 211.549 40.9009C211.303 30.1628 232.632 24.9739 232.954 16.9768C233.236 9.96882 227.507 6.16942 217.06 6.16942C209.802 6.16942 203.7 9.90464 203.167 17.1366C203.075 18.6683 193.64 18.75 193.632 17.2197Z" fill="#9290EC"/>
<path fill-rule="evenodd" clip-rule="evenodd" d="M216.812 46.1416C220.885 46.1416 224.192 48.3298 224.192 51.0285C224.192 53.7273 220.885 55.9118 216.812 55.9118C212.739 55.9118 209.432 53.7236 209.432 51.0285C209.432 48.3334 212.739 46.1416 216.812 46.1416Z" fill="#9290EC"/>
<path d="M185.34 155.468C173.108 207.83 102.026 206.878 104.782 156.094C111.599 157.374 118.298 159.216 124.809 161.604L123.781 143.529C123.781 143.529 104.231 142.397 96.7618 131.979C89.6685 122.088 92.0748 93.9416 94.4811 76.2867C95.6842 67.4975 96.8618 61.3123 96.8618 61.3123C96.8618 61.3123 161.529 64.1919 164.787 67.3224C168.045 70.453 167.444 93.8161 165.789 103.557C173.635 102.18 177.821 105.936 178.698 110.594C180.001 117.605 173.785 126.696 161.253 123.189C159.975 129.701 163.309 158.148 163.309 158.148C163.309 158.148 173.51 156.595 185.34 155.468Z" fill="#FFA775"/>
<path d="M121.925 118.837C121.908 118.837 121.89 118.837 121.872 118.837C120.986 118.77 113.17 118.095 111.547 114.994C109.834 111.723 114.626 89.6841 115.754 86.5944C115.785 86.509 115.833 86.4303 115.895 86.3632C115.956 86.2961 116.03 86.2421 116.113 86.2034C116.195 86.1655 116.285 86.1436 116.376 86.1392C116.466 86.1356 116.558 86.1494 116.643 86.1808C116.728 86.2122 116.807 86.2596 116.874 86.3216C116.942 86.3829 116.996 86.4565 117.034 86.5397C117.072 86.6221 117.094 86.7111 117.099 86.8023C117.102 86.8927 117.088 86.9839 117.057 87.0692C115.433 91.5185 111.522 111.957 112.777 114.348C113.732 116.172 118.927 117.221 121.975 117.452C122.067 117.456 122.156 117.477 122.239 117.515C122.321 117.553 122.397 117.607 122.459 117.673C122.52 117.739 122.569 117.818 122.6 117.904C122.632 117.989 122.647 118.079 122.643 118.17C122.64 118.262 122.619 118.351 122.581 118.434C122.543 118.516 122.489 118.591 122.422 118.653C122.356 118.715 122.277 118.763 122.192 118.795C122.106 118.827 122.016 118.842 121.924 118.838L121.925 118.837Z" fill="#29263B"/>
<path d="M138.061 133.449C137.913 133.45 137.77 133.398 137.658 133.303C134.488 130.642 131.848 129.451 129.804 129.769C129.103 129.909 128.443 130.203 127.87 130.63C127.297 131.057 126.827 131.606 126.494 132.237C126.451 132.306 126.393 132.367 126.326 132.414C126.259 132.462 126.183 132.495 126.102 132.513C126.022 132.532 125.939 132.533 125.858 132.519C125.777 132.505 125.699 132.475 125.63 132.432C125.561 132.388 125.5 132.33 125.453 132.263C125.405 132.196 125.372 132.12 125.353 132.04C125.335 131.96 125.334 131.877 125.347 131.796C125.361 131.715 125.391 131.637 125.435 131.568C125.864 130.785 126.461 130.108 127.183 129.583C127.905 129.058 128.734 128.699 129.611 128.532C132.058 128.156 134.955 129.399 138.463 132.345C138.562 132.427 138.632 132.538 138.665 132.662C138.698 132.786 138.693 132.917 138.648 133.038C138.605 133.159 138.525 133.263 138.42 133.337C138.315 133.41 138.189 133.449 138.061 133.449Z" fill="#29263B"/>
<path d="M153.524 79.4719C153.294 79.4727 153.066 79.4201 152.86 79.3187C152.652 79.2181 152.472 79.0708 152.331 78.8884C149.845 75.666 147.538 73.9453 145.469 73.7746C144.109 73.6652 142.784 74.2247 141.42 75.4931C141.128 75.7644 140.739 75.9088 140.341 75.895C139.942 75.8804 139.565 75.7083 139.294 75.4165C139.022 75.1247 138.878 74.7367 138.892 74.3385C138.906 73.9402 139.078 73.5638 139.37 73.2925C141.361 71.4435 143.49 70.5974 145.716 70.7798C148.701 71.0263 151.644 73.0788 154.711 77.0525C154.882 77.275 154.988 77.5405 155.016 77.8198C155.044 78.0992 154.994 78.3807 154.87 78.6324C154.746 78.884 154.554 79.0963 154.316 79.2451C154.077 79.3931 153.802 79.4719 153.521 79.4719H153.524Z" fill="#29263B"/>
<path d="M99.052 79.3362C98.806 79.3362 98.5628 79.2757 98.3453 79.1597C98.1277 79.0445 97.9423 78.8767 97.805 78.6725C97.6671 78.4682 97.5816 78.2334 97.5568 77.9883C97.5313 77.744 97.5663 77.4967 97.659 77.2684C98.6234 74.895 100.089 73.3508 102.015 72.6791C104.464 71.8242 107.448 72.4201 111.14 74.5025C111.315 74.5981 111.469 74.7272 111.594 74.8825C111.718 75.0386 111.81 75.2166 111.865 75.4084C111.919 75.5995 111.935 75.8001 111.912 75.9978C111.889 76.1955 111.826 76.3866 111.728 76.5594C111.63 76.733 111.499 76.8855 111.341 77.0073C111.184 77.1291 111.004 77.2188 110.812 77.2713C110.619 77.3231 110.419 77.3362 110.221 77.31C110.023 77.2844 109.834 77.2188 109.661 77.1189C106.814 75.5142 104.574 74.9766 103.009 75.5193C101.92 75.8986 101.083 76.8417 100.454 78.4011C100.341 78.679 100.146 78.9168 99.8959 79.0831C99.6463 79.2501 99.352 79.3377 99.052 79.3362Z" fill="#29263B"/>
<path d="M185.64 67.0219C185.805 81.8329 183.457 96.5651 178.697 110.594C177.821 105.936 173.634 102.18 165.789 103.557C167.444 93.8161 168.045 70.4522 164.787 67.3224C161.529 64.1925 96.8618 61.3122 96.8618 61.3122C96.8618 61.3122 95.6842 67.4974 94.4811 76.2866C87.187 77.7395 82.8512 70.903 87.0344 64.3173C79.2899 58.232 81.0442 45.1853 90.2467 43.3837C83.3038 28.4844 95.9112 17.591 106.037 25.1788C106.088 11.2059 126.49 5.59613 132.455 21.7507C138.145 6.65229 157.394 12.5859 156.818 26.4086C168.999 19.297 181.105 27.836 177.747 41.7842C194.714 39.5012 197.396 60.035 185.64 67.0219Z" fill="#FF6B55"/>
<path d="M165.429 119.188C165.389 119.188 165.349 119.184 165.31 119.176C165.148 119.145 165.004 119.05 164.911 118.914C164.818 118.777 164.783 118.61 164.813 118.447C165.748 113.61 168.775 110.899 173.808 110.393C173.973 110.376 174.138 110.426 174.267 110.531C174.395 110.636 174.477 110.788 174.494 110.953C174.511 111.118 174.461 111.284 174.356 111.412C174.251 111.54 174.099 111.622 173.933 111.639C169.454 112.09 166.873 114.394 166.044 118.684C166.016 118.826 165.939 118.954 165.827 119.046C165.715 119.138 165.575 119.188 165.429 119.188Z" fill="#29263B"/>
<path fill-rule="evenodd" clip-rule="evenodd" d="M142.928 89.4514C144.68 89.4514 146.102 92.3865 146.102 95.9999C146.102 99.6133 144.68 102.548 142.928 102.548C141.176 102.548 139.755 99.6133 139.755 95.9999C139.755 92.3865 141.176 89.4514 142.928 89.4514Z" fill="#29263B"/>
<path fill-rule="evenodd" clip-rule="evenodd" d="M103.622 87.4653C105.374 87.4653 106.795 90.3982 106.795 94.0116C106.795 97.625 105.374 100.559 103.622 100.559C101.87 100.559 100.449 97.6272 100.449 94.0116C100.449 90.396 101.87 87.4653 103.622 87.4653Z" fill="#29263B"/>
<path d="M246.196 300.683C246.106 300.683 246.016 300.664 245.933 300.626C245.851 300.588 245.778 300.533 245.719 300.464L240.776 294.668C240.668 294.542 240.616 294.378 240.629 294.212C240.642 294.047 240.721 293.893 240.847 293.785C240.973 293.677 241.138 293.625 241.303 293.638C241.469 293.651 241.622 293.73 241.73 293.856L246.673 299.653C246.75 299.744 246.8 299.855 246.816 299.974C246.832 300.092 246.815 300.212 246.764 300.321C246.715 300.429 246.634 300.521 246.534 300.586C246.433 300.65 246.316 300.685 246.196 300.685V300.683Z" fill="#E58B59"/>
<path d="M216.67 155.12C230.281 158.1 269.03 210.862 269.03 210.862C249.655 214.618 237.2 225.587 230.306 242.289L215.091 225.486L215.041 240.161C170.878 245.144 126.94 244.668 83.3527 237.706H82.9015L83.0519 217.648C76.9479 220.838 70.6722 223.689 64.2535 226.188C67.4614 208.057 62.524 186.897 53.5756 171.672C63.4512 166.664 86.3598 155.596 95.4338 155.295C98.5672 155.256 101.698 155.525 104.779 156.097C102.022 206.882 173.104 207.833 185.336 155.472C196.869 154.341 209.953 153.64 216.67 155.12Z" fill="#6789ED"/>
<path d="M215.042 240.158L214.941 271.485H214.741C172.807 279.223 117.966 276.494 82.876 269.757H82.676L82.9016 237.704H83.3527C126.94 244.666 170.878 245.141 215.042 240.158Z" fill="#C6D3F8"/>
<path d="M214.941 271.485L214.69 341.601C176.954 352.207 132.782 352.374 82.1744 342.102L82.676 269.757H82.876C117.967 276.494 172.807 279.223 214.741 271.485H214.941Z" fill="#6789ED"/>
<path d="M123.781 143.529C132.292 143.51 139.887 142.628 146.439 138.885C140.649 149.035 133.393 153.226 124.391 154.275L123.781 143.529Z" fill="#F08855"/>
<path d="M230.306 242.287C230.306 242.287 248.478 260.594 249.954 265.743C251.43 270.892 241.292 294.413 241.292 294.413C241.292 294.413 224.606 281.344 216.317 280.728C197.712 279.342 187.195 308.617 196.89 310.522C195.696 317.056 197.255 320.291 203.963 320.336C202.366 327.265 205.364 330.08 211.575 330.345C212.232 337.289 221.157 336.187 232.048 321.952C232.048 321.952 243.051 330.16 252.798 328.885C265.03 327.285 296.914 282.496 296.125 264.366C295.336 246.236 269.03 210.86 269.03 210.86C249.655 214.616 237.198 225.584 230.306 242.287Z" fill="#FFA775"/>
<path d="M196.99 311.064C196.921 311.064 196.852 311.052 196.787 311.03C196.63 310.976 196.501 310.862 196.428 310.712C196.355 310.564 196.344 310.391 196.398 310.235C198.233 304.892 204.22 295.708 209.211 290.581C209.269 290.522 209.338 290.475 209.413 290.443C209.489 290.41 209.57 290.393 209.652 290.392C209.735 290.391 209.816 290.406 209.893 290.437C209.97 290.467 210.039 290.513 210.098 290.57C210.157 290.628 210.204 290.696 210.237 290.771C210.269 290.847 210.287 290.929 210.287 291.011C210.289 291.093 210.274 291.175 210.243 291.251C210.212 291.328 210.167 291.397 210.109 291.456C205.222 296.475 199.369 305.441 197.583 310.639C197.54 310.763 197.461 310.871 197.354 310.946C197.248 311.023 197.121 311.064 196.99 311.064Z" fill="#29263B"/>
<path d="M204.134 320.944C204.035 320.944 203.939 320.922 203.851 320.877C203.763 320.833 203.687 320.769 203.628 320.691C203.57 320.611 203.531 320.52 203.515 320.423C203.499 320.327 203.505 320.227 203.534 320.133C205.183 314.809 211.436 304.945 215.928 300.586C216.047 300.47 216.207 300.405 216.374 300.408C216.54 300.41 216.699 300.478 216.816 300.597C216.932 300.716 216.995 300.877 216.994 301.043C216.992 301.208 216.923 301.368 216.804 301.483C212.509 305.656 206.305 315.434 204.735 320.507C204.694 320.634 204.614 320.745 204.506 320.824C204.398 320.903 204.267 320.945 204.134 320.944Z" fill="#29263B"/>
<path d="M211.726 330.931C211.682 330.931 211.639 330.927 211.596 330.917C211.515 330.901 211.439 330.868 211.371 330.821C211.303 330.775 211.245 330.715 211.2 330.647C211.155 330.577 211.125 330.501 211.109 330.42C211.094 330.339 211.096 330.256 211.112 330.176C211.883 326.546 217.404 316.942 223.639 309.521C223.748 309.402 223.899 309.329 224.06 309.319C224.221 309.308 224.38 309.359 224.504 309.463C224.628 309.567 224.707 309.714 224.725 309.874C224.743 310.035 224.698 310.195 224.599 310.324C218.577 317.491 213.065 327.019 212.339 330.432C212.31 330.572 212.233 330.699 212.121 330.79C212.01 330.881 211.87 330.931 211.726 330.931Z" fill="#29263B"/>
<path d="M250.285 266.447C250.141 266.447 250.003 266.397 249.891 266.308C249.78 266.218 249.703 266.093 249.673 265.953C249.642 265.812 249.661 265.667 249.725 265.539C249.79 265.411 249.895 265.309 250.026 265.25L260.167 260.668C260.242 260.635 260.323 260.616 260.405 260.613C260.487 260.61 260.569 260.624 260.646 260.653C260.723 260.682 260.794 260.726 260.854 260.782C260.914 260.838 260.962 260.906 260.996 260.98C261.03 261.055 261.049 261.136 261.051 261.219C261.054 261.3 261.04 261.383 261.011 261.459C260.982 261.536 260.938 261.607 260.881 261.667C260.825 261.726 260.758 261.775 260.683 261.809L250.542 266.392C250.461 266.428 250.374 266.447 250.285 266.447Z" fill="#29263B"/>
<path d="M106.261 38.7251C98.6687 32.89 93.2276 26.7295 86.8111 36.7718C98.6381 42.1554 97.8146 58.7578 91.0454 60.6608C91.1703 66.9715 88.764 71.8548 85.6057 73.4325C85.2305 76.3121 83.2389 79.0444 79.5542 82.0495C76.4967 84.5294 73.1494 85.9532 68.1864 84.6024C67.4089 88.1582 64.8529 92.5156 60.2404 92.8912C52.6959 123.316 49.1624 151.488 48.912 174.05C48.912 174.05 50.6912 173.124 53.5735 171.671C62.5219 186.897 67.4593 208.056 64.2514 226.187C47.4074 232.772 23.4708 239.258 10.8889 229.517C-21.9961 204.075 30.8926 88.183 33.9983 81.5236C39.0109 70.7804 55.9046 39.8549 68.9384 26.8076C85.8817 9.85505 107.914 17.2671 113.428 26.8076C119.119 36.6215 110.071 41.6543 106.261 38.7251Z" fill="#FFA775"/>
<path d="M85.5568 73.9831H85.5239C85.3582 73.9744 85.2027 73.9007 85.091 73.7774C84.98 73.6542 84.9216 73.4923 84.9297 73.3267C85.548 61.4077 82.362 55.0532 73.1756 49.8797C73.0304 49.7981 72.9238 49.6623 72.8785 49.502C72.834 49.3418 72.8544 49.1702 72.9362 49.0252C73.0172 48.8801 73.1537 48.7733 73.3136 48.7284C73.4742 48.6834 73.6458 48.704 73.7911 48.7856C83.4717 54.2363 86.8307 60.9044 86.1832 73.388C86.1751 73.5484 86.1058 73.7001 85.989 73.8103C85.8722 73.9211 85.7174 73.9831 85.5568 73.9831Z" fill="#29263B"/>
<path d="M91.0367 61.3647C90.8776 61.3648 90.725 61.3047 90.6089 61.1963C90.4928 61.0879 90.422 60.9395 90.4118 60.7812C90.1855 56.894 88.9174 53.139 86.7396 49.9097C84.5618 46.6804 81.5554 44.0956 78.0343 42.426C77.9584 42.3912 77.8905 42.3417 77.8343 42.2804C77.7781 42.219 77.7343 42.147 77.7065 42.0687C77.678 41.9904 77.6656 41.9071 77.6707 41.824C77.6751 41.7408 77.6956 41.6595 77.7321 41.5845C77.7686 41.5096 77.8197 41.4427 77.8817 41.3877C77.9445 41.3327 78.0175 41.2907 78.0964 41.2642C78.1752 41.2376 78.2592 41.2271 78.3417 41.2333C78.4249 41.2394 78.5059 41.262 78.5804 41.2999C82.3023 43.0645 85.4802 45.7968 87.7814 49.2103C90.0833 52.6237 91.4237 56.5929 91.6624 60.7017C91.6734 60.867 91.6171 61.0299 91.5076 61.1543C91.3981 61.2788 91.2441 61.3547 91.0784 61.3654C91.0645 61.3659 91.0506 61.3657 91.0367 61.3647Z" fill="#29263B"/>
<path d="M87.0038 37.4903C86.9038 37.4894 86.8052 37.4644 86.7169 37.4173C85.0866 36.6113 83.3856 35.9569 81.6349 35.4626C81.4757 35.4142 81.3421 35.3047 81.264 35.158C81.1859 35.0114 81.1691 34.8397 81.2173 34.6807C81.2655 34.5216 81.375 34.3883 81.5225 34.3101C81.6692 34.2319 81.8408 34.2151 81.9999 34.2634C83.8244 34.7803 85.5969 35.464 87.2958 36.3057C87.4206 36.3706 87.5199 36.4755 87.5776 36.6035C87.636 36.7315 87.6492 36.8753 87.6148 37.0116C87.5813 37.148 87.5031 37.2692 87.3922 37.3556C87.2812 37.442 87.1447 37.4887 87.0038 37.4881V37.4903Z" fill="#29263B"/>
<path d="M68.2193 85.2698C68.182 85.2698 68.1448 85.2661 68.1083 85.2596C68.0273 85.245 67.9491 85.2151 67.8798 85.1706C67.8097 85.1261 67.7498 85.0685 67.7031 85.0006C67.6557 84.9328 67.6228 84.8562 67.6053 84.7752C67.5878 84.695 67.5863 84.6111 67.6016 84.5302C68.2821 79.8621 68.3375 75.1239 67.7681 70.4405C67.7542 70.3121 67.7812 70.183 67.8433 70.0707C67.9061 69.9584 68.0017 69.8672 68.1178 69.811C68.2339 69.7549 68.3638 69.7359 68.4916 69.7563C68.6186 69.7768 68.7362 69.8358 68.8289 69.9256C70.208 71.2064 71.8513 72.1706 73.6436 72.7498C73.8043 72.7928 73.9408 72.8971 74.024 73.0408C74.1072 73.1845 74.1299 73.3559 74.0868 73.5156C74.0444 73.6761 73.9393 73.8132 73.7955 73.8964C73.6517 73.9795 73.4808 74.0021 73.3202 73.9591C71.8236 73.4901 70.4168 72.7724 69.1589 71.8358C69.5925 76.1371 69.483 80.4762 68.8318 84.7504C68.807 84.8949 68.7318 85.0262 68.6201 85.121C68.5076 85.2165 68.366 85.269 68.2193 85.2698Z" fill="#29263B"/>
<path d="M45.1544 187.213C45.0916 187.213 45.0295 187.204 44.9697 187.186C44.8908 187.161 44.8178 187.122 44.7543 187.07C44.6915 187.017 44.639 186.953 44.6003 186.88C44.5623 186.807 44.5382 186.727 44.5309 186.646C44.5229 186.564 44.5316 186.482 44.5557 186.403L48.49 173.661C48.5426 173.507 48.6536 173.38 48.7989 173.305C48.9441 173.232 49.1128 173.217 49.2683 173.265C49.4245 173.313 49.5552 173.42 49.6333 173.563C49.7122 173.706 49.7312 173.873 49.6881 174.03L45.753 186.771C45.7136 186.899 45.634 187.011 45.5267 187.091C45.4187 187.17 45.288 187.213 45.1544 187.213Z" fill="#29263B"/>
</g>
<defs>
<clipPath id="clip0_321_54">
<rect width="296" height="350" fill="white"/>
</clipPath>
</defs>
</svg>
