<svg width="264" height="351" viewBox="0 0 264 351" fill="none" xmlns="http://www.w3.org/2000/svg">
<g clip-path="url(#clip0_213_4)">
<path fill-rule="evenodd" clip-rule="evenodd" d="M231.994 63.6676C213.681 37.1589 166.445 14.2177 136.911 21.3202C118.668 25.7073 121.77 44.0293 114.862 45.9972C107.954 47.9652 71.9344 61.0569 68.5797 81.9554C65.225 102.854 79.8051 104.723 79.3307 111.941C78.8564 119.159 55.5113 143.861 64.8797 161.639C74.2482 179.417 86.28 179.464 86.9731 187.095C87.6661 194.726 98.3601 260.843 120.391 281.644C142.422 302.445 191.338 378.743 204.45 365.571C217.561 352.399 215.332 353.436 225.153 347.447C231.949 343.303 247.804 339.797 255.918 319.001C263.656 299.165 246.631 269.781 248.087 257.264C248.728 251.753 268.048 245.427 263.151 220.898C258.255 196.369 239.207 172.893 239.522 159.103C239.675 152.269 251.355 152.38 254.776 133.15C257.457 118.08 245.533 83.2647 231.996 63.6694L231.994 63.6676Z" fill="#3C39C7"/>
<path fill-rule="evenodd" clip-rule="evenodd" d="M48.23 258.1C41.0436 244.196 35.383 229.66 36.0058 213.43C43.8572 211.87 49.9623 206.571 51.9932 193.029C51.3528 197.299 60.1371 199.585 63.9179 198.114C71.9361 194.99 78.1264 181.406 75.0335 177.354C77.7689 173.16 81.3924 165.35 76.8176 161.414C76.8176 161.414 80.7362 149.252 75.2364 146.641C70.2021 144.252 60.3216 144.607 60.3216 144.607C64.9201 139.692 68.6596 136.152 72.8901 131.729C75.9014 132.455 81.9731 133.406 84.3097 133.229C95.9409 132.35 97.3763 119.739 92.0258 119.104C72.7346 116.824 69.3026 114.101 65.2557 116.55C62.1505 118.427 38.5515 141.155 36.2676 144.621C25.6158 160.734 5.83886 190.039 2.22413 204.431C-3.24241 226.197 9.76983 337.272 40.2012 336.805C59.8068 336.503 75.5623 310.688 80.6185 297.14C75.6747 278.9 63.0412 253.93 48.2318 258.097L48.23 258.1Z" fill="#FFA775"/>
<path d="M52.3569 193.032C52.2822 193.032 52.2084 193.022 52.1364 193.003C51.9185 192.944 51.7323 192.801 51.619 192.605C51.5066 192.41 51.4758 192.177 51.5338 191.959C52.3411 188.867 52.8734 185.708 53.1229 182.523C53.136 182.369 53.1905 182.222 53.281 182.096C53.3715 181.971 53.4944 181.873 53.6359 181.812C53.7773 181.751 53.9336 181.73 54.0865 181.75C54.2393 181.772 54.3834 181.833 54.5038 181.93C56.6348 183.689 59.0461 185.076 61.6375 186.034C61.85 186.109 62.0249 186.266 62.1224 186.47C62.219 186.674 62.2322 186.909 62.1566 187.122C62.0811 187.334 61.9247 187.509 61.7209 187.607C61.5171 187.705 61.2826 187.717 61.07 187.641C58.7835 186.808 56.6278 185.65 54.6715 184.202C54.3852 186.969 53.8862 189.709 53.1782 192.398C53.1299 192.58 53.0227 192.74 52.8743 192.854C52.7258 192.968 52.544 193.031 52.3569 193.032Z" fill="#29263B"/>
<path fill-rule="evenodd" clip-rule="evenodd" d="M116.242 190.625C108.029 186.904 95.5509 178.257 82.8778 185.168C65.0879 194.866 47.7847 258.08 47.7847 258.08C55.6176 256.999 61.9704 269.424 67.4992 278.613C78.1282 326.524 78.1124 366.694 77.2954 406.284C117.924 427.055 179.378 426.665 213.65 406.271C213.65 406.271 213.2 359.692 216.004 345.096C218.631 331.425 242.222 313.352 242.222 313.352C242.222 313.352 266.668 227.898 245.736 202.938C233.035 187.795 214.106 188.681 191.01 197.379C159.721 209.157 128.002 195.953 116.248 190.628L116.242 190.625Z" fill="#FFC764"/>
<path fill-rule="evenodd" clip-rule="evenodd" d="M110.614 91.8745C110.614 91.8745 92.0943 144.244 101.317 160.395C110.54 176.546 136.707 180.368 136.707 180.368L134.627 196.988L115.778 190.459C110.332 210.953 115.389 234.354 128.818 254.579C146.558 241.251 167.369 222.519 191.919 197.207C191.919 197.207 175.125 204.357 171.966 197.365C168.807 190.373 181.694 161.906 181.694 161.906C201.757 175.236 217.548 144.568 192.041 141.207C196.792 121.853 186.291 120.421 185.814 110.986C185.205 98.889 196.715 97.8215 196.455 84.8371C175.988 91.3249 170.265 68.3573 150.437 74.9885C133.82 80.5485 134.706 93.8275 110.614 91.8719V91.8745Z" fill="#FFA775"/>
<path fill-rule="evenodd" clip-rule="evenodd" d="M161.865 177.73C157.254 180.368 144.011 181.561 136.707 180.368L135.477 190.171C147.768 190.756 156.208 185.514 161.865 177.73Z" fill="#F08855"/>
<path fill-rule="evenodd" clip-rule="evenodd" d="M190.652 301.73L184.379 323.217C184.379 323.217 101.24 323.426 94.9307 324.173C75.8293 326.44 51.951 340.411 47.0055 344.145C40.8565 348.785 39.8463 360.036 50.6509 362.601C55.2565 374.873 62.1179 391.87 68.4391 393.447C77.2304 395.645 78.9547 387.902 79.0777 382.367C84.6601 387.765 106.583 386.349 110.888 371.48C124.217 373.4 204.533 374.851 215.004 367.23C225.475 359.61 241.939 313.023 241.939 313.023C229.141 302.219 210.261 299 190.652 301.732V301.73Z" fill="#FFA775"/>
<path d="M191.332 331.977C191.208 331.977 191.085 331.951 190.973 331.898C190.86 331.846 190.761 331.77 190.681 331.675L183.017 322.591C182.945 322.506 182.89 322.406 182.856 322.3C182.822 322.193 182.809 322.081 182.819 321.969C182.829 321.858 182.86 321.749 182.911 321.65C182.962 321.551 183.033 321.463 183.118 321.39C183.204 321.318 183.302 321.263 183.409 321.23C183.516 321.195 183.627 321.183 183.739 321.192C183.85 321.201 183.958 321.233 184.058 321.284C184.157 321.336 184.246 321.406 184.318 321.492L191.982 330.576C192.087 330.7 192.154 330.851 192.175 331.012C192.197 331.173 192.172 331.337 192.104 331.485C192.036 331.631 191.927 331.756 191.79 331.843C191.653 331.93 191.494 331.977 191.332 331.977Z" fill="#29263B"/>
<path d="M75.2339 178.211C75.009 178.211 74.7938 178.122 74.6348 177.963C69.3678 172.8 63.0967 168.775 56.2115 166.137C56.0016 166.053 55.8347 165.887 55.746 165.679C55.6573 165.47 55.6555 165.236 55.7407 165.026C55.825 164.816 55.9893 164.648 56.1975 164.56C56.4057 164.471 56.6402 164.47 56.8502 164.554C63.9461 167.275 70.4069 171.426 75.8339 176.751C75.9533 176.869 76.035 177.021 76.0684 177.187C76.1018 177.353 76.0851 177.524 76.021 177.68C75.9568 177.837 75.8479 177.97 75.7074 178.064C75.5677 178.158 75.4026 178.209 75.2339 178.209V178.211Z" fill="#29263B"/>
<path d="M77.0267 162.191C76.9116 162.191 76.7974 162.168 76.692 162.123C69.2105 158.895 61.273 156.854 53.1633 156.072C53.0518 156.061 52.9446 156.027 52.8462 155.974C52.7478 155.921 52.6609 155.849 52.5906 155.762C52.5194 155.675 52.4667 155.575 52.4351 155.468C52.4035 155.361 52.393 155.248 52.4044 155.136C52.4158 155.025 52.4492 154.917 52.5028 154.819C52.5555 154.72 52.6275 154.633 52.7145 154.563C52.8014 154.492 52.9016 154.439 53.0087 154.407C53.115 154.376 53.2275 154.365 53.339 154.377C61.62 155.175 69.7252 157.259 77.3649 160.556C77.545 160.633 77.6934 160.77 77.7848 160.944C77.8753 161.119 77.9034 161.318 77.8638 161.511C77.8243 161.703 77.7198 161.876 77.5678 162C77.4158 162.124 77.2252 162.191 77.0293 162.191H77.0267Z" fill="#29263B"/>
<path d="M49.9623 145.39C49.7409 145.383 49.531 145.289 49.3773 145.13C49.2235 144.971 49.1375 144.758 49.1375 144.537C49.1375 144.316 49.2235 144.103 49.3773 143.944C49.531 143.785 49.7409 143.692 49.9623 143.685L60.4402 143.641C60.6659 143.641 60.8829 143.729 61.0428 143.889C61.2035 144.048 61.294 144.264 61.2949 144.49C61.2958 144.716 61.207 144.933 61.048 145.093C60.889 145.254 60.673 145.345 60.4472 145.346L49.9684 145.39H49.9623Z" fill="#29263B"/>
<path d="M67.2339 278.848C67.0336 278.848 66.8404 278.777 66.6875 278.649C66.5338 278.52 66.431 278.342 66.3959 278.145C64.1348 265.117 84.1314 230.691 84.9843 229.232C85.0397 229.135 85.1143 229.048 85.2039 228.98C85.2926 228.911 85.3945 228.86 85.5035 228.831C85.6124 228.802 85.7257 228.795 85.8373 228.81C85.9488 228.825 86.056 228.862 86.1535 228.919C86.2501 228.975 86.3353 229.051 86.403 229.141C86.4706 229.231 86.5207 229.333 86.5479 229.442C86.576 229.551 86.5822 229.666 86.5664 229.777C86.5497 229.888 86.5119 229.996 86.4539 230.092C86.2484 230.444 65.918 265.436 68.0737 277.853C68.1123 278.075 68.0605 278.304 67.9305 278.49C67.8005 278.674 67.6029 278.8 67.3806 278.839C67.3323 278.846 67.2831 278.849 67.2339 278.848Z" fill="#29263B"/>
<path d="M186.189 303.261C186.057 303.261 185.927 303.231 185.809 303.172C185.692 303.114 185.589 303.029 185.509 302.923C185.43 302.819 185.375 302.696 185.352 302.566C185.327 302.437 185.333 302.303 185.369 302.177C190.201 285.184 192.971 270.744 193.855 258.034C193.861 257.921 193.889 257.811 193.938 257.71C193.987 257.609 194.056 257.518 194.141 257.444C194.225 257.371 194.325 257.315 194.431 257.28C194.538 257.245 194.652 257.232 194.763 257.242C194.875 257.25 194.984 257.279 195.084 257.329C195.184 257.379 195.273 257.449 195.346 257.533C195.42 257.618 195.476 257.715 195.512 257.822C195.548 257.928 195.562 258.04 195.554 258.151C194.684 270.663 192.006 284.811 187.368 301.365L190.712 300.847C190.822 300.829 190.935 300.835 191.044 300.861C191.153 300.887 191.255 300.935 191.345 301.001C191.436 301.067 191.512 301.15 191.571 301.245C191.629 301.341 191.668 301.447 191.685 301.558C191.703 301.668 191.697 301.781 191.671 301.89C191.646 301.999 191.598 302.101 191.531 302.192C191.465 302.282 191.383 302.359 191.287 302.418C191.192 302.476 191.086 302.514 190.975 302.532L186.32 303.252C186.277 303.258 186.233 303.262 186.189 303.261Z" fill="#29263B"/>
<path d="M125.55 137.992C125.453 137.992 125.355 137.975 125.263 137.943C124.963 137.834 117.92 135.254 118.106 130.705C118.277 126.508 125.352 114.713 129.233 111.283C129.317 111.209 129.414 111.152 129.521 111.116C129.626 111.079 129.739 111.064 129.85 111.071C129.962 111.078 130.071 111.107 130.171 111.156C130.272 111.205 130.361 111.274 130.435 111.357C130.509 111.441 130.566 111.539 130.602 111.645C130.639 111.75 130.654 111.863 130.647 111.975C130.64 112.086 130.611 112.195 130.562 112.296C130.512 112.397 130.444 112.486 130.36 112.56C126.856 115.657 119.959 127.069 119.807 130.774C119.695 133.515 124.123 135.72 125.837 136.338C126.026 136.406 126.184 136.537 126.285 136.712C126.386 136.885 126.422 137.088 126.388 137.286C126.354 137.484 126.251 137.663 126.097 137.791C125.945 137.921 125.75 137.992 125.55 137.992Z" fill="#29263B"/>
<path d="M141.613 154.118C141.453 154.118 141.297 154.073 141.162 153.988C141.025 153.903 140.916 153.782 140.847 153.638C140.34 152.457 139.605 151.388 138.683 150.493C137.763 149.598 136.674 148.894 135.48 148.421C134.734 148.151 133.941 148.034 133.149 148.076C132.357 148.116 131.581 148.316 130.866 148.661C130.664 148.763 130.431 148.779 130.216 148.708C130.002 148.637 129.825 148.483 129.724 148.281C129.622 148.079 129.606 147.845 129.677 147.631C129.749 147.416 129.902 147.239 130.104 147.138C131.019 146.691 132.015 146.431 133.033 146.374C134.05 146.318 135.068 146.465 136.027 146.808C137.435 147.351 138.721 148.169 139.811 149.214C140.902 150.257 141.775 151.509 142.378 152.893C142.441 153.023 142.47 153.166 142.462 153.311C142.455 153.455 142.411 153.595 142.334 153.717C142.258 153.839 142.151 153.94 142.025 154.01C141.899 154.081 141.757 154.118 141.613 154.118Z" fill="#29263B"/>
<path d="M174.18 106.779C173.734 106.779 173.302 106.633 172.947 106.364C172.593 106.095 172.335 105.718 172.214 105.289C171.072 101.232 169.366 98.5487 167.15 97.315C165.197 96.229 162.703 96.1464 159.524 97.0626C159.007 97.2016 158.456 97.1312 157.99 96.8683C157.524 96.6045 157.18 96.1683 157.031 95.6539C156.884 95.1395 156.942 94.5864 157.197 94.1151C157.451 93.6437 157.881 93.2911 158.392 93.1328C162.608 91.915 166.225 92.1198 169.135 93.7396C172.385 95.5475 174.676 98.962 176.147 104.178C176.233 104.483 176.247 104.803 176.188 105.113C176.129 105.423 176 105.716 175.809 105.968C175.619 106.22 175.372 106.424 175.09 106.565C174.807 106.706 174.495 106.779 174.18 106.779Z" fill="#29263B"/>
<path d="M114.892 100.774C114.527 100.773 114.167 100.675 113.853 100.488C113.538 100.301 113.28 100.034 113.104 99.7129C112.928 99.3919 112.841 99.0305 112.852 98.6647C112.864 98.2989 112.973 97.9428 113.169 97.6332C117.568 90.6864 122.715 91.4347 126.257 93.284C126.738 93.5346 127.099 93.9664 127.261 94.4843C127.425 95.0014 127.375 95.5624 127.124 96.0434C126.874 96.5244 126.443 96.8858 125.925 97.0485C125.409 97.2111 124.848 97.1619 124.368 96.9113C122.065 95.7084 119.536 95.2282 116.622 99.8237C116.437 100.116 116.182 100.356 115.879 100.522C115.576 100.688 115.237 100.775 114.892 100.774Z" fill="#29263B"/>
<path fill-rule="evenodd" clip-rule="evenodd" d="M163.097 104.594C165.113 105.11 165.913 108.804 164.884 112.837C163.854 116.871 161.379 119.727 159.365 119.211C157.352 118.695 156.549 115 157.579 110.968C158.61 106.935 161.082 104.078 163.097 104.594Z" fill="#29263B"/>
<path fill-rule="evenodd" clip-rule="evenodd" d="M119.828 101.681C121.686 102.043 122.605 105.356 121.884 109.073C121.162 112.79 119.065 115.511 117.208 115.148C115.351 114.786 114.431 111.475 115.152 107.762C115.873 104.048 117.971 101.321 119.828 101.684V101.681Z" fill="#29263B"/>
<path d="M188.705 157.772C188.532 157.772 188.361 157.726 188.212 157.639C187.985 157.508 187.819 157.293 187.752 157.039C187.683 156.785 187.718 156.515 187.849 156.288C190.581 151.54 194.914 149.326 200.73 149.701C200.861 149.707 200.99 149.739 201.109 149.795C201.228 149.852 201.334 149.932 201.422 150.029C201.51 150.127 201.576 150.242 201.619 150.366C201.662 150.49 201.68 150.622 201.672 150.753C201.663 150.884 201.629 151.012 201.57 151.13C201.512 151.248 201.431 151.353 201.331 151.438C201.232 151.524 201.116 151.589 200.991 151.63C200.867 151.671 200.735 151.686 200.604 151.675C195.527 151.343 191.919 153.181 189.561 157.276C189.475 157.427 189.35 157.552 189.199 157.639C189.049 157.726 188.879 157.772 188.705 157.772Z" fill="#494645"/>
<path fill-rule="evenodd" clip-rule="evenodd" d="M5.7448 21.372C5.68946 9.95023 14.5528 0.033871 34.3921 -0.360075C54.2314 -0.754021 67.4737 11.6861 65.1019 21.3201C62.009 33.8877 40.4532 37.4165 40.8046 50.6744C40.8573 52.6916 27.7336 52.5096 27.7336 50.4915C27.4314 37.2855 53.6112 30.905 54.0065 21.073C54.3526 12.4555 47.3199 7.78177 34.4984 7.78177C25.5894 7.78177 18.1025 12.3755 17.4463 21.2691C17.3339 23.1492 5.7527 23.2547 5.74304 21.372H5.7448Z" fill="#9290EC"/>
<path fill-rule="evenodd" clip-rule="evenodd" d="M34.1981 56.94C39.1981 56.94 43.2564 59.6308 43.2564 62.9468C43.2564 66.2628 39.1981 68.9527 34.1981 68.9527C29.1981 68.9527 25.1406 66.2619 25.1406 62.9468C25.1406 59.6317 29.199 56.94 34.1981 56.94Z" fill="#9290EC"/>
</g>
<defs>
<clipPath id="clip0_213_4">
<rect width="263" height="350" fill="white" transform="translate(0.977295 0.0541992)"/>
</clipPath>
</defs>
</svg>
