<svg width="101" height="100" viewBox="0 0 101 100" fill="none" xmlns="http://www.w3.org/2000/svg">
<g clip-path="url(#clip0_292_14)">
<path d="M50.1429 100.148C77.8385 100.148 100.29 77.6957 100.29 50C100.29 22.3043 77.8385 -0.147461 50.1429 -0.147461C22.4472 -0.147461 -0.00463867 22.3043 -0.00463867 50C-0.00463867 77.6957 22.4472 100.148 50.1429 100.148Z" fill="#F7F7FC"/>
<path d="M26.9624 52.7862L24.1468 55.2795C24.8252 56.0458 25.7865 56.5021 26.8089 56.5437C27.8314 56.5858 28.8267 56.2092 29.5654 55.5006L26.9624 52.7862ZM37.7015 47.7002C39.2009 46.2625 39.251 43.8815 37.8134 42.3821C36.3758 40.8832 33.995 40.833 32.4957 42.2702L37.7015 47.7002ZM22.87 42.4919C21.4928 40.9368 19.1158 40.7924 17.5608 42.1694C16.0058 43.5465 15.8615 45.9235 17.2386 47.4786L22.87 42.4919ZM64.8445 35.0024C66.2552 36.5272 68.6347 36.6198 70.1592 35.2092C71.6842 33.7987 71.7769 31.4191 70.3663 29.8943L64.8445 35.0024ZM50.362 21.1652C35.3895 21.1652 23.2014 33.2156 23.2014 48.1425H30.7235C30.7235 37.4255 39.488 28.6873 50.362 28.6873V21.1652ZM23.2014 48.1425V52.7862H30.7235V48.1425H23.2014ZM29.5654 55.5006L37.7015 47.7002L32.4957 42.2702L24.3595 50.0712L29.5654 55.5006ZM29.7781 50.2923L22.87 42.4919L17.2386 47.4786L24.1468 55.2795L29.7781 50.2923ZM70.3663 29.8943C65.4032 24.5296 58.2727 21.1652 50.362 21.1652V28.6873C56.0998 28.6873 61.2525 31.1196 64.8445 35.0024L70.3663 29.8943Z" fill="url(#paint0_linear_292_14)"/>
<path d="M73.305 47.2133L76.1167 44.7154C75.4372 43.9507 74.4759 43.4959 73.4539 43.4552C72.4319 43.4146 71.4375 43.7922 70.6998 44.5008L73.305 47.2133ZM62.5819 52.2972C61.0835 53.736 61.0359 56.117 62.4746 57.6149C63.9133 59.1133 66.2943 59.1614 67.7922 57.7227L62.5819 52.2972ZM77.4196 57.5081C78.7991 59.0606 81.1766 59.2011 82.7292 57.8215C84.2822 56.4419 84.4227 54.0649 83.0431 52.5119L77.4196 57.5081ZM35.3337 65.0678C33.9122 63.5534 31.5321 63.4776 30.0174 64.8993C28.5028 66.3205 28.4273 68.701 29.8488 70.2155L35.3337 65.0678ZM49.8159 78.8343C64.824 78.8343 77.066 66.7974 77.066 51.857H69.5439C69.5439 62.5604 60.753 71.3122 49.8159 71.3122V78.8343ZM77.066 51.857V47.2133H69.5439V51.857H77.066ZM70.6998 44.5008L62.5819 52.2972L67.7922 57.7227L75.9101 49.9263L70.6998 44.5008ZM70.4932 49.7116L77.4196 57.5081L83.0431 52.5119L76.1167 44.7154L70.4932 49.7116ZM29.8488 70.2155C34.8249 75.5175 41.9362 78.8343 49.8159 78.8343V71.3122C44.085 71.3122 38.9372 68.9076 35.3337 65.0678L29.8488 70.2155Z" fill="url(#paint1_linear_292_14)"/>
</g>
<defs>
<linearGradient id="paint0_linear_292_14" x1="43.8298" y1="21.1652" x2="43.8298" y2="56.5469" gradientUnits="userSpaceOnUse">
<stop stop-color="#7A77F3"/>
<stop offset="1" stop-color="#3F3BD4"/>
</linearGradient>
<linearGradient id="paint1_linear_292_14" x1="56.4113" y1="43.4523" x2="56.4113" y2="78.8343" gradientUnits="userSpaceOnUse">
<stop stop-color="#7A77F3"/>
<stop offset="1" stop-color="#3F3BD4"/>
</linearGradient>
<clipPath id="clip0_292_14">
<rect width="100" height="100" fill="white" transform="translate(0.142822)"/>
</clipPath>
</defs>
</svg>
