<svg width="259" height="350" viewBox="0 0 259 350" fill="none" xmlns="http://www.w3.org/2000/svg">
<g clip-path="url(#clip0_71_55)">
<path fill-rule="evenodd" clip-rule="evenodd" d="M110.938 142.648C129.467 141.641 171.833 148.756 200.234 190.324C192.816 207.357 183.619 227.218 176.359 242.919C182.918 277.683 186.164 320.285 184.214 331.185C140.796 340.015 100.576 341.591 60.1438 337.08C40.628 334.902 9.82221 304.392 -0.321533 274.085C-0.321533 274.085 -0.321533 205.596 17.9141 183.348C32.964 164.986 46.5833 153.196 66.7987 148.376C71.9367 147.152 95.2628 143.5 110.935 142.648H110.938Z" fill="#A957E1"/>
<path fill-rule="evenodd" clip-rule="evenodd" d="M175.773 238.872C173.155 224.898 160.14 222.12 165.558 222.546C171.742 223.036 174.045 223.386 170.736 218.528C167.194 213.324 161.313 210.248 163.928 208.508C167.201 206.334 166.245 203.056 162.419 196.612C168.102 199.699 171.489 205.085 173.115 213.226C174.193 218.626 186.465 209.431 181.597 216.791C179.603 219.8 185.972 223.793 183.733 228.507C181.493 233.221 178.333 236.317 175.773 238.875V238.872Z" fill="#A046DE"/>
<path fill-rule="evenodd" clip-rule="evenodd" d="M69.7896 225.501C65.6243 211.074 47.1666 206.265 41.4649 208.334C36.9291 209.98 57.4161 211.668 61.3994 224.185C62.7377 228.39 52.2102 222.139 51.367 225.645C50.423 229.585 65.2111 232.802 65.8007 236.398C66.3904 239.994 54.3741 241.367 53.1184 245.741C50.4937 254.871 29.9878 248.471 34.1279 252.814C38.4627 257.362 58.629 255.613 64.6873 248.96C53.8145 268.949 41.1742 266.55 38.2078 268.88C29.6551 275.592 55.9644 266.678 56.1353 269.781C56.3622 274.012 48.6639 279.452 37.0432 283.971C57.9967 288.055 59.2005 337.796 59.4176 337.404C74.4648 317.771 101.836 319.312 95.6696 317.025C82.9628 312.315 64.0122 327.778 64.5388 322.516C66.4219 303.703 86.3711 302.68 82.3402 299.062C76.2064 293.562 70.7154 296.156 72.3905 290.466C75.4774 279.96 94.1073 280.057 91.7095 277.513C89.3117 274.968 69.471 283.88 68.2034 278.11C66.5535 270.589 77.455 267.379 73.3436 261.484C69.506 255.978 65.029 258.517 66.4807 254.989C71.0116 243.946 83.1848 245.389 78.6392 242.259C74.908 239.692 66.7545 251.584 67.2006 248.464C68.3519 240.392 69.8981 231.584 76.9165 216.625C73.4899 220.188 71.5543 222.369 69.7917 225.508L69.7896 225.501Z" fill="#A046DE"/>
<path fill-rule="evenodd" clip-rule="evenodd" d="M160.732 246.51C147.655 237.087 94.6333 247.876 102.412 238.964C112.057 227.916 136.568 227.006 137.805 224.018C138.675 221.91 123.263 215.177 106.846 222.74C100.434 225.695 106.676 216.637 121.323 212.154C130.3 209.408 129.552 201.183 120.322 197.335C144.703 204.905 121.891 212.491 128.705 215.639C135.518 218.787 143.193 220.596 150.449 226.632C157.704 232.668 107.456 230.849 115.775 235.449C124.094 240.049 147.778 233.56 160.734 246.505L160.732 246.51Z" fill="#A046DE"/>
<path fill-rule="evenodd" clip-rule="evenodd" d="M167.503 64.5611C175.657 78.9202 186.341 117.92 168.742 136.519C158.837 146.989 141.684 148.374 141.748 148.511C150.671 167.522 142.168 189.015 118.849 189.237C98.0379 189.432 74.0207 167.934 66.7426 148.352C75.6062 146.456 86.3704 145.39 87.0167 141.125C87.9866 134.72 86.7926 132.635 86.5566 132.55C59.3671 133.694 66.218 102.327 83.3073 110.507C82.4669 95.2596 78.4949 64.3575 88.9145 55.5895C111.124 36.901 159.261 50.0551 167.5 64.5604L167.503 64.5611Z" fill="#FFBF9B"/>
<path fill-rule="evenodd" clip-rule="evenodd" d="M63.7453 277.95C39.8654 288.427 7.79194 283.678 -0.318848 274.085C-0.200498 290.157 0.53831 309.103 0.956385 327.738C4.75337 343.656 33.5774 347.732 60.1465 337.08C59.8328 322.658 62.0373 293.75 63.7453 277.95Z" fill="#FFBF9B"/>
<path fill-rule="evenodd" clip-rule="evenodd" d="M209.844 151.253C214.075 158.236 221.119 177.818 224.386 193.371C227.654 208.923 233.013 267.748 199.7 269.26C172.211 270.507 175.579 238.038 175.579 238.038C180.722 227.827 184.353 219.677 187.247 202.98C180.754 202.803 177.111 197.839 174.826 190.595C162.564 195.535 149.982 173.854 164.793 165.333C164.216 160.73 167.168 156.146 174.17 155.568C173.509 151.661 175.563 147.673 183.771 147.178C176.594 135.772 163.532 137.195 166.316 129.508C169.058 121.936 192.887 123.28 209.844 151.255V151.253Z" fill="#FFBF9B"/>
<path d="M196.528 154.993C196.435 154.993 196.344 154.971 196.262 154.93C196.179 154.889 196.108 154.828 196.053 154.754C192.954 150.867 188.449 148.356 183.511 147.763C183.434 147.757 183.358 147.735 183.289 147.7C183.221 147.664 183.159 147.615 183.11 147.557C183.059 147.498 183.021 147.429 182.997 147.356C182.974 147.282 182.965 147.204 182.972 147.127C182.985 146.971 183.059 146.827 183.178 146.726C183.238 146.676 183.306 146.638 183.38 146.614C183.453 146.591 183.531 146.582 183.608 146.588C188.881 147.221 193.692 149.903 197.002 154.053C197.048 154.115 197.082 154.185 197.1 154.261C197.119 154.336 197.122 154.414 197.111 154.491C197.099 154.568 197.073 154.641 197.033 154.707C196.993 154.774 196.94 154.831 196.878 154.878C196.777 154.953 196.654 154.994 196.528 154.993Z" fill="#29263B"/>
<path d="M187.416 161.03C187.275 161.031 187.14 160.981 187.033 160.89C182.982 157.425 178.595 155.818 174.004 156.132C173.925 156.138 173.847 156.129 173.772 156.105C173.698 156.081 173.628 156.042 173.569 155.991C173.509 155.94 173.461 155.878 173.426 155.808C173.391 155.738 173.37 155.661 173.365 155.583C173.359 155.505 173.37 155.426 173.395 155.352C173.421 155.278 173.461 155.21 173.513 155.151C173.565 155.093 173.628 155.046 173.699 155.011C173.77 154.978 173.847 154.958 173.925 154.955C178.84 154.628 183.507 156.323 187.8 159.993C187.892 160.071 187.957 160.175 187.988 160.292C188.018 160.409 188.012 160.532 187.969 160.645C187.928 160.758 187.853 160.856 187.754 160.924C187.654 160.993 187.537 161.03 187.416 161.03Z" fill="#29263B"/>
<path d="M177.275 167.886C177.151 167.886 177.031 167.847 176.93 167.774C174.944 166.341 169.821 163.28 165.142 165.776C165.004 165.85 164.842 165.866 164.692 165.82C164.543 165.775 164.417 165.672 164.344 165.534C164.27 165.396 164.254 165.235 164.3 165.085C164.345 164.936 164.448 164.81 164.586 164.736C168.298 162.757 173.045 163.516 177.621 166.818C177.722 166.891 177.798 166.995 177.836 167.113C177.875 167.232 177.875 167.359 177.837 167.478C177.798 167.596 177.724 167.7 177.623 167.773C177.522 167.847 177.4 167.886 177.275 167.886Z" fill="#29263B"/>
<path d="M174.759 190.996C174.629 190.996 174.502 190.952 174.399 190.872C174.296 190.793 174.222 190.681 174.189 190.556C172.579 184.398 170.198 181.503 166.458 181.162C166.302 181.148 166.158 181.072 166.058 180.952C165.958 180.832 165.91 180.677 165.924 180.522C165.938 180.366 166.014 180.222 166.134 180.122C166.254 180.022 166.409 179.974 166.565 179.988C172.149 180.497 174.242 186.093 175.331 190.257C175.37 190.409 175.348 190.569 175.269 190.704C175.191 190.839 175.062 190.937 174.911 190.977C174.861 190.989 174.81 190.996 174.759 190.996Z" fill="#29263B"/>
<path d="M145.21 162.705C125.165 161.923 112.557 153.543 103.752 141.278C114.998 147.075 127.898 149.303 141.748 148.51C144.318 154.332 144.966 157.749 145.21 162.705Z" fill="#EA9465"/>
<path d="M157.815 112.598C157.728 112.598 157.642 112.579 157.563 112.541C157.422 112.474 157.313 112.354 157.26 112.207C157.208 112.059 157.216 111.898 157.283 111.756C158.806 108.537 159.119 105.906 158.241 103.703C157.319 101.388 155.077 99.5658 151.386 98.1299C151.314 98.1019 151.248 98.0599 151.192 98.0061C151.136 97.9529 151.091 97.8885 151.061 97.8178C151.029 97.7472 151.012 97.6709 151.01 97.5932C151.009 97.5162 151.022 97.4393 151.051 97.3665C151.079 97.2944 151.121 97.2286 151.174 97.1727C151.228 97.1167 151.292 97.0719 151.363 97.0411C151.434 97.0096 151.51 96.9928 151.587 96.9914C151.665 96.9893 151.742 97.0033 151.814 97.0313C155.827 98.5918 158.288 100.632 159.337 103.267C160.329 105.756 159.996 108.782 158.35 112.26C158.302 112.362 158.227 112.447 158.132 112.507C158.037 112.567 157.927 112.598 157.815 112.598Z" fill="#29263B"/>
<path d="M132.195 126.147C132.083 126.147 131.973 126.115 131.878 126.055C131.784 125.995 131.709 125.91 131.661 125.808C131.613 125.707 131.595 125.594 131.61 125.483C131.624 125.372 131.669 125.267 131.741 125.181C134.587 121.752 137.396 119.946 140.091 119.804C142.207 119.692 144.267 120.597 146.212 122.492C146.319 122.603 146.378 122.75 146.378 122.903C146.377 123.056 146.317 123.204 146.21 123.313C146.102 123.423 145.957 123.486 145.803 123.491C145.65 123.495 145.502 123.44 145.388 123.336C143.689 121.68 141.929 120.887 140.154 120.981C137.801 121.105 135.275 122.771 132.649 125.934C132.594 126.001 132.525 126.055 132.446 126.092C132.367 126.128 132.282 126.147 132.195 126.147Z" fill="#29263B"/>
<path d="M115.601 85.2573C115.247 85.2573 114.899 85.1761 114.582 85.02C114.265 84.8633 113.988 84.6366 113.773 84.356C113.558 84.0754 113.411 83.7493 113.342 83.4029C113.274 83.0565 113.286 82.6989 113.378 82.3582C114.578 77.914 116.683 74.8945 119.632 73.3837C122.595 71.8667 126.304 71.9261 130.658 73.5608C130.941 73.6671 131.201 73.8281 131.421 74.0338C131.642 74.2402 131.82 74.488 131.944 74.763C132.07 75.038 132.139 75.3347 132.149 75.6363C132.159 75.9379 132.109 76.2388 132.003 76.5215C131.897 76.8042 131.736 77.0631 131.53 77.2835C131.323 77.5039 131.075 77.6817 130.8 77.8062C130.525 77.9315 130.228 78.0007 129.926 78.0105C129.624 78.0203 129.323 77.9714 129.04 77.865C125.95 76.7041 123.491 76.5732 121.732 77.4752C119.985 78.3702 118.669 80.4142 117.821 83.5568C117.69 84.0446 117.401 84.4756 116.999 84.7828C116.598 85.09 116.106 85.2566 115.601 85.2573Z" fill="#B18B00"/>
<path d="M164.756 82.3517C164.28 82.3517 163.816 82.2041 163.426 81.9291C163.038 81.6541 162.744 81.2657 162.585 80.8171C161.349 77.3183 159.264 76.2225 155.383 77.0468C155.086 77.1133 154.779 77.121 154.479 77.0678C154.179 77.0153 153.893 76.9034 153.636 76.7389C153.38 76.5752 153.159 76.3618 152.985 76.1113C152.812 75.8614 152.69 75.5787 152.627 75.2813C152.564 74.984 152.56 74.6768 152.617 74.378C152.673 74.0785 152.788 73.7937 152.956 73.5396C153.123 73.2856 153.339 73.0673 153.592 72.8973C153.844 72.7265 154.128 72.6083 154.426 72.5488C160.589 71.2423 164.906 73.5711 166.925 79.2868C167.048 79.6339 167.085 80.0047 167.034 80.3693C166.983 80.7332 166.845 81.0803 166.633 81.3805C166.42 81.6799 166.139 81.9249 165.812 82.0942C165.485 82.2635 165.123 82.3517 164.754 82.3517H164.756Z" fill="#B18B00"/>
<path fill-rule="evenodd" clip-rule="evenodd" d="M125.358 83.8815C123.467 83.8815 121.938 86.7323 121.938 90.2437C121.938 93.7551 123.47 96.6059 125.358 96.6059C127.246 96.6059 128.778 93.7551 128.778 90.2437C128.778 86.7323 127.244 83.8815 125.358 83.8815Z" fill="#0014FF"/>
<path fill-rule="evenodd" clip-rule="evenodd" d="M161.023 81.7368C159.137 81.7368 157.604 84.5876 157.604 88.099C157.604 91.6104 159.137 94.4612 161.023 94.4612C162.909 94.4612 164.443 91.6104 164.443 88.099C164.443 84.5876 162.911 81.7368 161.023 81.7368Z" fill="#0014FF"/>
<path d="M83.1113 127.485C82.9663 127.485 82.8263 127.431 82.7184 127.334C82.6099 127.238 82.5412 127.105 82.5251 126.961C82.0875 123.024 80.6014 118.359 72.9311 117.21C72.7764 117.187 72.637 117.103 72.5446 116.978C72.4514 116.852 72.4122 116.694 72.4353 116.54C72.4584 116.385 72.5425 116.246 72.6678 116.154C72.7939 116.06 72.9514 116.021 73.1062 116.044C81.6652 117.326 83.2492 122.814 83.696 126.83C83.7135 126.985 83.668 127.141 83.5707 127.264C83.4726 127.385 83.3305 127.464 83.175 127.481C83.1547 127.483 83.133 127.485 83.1113 127.485Z" fill="#29263B"/>
<path fill-rule="evenodd" clip-rule="evenodd" d="M83.2906 110.534C95.6241 91.6307 98.7937 74.2528 92.3839 58.6657C135.385 74.0338 175.42 79.6627 190.815 63.429C197.196 56.7008 199.936 39.1228 191.287 28.2185C189.066 32.3407 181.365 33.0902 173.967 30.9314C151.499 24.3761 98.933 -5.14049 69.8344 45.3157C51.2375 63.1127 55.3125 88.8596 68.333 118.854C68.992 111.425 75.469 106.643 83.2885 110.534H83.2906Z" fill="#E1B100"/>
<path d="M163.872 69.7546C163.636 69.755 163.41 69.6644 163.239 69.5018C163.069 69.3392 162.968 69.1172 162.957 68.8821C162.947 68.6469 163.028 68.4168 163.183 68.2397C163.338 68.0627 163.556 67.9523 163.791 67.9317C179.102 66.5399 186.434 59.4325 186.2 46.2035C186.197 46.0835 186.218 45.9642 186.262 45.8524C186.306 45.7407 186.371 45.6387 186.455 45.5522C186.538 45.4659 186.638 45.3968 186.748 45.3491C186.858 45.3014 186.977 45.276 187.097 45.2742H187.114C187.353 45.2742 187.583 45.3683 187.753 45.5362C187.923 45.7041 188.021 45.9322 188.024 46.1713C188.272 60.3429 180.172 68.276 163.95 69.7532C163.926 69.7541 163.9 69.7546 163.872 69.7546ZM152.527 67.3104C152.304 67.3167 152.086 67.2407 151.915 67.0971C151.744 66.9535 151.632 66.7522 151.601 66.5314C151.568 66.3105 151.619 66.0857 151.742 65.8996C151.865 65.7134 152.052 65.579 152.268 65.5218C164.353 61.939 170.476 55.6034 170.975 46.1517C170.98 46.0315 171.009 45.9135 171.06 45.8047C171.111 45.6958 171.184 45.5983 171.274 45.5178C171.364 45.4374 171.468 45.3756 171.582 45.3362C171.695 45.2968 171.816 45.2805 171.936 45.2882C172.056 45.2941 172.174 45.3237 172.282 45.3752C172.391 45.4268 172.488 45.4992 172.569 45.5885C172.649 45.6777 172.711 45.782 172.751 45.8952C172.79 46.0085 172.808 46.1284 172.801 46.2483C172.259 56.4235 165.526 63.4967 152.788 67.2726C152.704 67.2975 152.617 67.3102 152.529 67.3104H152.527ZM140.902 65.0235C140.668 65.0352 140.439 64.9565 140.262 64.8037C140.085 64.6509 139.973 64.4357 139.95 64.2029C139.928 63.9701 139.996 63.7375 140.14 63.5535C140.285 63.3695 140.495 63.2481 140.726 63.2147C145.451 62.2826 149.194 59.0567 150.263 54.9946C150.827 52.6458 150.598 50.1767 149.613 47.9711C149.516 47.7484 149.512 47.4965 149.602 47.2708C149.691 47.045 149.867 46.864 150.089 46.7675C150.312 46.671 150.564 46.667 150.79 46.7562C151.016 46.8454 151.197 47.0206 151.294 47.2434C152.442 49.8253 152.701 52.7141 152.034 55.4592C150.789 60.1931 146.491 63.9403 141.084 65.0067C141.023 65.0185 140.962 65.0241 140.901 65.0235H140.902Z" fill="#B18B00"/>
<path fill-rule="evenodd" clip-rule="evenodd" d="M213.451 23.7665C213.409 15.0195 220.208 7.42644 235.428 7.12484C250.647 6.82325 260.807 16.3491 258.988 23.7266C256.615 33.3497 240.08 36.0529 240.348 46.205C240.389 47.7494 230.321 47.6101 230.321 46.0651C230.089 35.9521 250.173 31.0664 250.476 23.5377C250.742 16.9376 245.347 13.359 235.51 13.359C228.676 13.359 222.932 16.8774 222.429 23.6875C222.343 25.1269 213.459 25.2073 213.451 23.7665Z" fill="#9290EC"/>
<path fill-rule="evenodd" clip-rule="evenodd" d="M235.279 51.0025C239.114 51.0025 242.228 53.0633 242.228 55.6027C242.228 58.1422 239.114 60.2015 235.279 60.2015C231.443 60.2015 228.33 58.1408 228.33 55.6027C228.33 53.0647 231.445 51.0025 235.279 51.0025Z" fill="#9290EC"/>
</g>
<defs>
<clipPath id="clip0_71_55">
<rect width="259" height="350" fill="white"/>
</clipPath>
</defs>
</svg>
