<svg width="194" height="350" viewBox="0 0 194 350" fill="none" xmlns="http://www.w3.org/2000/svg">
<g clip-path="url(#clip0_321_36)">
<path fill-rule="evenodd" clip-rule="evenodd" d="M139.834 228.838C139.834 228.838 161.193 215.749 161.735 212.448C162.278 209.148 146.989 185.185 146.989 185.185L158.699 162.725C158.699 162.725 193.723 201.691 192.635 214.399C191.546 227.107 154.956 257.344 154.956 257.344C154.956 257.344 139.528 228.936 139.834 228.838Z" fill="#FFA775"/>
<path d="M162.328 213.134C162.136 213.134 161.951 213.067 161.803 212.945C161.656 212.822 161.556 212.652 161.521 212.463C161.486 212.275 161.519 212.08 161.613 211.913C161.707 211.747 161.856 211.618 162.036 211.55C164.431 210.687 167.039 210.606 169.482 211.32C169.587 211.347 169.685 211.394 169.771 211.458C169.857 211.523 169.929 211.604 169.984 211.696C170.039 211.789 170.074 211.891 170.09 211.997C170.105 212.104 170.099 212.212 170.072 212.317C170.046 212.42 169.999 212.518 169.934 212.604C169.87 212.69 169.789 212.762 169.696 212.818C169.604 212.873 169.501 212.908 169.395 212.924C169.288 212.939 169.18 212.933 169.076 212.906C166.959 212.279 164.696 212.34 162.616 213.08C162.524 213.115 162.427 213.133 162.328 213.134Z" fill="#29263B"/>
<path fill-rule="evenodd" clip-rule="evenodd" d="M17.8761 318.741L14.6639 341.346C19.7012 344.876 26.9059 346.129 34.8611 344.575L37.2242 324.38L17.8783 318.741H17.8761Z" fill="#FFBF9B"/>
<path fill-rule="evenodd" clip-rule="evenodd" d="M60.3379 248.862C52.7725 250.971 40.4159 252.618 35.3553 259.678C24.7056 274.542 20.1808 298.207 16.93 319.555C21.5066 322.312 29.2552 325.739 36.1518 325.183L34.0924 344.572C66.5899 352.836 96.7659 351.785 125.573 345.234C130.564 322.364 131.732 297.745 131.735 283.503L159.669 264.664C158.539 249.492 152.506 232.399 140.396 226.72L98.8019 246.975L60.3379 248.862Z" fill="#86B4FF"/>
<path d="M36.4898 325.976C36.4482 325.976 36.4066 325.974 36.3657 325.967C36.1511 325.934 35.9583 325.817 35.8291 325.643C35.7006 325.468 35.6466 325.249 35.6794 325.035C38.4266 307.001 39.3793 292.534 38.6784 279.504C38.6726 279.397 38.6879 279.29 38.7237 279.188C38.7595 279.087 38.8149 278.993 38.8872 278.913C38.9588 278.833 39.0456 278.768 39.1427 278.722C39.2398 278.675 39.345 278.648 39.4523 278.643C39.5603 278.637 39.6676 278.653 39.7691 278.689C39.8706 278.724 39.964 278.78 40.0436 278.851C40.1239 278.923 40.1889 279.01 40.2356 279.107C40.2816 279.204 40.3086 279.309 40.3144 279.416C41.0211 292.561 40.0633 307.133 37.2994 325.281C37.2695 325.475 37.1716 325.651 37.0234 325.779C36.8745 325.906 36.6854 325.976 36.4898 325.976Z" fill="#29263B"/>
<path fill-rule="evenodd" clip-rule="evenodd" d="M17.8572 152.262C9.86692 150.238 5.94663 144.858 10.5692 132.435C-3.37445 123.866 -4.37606 113.74 14.2267 101.25C1.93874 85.0525 12.8703 70.6886 33.2733 79.6529C34.2676 64.6478 40.8657 58.4363 56.5132 66.445C59.5794 47.2569 85.062 44.2956 91.0826 63.3736C103.055 49.6304 123.76 59.6537 120.838 74.3823C137.719 69.4771 153.69 84.1941 147.254 100.563C162.381 102.277 165.358 116.791 158.164 124.786C173.806 132.639 171.648 145.386 161.64 149.109C169.723 164.114 169.554 174.054 156.524 176.108C157.42 188.561 152.436 199.436 139.991 194.903C137.035 203.761 129.496 207.463 122.128 203.442L17.8572 152.262Z" fill="#29263B"/>
<path fill-rule="evenodd" clip-rule="evenodd" d="M29.2501 125.515C29.2501 125.515 -0.0900393 164.574 6.89785 195.694C15.1093 232.259 54.4961 231.128 66.6746 231.58C68.9669 251.29 59.5005 250.187 59.5005 250.187C52.5586 281.446 87.9493 282.273 101.823 245.921C90.9125 240.131 89.9167 230.02 104.378 208.329C126.978 225.301 146.637 191.132 124.275 183.519C119.993 178.671 121.501 169.998 127.172 166.248C116.114 166.921 118.855 155.543 125.223 147.874C108.692 152.442 107.754 143.23 114.255 131.642C98.1632 138.587 92.1294 130.913 95.5307 119.586C82.3382 134.054 66.1431 134.333 69.2917 118.868C55.0488 134.466 40.5459 135.157 41.3562 122.534C37.6068 128.394 30.2502 130.135 29.2479 125.513L29.2501 125.515Z" fill="#FFA775"/>
<path fill-rule="evenodd" clip-rule="evenodd" d="M83.3756 226.449C79.172 229.294 71.914 231.182 66.6716 231.579C67.0016 234.175 67.0994 236.797 66.9636 239.411C74.3531 239.053 80.946 233.589 83.3756 226.449Z" fill="#F08855"/>
<path d="M113.636 204.429C113.498 204.429 113.361 204.394 113.239 204.326C113.118 204.259 113.016 204.162 112.942 204.044C112.868 203.927 112.826 203.792 112.819 203.653C112.812 203.514 112.84 203.377 112.901 203.252C116.535 195.816 122.354 193.089 130.199 195.14C130.409 195.195 130.588 195.331 130.698 195.519C130.808 195.706 130.839 195.93 130.783 196.14C130.729 196.35 130.592 196.529 130.404 196.638C130.217 196.748 129.993 196.779 129.783 196.724C122.702 194.87 117.665 197.242 114.373 203.97C114.306 204.108 114.201 204.224 114.071 204.305C113.94 204.386 113.79 204.429 113.636 204.429Z" fill="#29263B"/>
<path d="M34.0231 173.553C33.9041 173.553 33.7866 173.527 33.6785 173.477C33.5705 173.426 33.4749 173.353 33.3982 173.261C29.529 168.72 28.1492 164.643 29.2925 161.146C30.8036 156.523 36.495 153.093 46.6921 150.661C46.7965 150.636 46.9053 150.631 47.0119 150.648C47.1177 150.666 47.2199 150.703 47.3112 150.759C47.4032 150.816 47.4828 150.89 47.5455 150.976C47.6091 151.063 47.6543 151.162 47.6791 151.267C47.704 151.371 47.7083 151.48 47.6915 151.586C47.674 151.692 47.6368 151.794 47.5806 151.885C47.5236 151.977 47.4499 152.057 47.363 152.119C47.2762 152.183 47.1769 152.228 47.0725 152.253C37.6098 154.51 32.1513 157.673 30.8496 161.653C29.8948 164.571 31.1723 168.122 34.6458 172.201C34.7473 172.32 34.813 172.465 34.8342 172.62C34.8553 172.775 34.832 172.933 34.7663 173.075C34.7013 173.216 34.5962 173.337 34.4648 173.42C34.3326 173.505 34.1793 173.55 34.0231 173.55V173.553Z" fill="#29263B"/>
<path d="M57.1716 200.663C57.0556 200.663 56.9402 200.638 56.8344 200.59C56.7285 200.542 56.6343 200.473 56.5577 200.385C53.4463 196.855 50.7568 195.175 48.6142 195.361C47.068 195.502 45.694 196.601 44.4172 198.728C44.3019 198.907 44.1215 199.035 43.9135 199.083C43.7061 199.132 43.4871 199.097 43.3046 198.987C43.1214 198.878 42.9885 198.701 42.9345 198.495C42.8798 198.288 42.9082 198.07 43.0126 197.884C44.5566 195.317 46.392 193.919 48.466 193.731C51.2014 193.487 54.261 195.304 57.7863 199.304C57.8907 199.422 57.9586 199.568 57.982 199.723C58.0053 199.879 57.9834 200.038 57.9185 200.182C57.8535 200.325 57.7484 200.447 57.6162 200.532C57.4834 200.617 57.3293 200.663 57.1716 200.663Z" fill="#29263B"/>
<path d="M98.6107 145.66C98.1216 145.659 97.6507 145.477 97.2893 145.147C96.9272 144.818 96.7016 144.367 96.6556 143.88C96.2556 139.637 95.1605 136.798 93.4004 135.443C92.1732 134.494 90.5255 134.21 88.3632 134.567C87.8485 134.652 87.3214 134.529 86.898 134.225C86.4739 133.922 86.1884 133.462 86.1037 132.948C86.019 132.434 86.1424 131.907 86.4461 131.484C86.7498 131.06 87.2097 130.775 87.7244 130.691C90.9738 130.156 93.6924 130.708 95.8015 132.332C98.4961 134.408 100.056 138.065 100.57 143.512C100.619 144.03 100.46 144.547 100.127 144.949C99.7948 145.35 99.3166 145.603 98.7976 145.652C98.7348 145.657 98.672 145.66 98.6107 145.66Z" fill="#29263B"/>
<path d="M28.6493 138.576C28.3069 138.576 27.9711 138.486 27.674 138.316C27.3769 138.146 27.1294 137.902 26.9556 137.607C26.7826 137.313 26.6892 136.978 26.6848 136.637C26.6804 136.294 26.7651 135.957 26.9315 135.658C28.6836 132.493 30.7036 130.656 33.0967 130.042C35.2138 129.499 37.4871 129.98 39.8532 131.47C40.2934 131.748 40.6051 132.189 40.7197 132.697C40.8343 133.205 40.7431 133.737 40.4657 134.177C40.1875 134.618 39.7466 134.93 39.2392 135.045C38.7311 135.161 38.1982 135.071 37.7572 134.794C36.322 133.89 35.1218 133.58 34.0742 133.846C32.8032 134.172 31.557 135.422 30.3707 137.561C30.2006 137.868 29.9517 138.124 29.6487 138.303C29.3458 138.482 29.0012 138.576 28.6493 138.576Z" fill="#29263B"/>
<path fill-rule="evenodd" clip-rule="evenodd" d="M85.8497 143.085C88.1485 143.677 89.1348 147.564 88.0588 151.765C86.9827 155.965 84.2341 158.893 81.936 158.304C79.6378 157.715 78.6508 153.825 79.7261 149.624C80.8015 145.424 83.5486 142.497 85.8497 143.086V143.085Z" fill="#29263B"/>
<path fill-rule="evenodd" clip-rule="evenodd" d="M31.6731 139.665C33.7237 140.116 34.6888 143.669 33.8238 147.594C32.9587 151.519 30.5933 154.339 28.5405 153.887C26.4876 153.434 25.5247 149.882 26.3898 145.96C27.2549 142.037 29.6224 139.213 31.6731 139.665Z" fill="#29263B"/>
<path fill-rule="evenodd" clip-rule="evenodd" d="M136.155 21.2284C136.102 10.2599 144.629 0.737642 163.717 0.359817C182.804 -0.0180078 195.546 11.9272 193.266 21.1781C190.289 33.2466 169.55 36.6361 169.888 49.3662C169.939 51.3027 157.312 51.1284 157.312 49.1904C157.02 36.5092 182.206 30.3816 182.59 20.9411C182.923 12.6639 176.156 8.17671 163.82 8.17671C155.25 8.17671 148.046 12.5881 147.414 21.1278C147.306 22.933 136.164 23.0344 136.155 21.227V21.2284Z" fill="#9290EC"/>
<path fill-rule="evenodd" clip-rule="evenodd" d="M163.53 55.3831C168.341 55.3831 172.246 57.9673 172.246 61.1518C172.246 64.3363 168.341 66.9191 163.53 66.9191C158.719 66.9191 154.816 64.3349 154.816 61.1518C154.816 57.9688 158.721 55.3831 163.53 55.3831H163.53Z" fill="#9290EC"/>
</g>
<defs>
<clipPath id="clip0_321_36">
<rect width="194" height="350" fill="white"/>
</clipPath>
</defs>
</svg>
