<svg width="264" height="350" viewBox="0 0 264 350" fill="none" xmlns="http://www.w3.org/2000/svg">
<g clip-path="url(#clip0_71_131)">
<path fill-rule="evenodd" clip-rule="evenodd" d="M193.692 51.2735C190.393 57.4134 184.919 61.2608 177.078 62.6183C180.694 66.4783 185.54 68.9556 190.783 69.624C163.259 121.033 169.952 153.145 196.273 185.908L186.062 182.575L192.265 193.751C143.869 227.104 69.3652 229.344 9.01458 208.966L20.3071 198.243L-0.10437 203.843C18.4547 177.799 0.722939 127.822 20.8817 86.6184C39.4958 48.567 86.2476 31.945 129.072 35.8539C160.116 38.6862 182.64 52.8447 193.694 51.2735H193.692Z" fill="#494F9B"/>
<path fill-rule="evenodd" clip-rule="evenodd" d="M217.708 232.065C216.454 225.274 201.809 212.817 199.253 205.86C193.961 191.465 198.977 179.161 193.741 175.671C190.096 173.24 180.949 174.271 184.209 200.677C173.393 196.193 171.197 205.396 171.48 208.429C166.928 208.684 163.751 216.206 165.948 220.434C163.65 232.868 168.893 236.98 178.382 234.154C183.986 240.516 190.039 241.212 198.455 239.096C198.584 250.225 193.534 255.592 190.099 263.366L179.764 254.662L166.13 274.137C166.13 274.137 183.58 292.626 192.688 291.138C214.542 287.571 219.17 239.99 217.707 232.065H217.708Z" fill="#FFA775"/>
<path d="M189.686 269.146C189.453 269.146 189.229 269.053 189.064 268.888C188.898 268.724 188.804 268.5 188.802 268.266L188.771 263.838C188.77 263.721 188.792 263.606 188.836 263.499C188.879 263.391 188.944 263.293 189.025 263.21C189.106 263.128 189.203 263.061 189.311 263.016C189.418 262.971 189.532 262.948 189.648 262.947H189.655C189.888 262.947 190.111 263.04 190.277 263.204C190.443 263.369 190.537 263.593 190.538 263.826L190.57 268.255C190.57 268.371 190.548 268.487 190.505 268.594C190.461 268.702 190.397 268.8 190.316 268.883C190.234 268.965 190.137 269.031 190.03 269.076C189.923 269.121 189.808 269.145 189.692 269.146H189.686Z" fill="#29263B"/>
<path fill-rule="evenodd" clip-rule="evenodd" d="M136.675 224.91C136.675 224.91 149.532 229.723 153.673 231.997C162.875 237.052 189.895 260.878 189.895 260.878C182.66 264.928 173.62 275.217 170.698 284.897L180.257 331.046C167.715 350.118 96.7193 356.327 86.2862 343.65C80.8548 326.825 72.5703 317.583 57.4653 311.91C57.4653 311.91 57.5146 274.007 71.4732 250.075C78.0981 238.716 94.1524 226.468 94.1524 226.468L136.675 224.909V224.91Z" fill="#8ED8AA"/>
<path d="M169.876 284.651C169.674 284.651 169.478 284.581 169.321 284.454C169.163 284.326 169.055 284.148 169.013 283.95C167.306 276.307 165.054 268.797 162.273 261.477C162.197 261.258 162.209 261.018 162.308 260.808C162.407 260.598 162.583 260.436 162.8 260.355C163.017 260.274 163.257 260.282 163.468 260.376C163.68 260.471 163.845 260.645 163.93 260.861C166.748 268.259 169.024 275.852 170.741 283.582C170.766 283.695 170.767 283.812 170.746 283.927C170.725 284.041 170.681 284.15 170.619 284.248C170.555 284.345 170.474 284.429 170.378 284.495C170.282 284.561 170.175 284.607 170.061 284.632C170 284.645 169.938 284.651 169.876 284.651Z" fill="#29263B"/>
<path fill-rule="evenodd" clip-rule="evenodd" d="M137.028 222.303L142.185 225.628C142.185 225.628 154.891 247.717 143.003 252.721C133.42 256.751 122.546 247.956 122.546 247.956C122.546 247.956 115.918 259.823 103.615 258.349C89.3297 256.633 86.76 228.939 86.76 228.939L92.6504 224.221L137.028 222.303Z" fill="white"/>
<path fill-rule="evenodd" clip-rule="evenodd" d="M87.5048 312.999C78.3209 316.282 64.9604 314.658 57.499 310.014C56.2512 323.596 56.2555 335.648 57.616 346.043C65.2281 350.444 75.9967 350.782 88.5633 347.427C86.1828 335.975 86.1085 324.751 87.5048 313.001V312.999Z" fill="#FFA775"/>
<path d="M87.5617 313.862C87.5217 313.862 87.4824 313.859 87.4432 313.853C87.3282 313.837 87.2169 313.799 87.117 313.742C87.0163 313.683 86.9285 313.605 86.8578 313.513C86.7879 313.421 86.7365 313.315 86.7065 313.203C86.6765 313.09 86.6694 312.973 86.6851 312.858C87.6131 305.912 89.1656 300.097 91.2885 295.573C91.3356 295.465 91.4041 295.367 91.4898 295.285C91.5754 295.204 91.6768 295.141 91.7874 295.099C91.8981 295.058 92.0151 295.039 92.1329 295.044C92.2514 295.049 92.367 295.077 92.4734 295.127C92.5805 295.177 92.6761 295.249 92.7546 295.337C92.8339 295.425 92.8946 295.527 92.9331 295.639C92.9716 295.751 92.9873 295.869 92.9795 295.986C92.9716 296.104 92.9402 296.22 92.8874 296.325C90.8416 300.686 89.3433 306.328 88.4361 313.095C88.4075 313.307 88.3033 313.501 88.1427 313.642C87.9814 313.783 87.7751 313.861 87.5617 313.862Z" fill="#29263B"/>
<path fill-rule="evenodd" clip-rule="evenodd" d="M163.418 78.7228C163.418 78.7228 197.11 129.015 194.071 160.432C190.853 193.719 150.037 202.299 128.698 203.28C125.47 213.261 128.853 222.374 137.219 225.842C134.754 233.697 129.741 240.503 122.975 245.179C114.068 242.216 104.526 236.243 94.1895 226.508C102.867 223.259 107.905 209.645 91.033 184.019C60.4769 198.417 47.7325 153.623 81.1111 158.626C72.1049 141.481 65.3808 125.573 61.4013 106.307L75.5847 95.239L74.0607 77.4689L80.722 92.3281L108.446 83.8212L106.285 67.2507L115.763 80.723L143.602 77.7148L139.524 63.6907L151.389 77.4561L163.419 78.7235L163.418 78.7228Z" fill="#FFA775"/>
<path fill-rule="evenodd" clip-rule="evenodd" d="M113.094 201.542C114.613 206.506 119.012 211.599 127.647 212.908C127.298 209.659 127.657 206.373 128.7 203.276C123.741 203.456 118.924 202.837 113.094 201.542Z" fill="#F08855"/>
<path d="M157.298 136.087C157.171 136.086 157.046 136.059 156.931 136.005C156.815 135.952 156.713 135.875 156.63 135.779C156.547 135.684 156.485 135.571 156.45 135.448C156.414 135.327 156.405 135.199 156.423 135.073C157.288 129.174 156.617 125.268 154.429 123.464C152.24 121.659 148.29 121.741 142.699 123.716C142.59 123.758 142.472 123.778 142.354 123.774C142.236 123.77 142.12 123.743 142.013 123.693C141.906 123.643 141.81 123.572 141.731 123.485C141.651 123.398 141.59 123.296 141.551 123.184C141.512 123.073 141.495 122.955 141.502 122.837C141.509 122.719 141.54 122.603 141.592 122.497C141.644 122.391 141.717 122.297 141.806 122.22C141.895 122.143 141.999 122.084 142.111 122.048C148.414 119.822 152.811 119.837 155.552 122.098C158.294 124.358 159.146 128.684 158.171 135.33C158.14 135.541 158.035 135.732 157.874 135.871C157.715 136.01 157.51 136.086 157.298 136.087Z" fill="#29263B"/>
<path fill-rule="evenodd" clip-rule="evenodd" d="M150.296 156.528C155.707 157.415 156.348 171.432 147.803 171.039C139.258 170.647 142.423 155.235 150.296 156.528Z" fill="#971B1B"/>
<path d="M85.2754 106.709C85.0998 106.709 84.9242 106.687 84.7536 106.644C84.2082 106.505 83.7407 106.156 83.453 105.672C83.1653 105.188 83.0811 104.609 83.2189 104.063C85.4866 95.0952 91.1272 90.3042 99.5302 90.2084C100.09 90.2098 100.627 90.43 101.027 90.8224C101.427 91.2142 101.658 91.7475 101.672 92.3079C101.677 92.8705 101.459 93.4124 101.066 93.8141C100.673 94.2166 100.137 94.4461 99.5751 94.4525C93.0373 94.524 89.1456 97.911 87.3261 105.104C87.2112 105.561 86.9471 105.968 86.5752 106.258C86.204 106.549 85.7465 106.707 85.2754 106.709Z" fill="#29263B"/>
<path d="M163.765 95.2025C163.341 95.2025 162.926 95.0752 162.575 94.8365C162.224 94.5977 161.952 94.2589 161.795 93.8635C161.386 92.7355 160.724 91.7161 159.862 90.8833C158.999 90.0512 157.956 89.4271 156.816 89.0597C155.942 88.8152 155.023 88.7809 154.133 88.9603C153.243 89.139 152.408 89.5265 151.696 90.0898C151.249 90.4308 150.684 90.5802 150.127 90.5044C149.568 90.4286 149.064 90.1341 148.723 89.6859C148.383 89.2377 148.234 88.6722 148.309 88.1132C148.385 87.5549 148.679 87.0495 149.127 86.7085C150.356 85.7427 151.796 85.0808 153.329 84.7784C154.862 84.476 156.445 84.5403 157.948 84.9671C159.719 85.5097 161.341 86.4519 162.691 87.7215C164.042 88.9903 165.082 90.553 165.735 92.2887C165.863 92.6111 165.91 92.9593 165.872 93.3038C165.834 93.6484 165.713 93.9786 165.519 94.2653C165.325 94.5527 165.064 94.7879 164.758 94.9501C164.452 95.1131 164.112 95.1982 163.765 95.1989V95.2025Z" fill="#29263B"/>
<path fill-rule="evenodd" clip-rule="evenodd" d="M99.4801 106.857C97.0703 107.633 96.3729 112.188 97.924 117.019C99.4751 121.851 102.694 125.145 105.107 124.368C107.52 123.591 108.214 119.037 106.662 114.205C105.111 109.373 101.892 106.08 99.4801 106.857Z" fill="#29263B"/>
<path d="M82.7157 175.856C82.5958 175.856 82.4766 175.832 82.366 175.785C82.2553 175.737 82.1561 175.667 82.0733 175.579C77.9296 171.199 72.8808 169.646 66.6371 170.833C66.5222 170.858 66.4037 170.858 66.2881 170.836C66.1724 170.814 66.0625 170.769 65.9647 170.704C65.8669 170.639 65.7834 170.555 65.7184 170.457C65.6535 170.359 65.6085 170.248 65.5864 170.133C65.5643 170.017 65.5657 169.898 65.5907 169.783C65.6149 169.667 65.6621 169.559 65.7292 169.462C65.7963 169.365 65.8819 169.283 65.9811 169.22C66.0804 169.157 66.1917 169.114 66.3073 169.095C73.0943 167.803 78.8297 169.577 83.356 174.362C83.4745 174.488 83.5538 174.646 83.5844 174.816C83.6144 174.986 83.5937 175.162 83.5259 175.321C83.4574 175.479 83.3439 175.615 83.1997 175.71C83.0555 175.805 82.8863 175.856 82.7136 175.856H82.7157Z" fill="#29263B"/>
<path fill-rule="evenodd" clip-rule="evenodd" d="M158.052 97.2678C155.831 97.8333 154.975 102.029 156.143 106.632C157.312 111.235 160.064 114.51 162.288 113.943C164.511 113.375 165.363 109.183 164.197 104.582C163.03 99.98 160.276 96.7031 158.052 97.2678Z" fill="#29263B"/>
<path d="M166.187 221.38C166.043 221.38 165.9 221.344 165.773 221.276C165.646 221.209 165.537 221.11 165.456 220.99C165.375 220.87 165.325 220.732 165.309 220.589C165.294 220.444 165.314 220.299 165.368 220.165C165.661 219.387 166.11 218.677 166.686 218.08C167.263 217.483 167.956 217.009 168.723 216.691C171.203 215.639 174.608 215.94 178.573 217.564C178.683 217.607 178.783 217.671 178.868 217.752C178.952 217.834 179.019 217.932 179.065 218.04C179.112 218.147 179.137 218.264 179.137 218.381C179.138 218.499 179.116 218.616 179.072 218.724C179.027 218.833 178.961 218.932 178.878 219.015C178.795 219.098 178.696 219.164 178.588 219.208C178.479 219.253 178.363 219.276 178.245 219.274C178.128 219.273 178.012 219.248 177.904 219.202C174.437 217.781 171.42 217.467 169.41 218.32C168.859 218.551 168.362 218.892 167.948 219.322C167.534 219.752 167.212 220.263 167.003 220.823C166.938 220.986 166.826 221.127 166.681 221.226C166.535 221.326 166.364 221.379 166.187 221.38Z" fill="#29263B"/>
<path d="M178.024 234.645C177.905 234.645 177.785 234.621 177.675 234.573C177.564 234.526 177.465 234.456 177.382 234.369C176.426 233.393 175.672 232.238 175.162 230.97C174.653 229.702 174.398 228.345 174.413 226.978C174.425 226.745 174.526 226.525 174.696 226.365C174.866 226.206 175.091 226.118 175.324 226.12C175.44 226.124 175.555 226.15 175.66 226.198C175.766 226.246 175.862 226.314 175.942 226.399C176.021 226.484 176.083 226.583 176.124 226.692C176.165 226.801 176.184 226.917 176.181 227.033C176.167 229.321 177.061 231.521 178.665 233.15C178.785 233.276 178.864 233.434 178.895 233.604C178.925 233.774 178.905 233.95 178.836 234.109C178.768 234.268 178.654 234.404 178.51 234.499C178.365 234.594 178.196 234.644 178.023 234.644L178.024 234.645Z" fill="#29263B"/>
<path d="M179.432 211.262C179.293 211.262 179.157 211.229 179.034 211.167C175.802 209.531 173.109 208.89 171.645 209.412C171.424 209.49 171.181 209.477 170.97 209.377C170.758 209.275 170.595 209.094 170.517 208.873C170.439 208.652 170.452 208.409 170.552 208.196C170.653 207.985 170.834 207.822 171.055 207.743C173.548 206.857 177.204 208.257 179.831 209.588C180.008 209.677 180.15 209.824 180.235 210.005C180.318 210.185 180.339 210.389 180.292 210.583C180.246 210.776 180.136 210.949 179.98 211.072C179.823 211.195 179.631 211.262 179.432 211.262Z" fill="#29263B"/>
<path fill-rule="evenodd" clip-rule="evenodd" d="M202.094 29.7218C202.036 17.863 211.234 7.56681 231.825 7.15791C252.415 6.749 266.159 19.668 263.698 29.6675C260.485 42.7159 238.117 46.3803 238.481 60.1456C238.536 62.2395 224.918 62.0508 224.918 59.9555C224.605 46.2444 251.775 39.6191 252.186 29.4116C252.543 20.4629 245.246 15.6147 231.939 15.6147C222.694 15.6147 214.924 20.3843 214.243 29.6182C214.126 31.5705 202.108 31.6798 202.097 29.7254L202.094 29.7218Z" fill="#9290EC"/>
<path fill-rule="evenodd" clip-rule="evenodd" d="M231.623 66.6509C236.811 66.6509 241.024 69.4446 241.024 72.8881C241.024 76.3315 236.813 79.1231 231.623 79.1231C226.432 79.1231 222.222 76.3294 222.222 72.8881C222.222 69.4467 226.434 66.6509 231.623 66.6509Z" fill="#9290EC"/>
</g>
<defs>
<clipPath id="clip0_71_131">
<rect width="264" height="350" fill="white"/>
</clipPath>
</defs>
</svg>
