<svg width="100" height="100" viewBox="0 0 100 100" fill="none" xmlns="http://www.w3.org/2000/svg">
<g clip-path="url(#clip0_292_18)">
<path d="M50 100.148C77.6957 100.148 100.148 77.6957 100.148 50C100.148 22.3043 77.6957 -0.147461 50 -0.147461C22.3043 -0.147461 -0.147461 22.3043 -0.147461 50C-0.147461 77.6957 22.3043 100.148 50 100.148Z" fill="#F7F7FC"/>
<path d="M70.7622 47.612C69.9316 46.5286 68.9205 45.5897 67.9816 44.6508C65.5621 42.484 62.8176 40.9312 60.5064 38.6561C55.1257 33.3838 53.934 24.6807 57.3646 18C53.934 18.8306 50.9367 20.7084 48.3727 22.7668C39.0197 30.2781 35.3362 43.5313 39.7419 54.9066C39.8863 55.2677 40.0308 55.6289 40.0308 56.0983C40.0308 56.8928 39.4891 57.615 38.7669 57.9039C37.9363 58.265 37.0696 58.0484 36.3835 57.4706C36.1785 57.2989 36.0071 57.0907 35.8779 56.8567C31.7972 51.6926 31.1472 44.2896 33.8917 38.3672C27.861 43.2785 24.5748 51.5843 25.0443 59.4206C25.2609 61.2262 25.4776 63.0318 26.0915 64.8374C26.5971 67.0042 27.5721 69.1709 28.6555 71.0849C32.5556 77.3323 39.3086 81.8102 46.5671 82.713C54.2951 83.688 62.5648 82.2796 68.4872 76.935C75.0957 70.9404 77.4069 61.3346 74.0123 53.101L73.5429 52.1621C72.7845 50.5009 70.7622 47.612 70.7622 47.612ZM59.3508 70.3626C58.3397 71.2293 56.6785 72.1682 55.3785 72.5293C51.3339 73.9738 47.2893 71.9515 44.9059 69.5681C49.2033 68.557 51.7672 65.3791 52.5256 62.1651C53.1395 59.2762 51.9839 56.8928 51.5145 54.1121C51.0811 51.4398 51.1533 49.1648 52.1284 46.673C52.8145 48.0453 53.5367 49.4176 54.4034 50.5009C57.1841 54.1121 61.5536 55.7011 62.4925 60.6123C62.637 61.1179 62.7092 61.6235 62.7092 62.1651C62.8176 65.1263 61.5175 68.3764 59.3508 70.3626Z" fill="url(#paint0_linear_292_18)"/>
</g>
<defs>
<linearGradient id="paint0_linear_292_18" x1="50.2831" y1="18" x2="50.2831" y2="83" gradientUnits="userSpaceOnUse">
<stop stop-color="#7A77F3"/>
<stop offset="1" stop-color="#3F3BD4"/>
</linearGradient>
<clipPath id="clip0_292_18">
<rect width="100" height="100" fill="white"/>
</clipPath>
</defs>
</svg>
