<svg width="100" height="100" viewBox="0 0 100 100" fill="none" xmlns="http://www.w3.org/2000/svg">
<g clip-path="url(#clip0_292_21)">
<path d="M-0.0500488 50C-0.0500488 22.3581 22.3581 -0.0500183 50 -0.0500183C77.6416 -0.0500183 100.05 22.3581 100.05 50C100.05 77.6417 77.6416 100.05 50 100.05C22.3581 100.05 -0.0500488 77.6417 -0.0500488 50Z" fill="#F7F7FC"/>
<path d="M46.1331 32.828L36.0478 40.8594C31.8165 44.2287 29.7008 45.9139 30.1138 47.7948L30.1358 47.8879C30.6062 49.7572 33.288 50.476 38.6515 51.9134C41.6321 52.7117 43.1226 53.1111 43.8218 54.2407L43.8573 54.3003C44.532 55.4434 44.1481 56.8754 43.3808 59.7392L43.1801 60.4875C41.0525 68.4274 39.9889 72.3969 42.0375 73.6792C44.086 74.961 47.3458 72.3654 53.8648 67.1742L63.9504 59.1426C68.1816 55.7733 70.2972 54.0886 69.8843 52.2072L69.8628 52.1141C69.3918 50.2447 66.7101 49.526 61.3468 48.0891C58.3663 47.2903 56.8758 46.8909 56.1766 45.7613L56.1411 45.7017C55.4664 44.5585 55.8503 43.1266 56.6176 40.2633L56.8183 39.5145C58.9454 31.5748 60.0094 27.6049 57.9604 26.3229C55.9118 25.0408 52.6521 27.6366 46.1331 32.828Z" fill="url(#paint0_linear_292_21)"/>
</g>
<defs>
<linearGradient id="paint0_linear_292_21" x1="49.9991" y1="25.9989" x2="49.9991" y2="74.003" gradientUnits="userSpaceOnUse">
<stop stop-color="#7A77F3"/>
<stop offset="1" stop-color="#3F3BD4"/>
</linearGradient>
<clipPath id="clip0_292_21">
<rect width="100" height="100" fill="white"/>
</clipPath>
</defs>
</svg>
